%TF.GenerationSoftware,KiCad,Pcbnew,10.0.6*%
%TF.CreationDate,2026-10-08T23:49:17+13:00*%
%TF.ProjectId,receiver,72656365-6976-4657-922e-6b696361645f,rev?*%
%TF.SameCoordinates,Original*%
%TF.FileFunction,Copper,L1,Top*%
%TF.FilePolarity,Positive*%
%FSLAX46Y46*%
G04 Gerber Fmt 4.6, Leading zero omitted, Abs format (unit mm)*
G04 Created by KiCad (PCBNEW 10.0.6) date 2026-10-08 23:49:17*
%MOMM*%
%LPD*%
G01*
G04 APERTURE LIST*
G04 Aperture macros list*
%AMRoundRect*
0 Rectangle with rounded corners*
0 $1 Rounding radius*
0 $2 $3 $4 $5 $6 $7 $8 $9 X,Y pos of 4 corners*
0 Add a 4 corners polygon primitive as box body*
4,1,4,$2,$3,$4,$5,$6,$7,$8,$9,$2,$3,0*
0 Add four circle primitives for the rounded corners*
1,1,$1+$1,$2,$3*
1,1,$1+$1,$4,$5*
1,1,$1+$1,$6,$7*
1,1,$1+$1,$8,$9*
0 Add four rect primitives between the rounded corners*
20,1,$1+$1,$2,$3,$4,$5,0*
20,1,$1+$1,$4,$5,$6,$7,0*
20,1,$1+$1,$6,$7,$8,$9,0*
20,1,$1+$1,$8,$9,$2,$3,0*%
G04 Aperture macros list end*
%TA.AperFunction,SMDPad,CuDef*%
%ADD10RoundRect,0.200000X-0.200000X-0.275000X0.200000X-0.275000X0.200000X0.275000X-0.200000X0.275000X0*%
%TD*%
%TA.AperFunction,SMDPad,CuDef*%
%ADD11R,1.000000X1.800000*%
%TD*%
%TA.AperFunction,SMDPad,CuDef*%
%ADD12RoundRect,0.225000X-0.225000X-0.250000X0.225000X-0.250000X0.225000X0.250000X-0.225000X0.250000X0*%
%TD*%
%TA.AperFunction,SMDPad,CuDef*%
%ADD13RoundRect,0.150000X0.150000X-0.512500X0.150000X0.512500X-0.150000X0.512500X-0.150000X-0.512500X0*%
%TD*%
%TA.AperFunction,SMDPad,CuDef*%
%ADD14R,1.700000X1.000000*%
%TD*%
%TA.AperFunction,SMDPad,CuDef*%
%ADD15R,0.600000X1.450000*%
%TD*%
%TA.AperFunction,SMDPad,CuDef*%
%ADD16R,0.300000X1.450000*%
%TD*%
%TA.AperFunction,ComponentPad*%
%ADD17O,1.000000X2.100000*%
%TD*%
%TA.AperFunction,ComponentPad*%
%ADD18O,1.000000X1.600000*%
%TD*%
%TA.AperFunction,ComponentPad*%
%ADD19R,1.700000X1.700000*%
%TD*%
%TA.AperFunction,ComponentPad*%
%ADD20O,1.700000X1.700000*%
%TD*%
%TA.AperFunction,SMDPad,CuDef*%
%ADD21RoundRect,0.150000X-0.512500X-0.150000X0.512500X-0.150000X0.512500X0.150000X-0.512500X0.150000X0*%
%TD*%
%TA.AperFunction,SMDPad,CuDef*%
%ADD22R,0.600000X0.400000*%
%TD*%
%TA.AperFunction,SMDPad,CuDef*%
%ADD23R,0.400000X0.600000*%
%TD*%
%TA.AperFunction,ViaPad*%
%ADD24C,0.500000*%
%TD*%
%TA.AperFunction,Conductor*%
%ADD25C,0.170000*%
%TD*%
%TA.AperFunction,Conductor*%
%ADD26C,0.127400*%
%TD*%
G04 APERTURE END LIST*
D10*
%TO.P,R2,1*%
%TO.N,/CC2*%
X20175000Y-9000000D03*
%TO.P,R2,2*%
%TO.N,/GND*%
X21825000Y-9000000D03*
%TD*%
D11*
%TO.P,Y1,1*%
%TO.N,/LF_XL1*%
X13250000Y-33000000D03*
%TO.P,Y1,2*%
%TO.N,/LF_XL2*%
X10750000Y-33000000D03*
%TD*%
D12*
%TO.P,C1,1*%
%TO.N,/USB_VBUS*%
X20225000Y-19000000D03*
%TO.P,C1,2*%
%TO.N,/GND*%
X21775000Y-19000000D03*
%TD*%
%TO.P,C4,1*%
%TO.N,/VDD_3V0*%
X16225000Y-35000000D03*
%TO.P,C4,2*%
%TO.N,/GND*%
X17775000Y-35000000D03*
%TD*%
D13*
%TO.P,U2,1*%
%TO.N,/USB_DP*%
X13050000Y-12637500D03*
%TO.P,U2,2*%
%TO.N,/GND*%
X14000000Y-12637500D03*
%TO.P,U2,3*%
%TO.N,/USB_DM*%
X14950000Y-12637500D03*
%TO.P,U2,4*%
X14950000Y-10362500D03*
%TO.P,U2,5*%
%TO.N,/USB_VBUS*%
X14000000Y-10362500D03*
%TO.P,U2,6*%
%TO.N,/USB_DP*%
X13050000Y-10362500D03*
%TD*%
D10*
%TO.P,R1,1*%
%TO.N,/CC1*%
X6175000Y-9000000D03*
%TO.P,R1,2*%
%TO.N,/GND*%
X7825000Y-9000000D03*
%TD*%
D14*
%TO.P,SW1,1*%
%TO.N,/PAIR*%
X1850000Y-13100000D03*
X8150000Y-13100000D03*
%TO.P,SW1,2*%
%TO.N,/GND*%
X1850000Y-16900000D03*
X8150000Y-16900000D03*
%TD*%
D12*
%TO.P,C5,1*%
%TO.N,/USB_VBUS*%
X19225000Y-11000000D03*
%TO.P,C5,2*%
%TO.N,/GND*%
X20775000Y-11000000D03*
%TD*%
D10*
%TO.P,R3,1*%
%TO.N,/VDD_3V0*%
X22175000Y-33000000D03*
%TO.P,R3,2*%
%TO.N,/MCU_RESET*%
X23825000Y-33000000D03*
%TD*%
D15*
%TO.P,J1,A1*%
%TO.N,/GND*%
X17250000Y-7645000D03*
%TO.P,J1,A4*%
%TO.N,/USB_VBUS*%
X16450000Y-7645000D03*
D16*
%TO.P,J1,A5*%
%TO.N,/CC1*%
X15250000Y-7645000D03*
%TO.P,J1,A6*%
%TO.N,/USB_DP*%
X14250000Y-7645000D03*
%TO.P,J1,A7*%
%TO.N,/USB_DM*%
X13750000Y-7645000D03*
%TO.P,J1,A8*%
%TO.N,unconnected-(J1-PadA8)*%
X12750000Y-7645000D03*
D15*
%TO.P,J1,A9*%
%TO.N,/USB_VBUS*%
X11550000Y-7645000D03*
%TO.P,J1,A12*%
%TO.N,/GND*%
X10750000Y-7645000D03*
%TO.P,J1,B1*%
X10750000Y-7645000D03*
%TO.P,J1,B4*%
%TO.N,/USB_VBUS*%
X11550000Y-7645000D03*
D16*
%TO.P,J1,B5*%
%TO.N,/CC2*%
X12250000Y-7645000D03*
%TO.P,J1,B6*%
%TO.N,/USB_DP*%
X13250000Y-7645000D03*
%TO.P,J1,B7*%
%TO.N,/USB_DM*%
X14750000Y-7645000D03*
%TO.P,J1,B8*%
%TO.N,unconnected-(J1-PadB8)*%
X15750000Y-7645000D03*
D15*
%TO.P,J1,B9*%
%TO.N,/USB_VBUS*%
X16450000Y-7645000D03*
%TO.P,J1,B12*%
%TO.N,/GND*%
X17250000Y-7645000D03*
D17*
%TO.P,J1,S1*%
X18320000Y-6730000D03*
D18*
X18320000Y-2550000D03*
D17*
X9680000Y-6730000D03*
D18*
X9680000Y-2550000D03*
%TD*%
D19*
%TO.P,J2,1*%
%TO.N,/VDD_3V0*%
X2800000Y-28000000D03*
D20*
%TO.P,J2,2*%
%TO.N,/SWDIO*%
X2800000Y-30540000D03*
%TO.P,J2,3*%
%TO.N,/SWDCLK*%
X2800000Y-33080000D03*
%TO.P,J2,4*%
%TO.N,/GND*%
X2800000Y-35620000D03*
%TO.P,J2,5*%
%TO.N,/MCU_RESET*%
X2800000Y-38160000D03*
%TD*%
D12*
%TO.P,C2,1*%
%TO.N,/VDD_3V0*%
X24225000Y-19000000D03*
%TO.P,C2,2*%
%TO.N,/GND*%
X25775000Y-19000000D03*
%TD*%
%TO.P,C6,1*%
%TO.N,/LF_XL1*%
X9225000Y-31000000D03*
%TO.P,C6,2*%
%TO.N,/GND*%
X10775000Y-31000000D03*
%TD*%
D21*
%TO.P,U3,1*%
%TO.N,/USB_VBUS*%
X21862500Y-15050000D03*
%TO.P,U3,2*%
%TO.N,/GND*%
X21862500Y-16000000D03*
%TO.P,U3,3*%
%TO.N,/USB_VBUS*%
X21862500Y-16950000D03*
%TO.P,U3,4*%
%TO.N,unconnected-(U3-Pad4)*%
X24137500Y-16950000D03*
%TO.P,U3,5*%
%TO.N,/VDD_3V0*%
X24137500Y-15050000D03*
%TD*%
D12*
%TO.P,C7,1*%
%TO.N,/LF_XL2*%
X13225000Y-31000000D03*
%TO.P,C7,2*%
%TO.N,/GND*%
X14775000Y-31000000D03*
%TD*%
%TO.P,C3,1*%
%TO.N,/VDD_3V0*%
X13225000Y-35000000D03*
%TO.P,C3,2*%
%TO.N,/GND*%
X14775000Y-35000000D03*
%TD*%
D14*
%TO.P,SW2,1*%
%TO.N,/MCU_RESET*%
X19850000Y-25100000D03*
X26150000Y-25100000D03*
%TO.P,SW2,2*%
%TO.N,/GND*%
X19850000Y-28900000D03*
X26150000Y-28900000D03*
%TD*%
D22*
%TO.P,U1,1*%
%TO.N,/GND*%
X18650000Y-47750000D03*
%TO.P,U1,2*%
X18650000Y-46650000D03*
%TO.P,U1,3*%
%TO.N,unconnected-(U1-P1.10-Pad3)*%
X18650000Y-45850000D03*
%TO.P,U1,4*%
%TO.N,unconnected-(U1-P1.11-Pad4)*%
X18650000Y-44250000D03*
%TO.P,U1,5*%
%TO.N,unconnected-(U1-P1.12-Pad5)*%
X17750000Y-43850000D03*
%TO.P,U1,6*%
%TO.N,unconnected-(U1-P1.13-Pad6)*%
X18650000Y-43450000D03*
%TO.P,U1,7*%
%TO.N,unconnected-(U1-P1.14-Pad7)*%
X17750000Y-43050000D03*
%TO.P,U1,8*%
%TO.N,unconnected-(U1-P1.15-Pad8)*%
X18650000Y-42650000D03*
%TO.P,U1,9*%
%TO.N,unconnected-(U1-P0.03{slash}AIN1-Pad9)*%
X17750000Y-42250000D03*
%TO.P,U1,10*%
%TO.N,unconnected-(U1-P0.29{slash}AIN5-Pad10)*%
X18650000Y-41850000D03*
%TO.P,U1,11*%
%TO.N,unconnected-(U1-P0.02{slash}AIN0-Pad11)*%
X17750000Y-41450000D03*
%TO.P,U1,12*%
%TO.N,unconnected-(U1-P0.31{slash}AIN7-Pad12)*%
X18650000Y-41050000D03*
%TO.P,U1,13*%
%TO.N,unconnected-(U1-P0.28{slash}AIN4-Pad13)*%
X17750000Y-40650000D03*
%TO.P,U1,14*%
%TO.N,unconnected-(U1-P0.30{slash}AIN6-Pad14)*%
X18650000Y-40250000D03*
D23*
%TO.P,U1,15*%
%TO.N,/GND*%
X18800000Y-36850000D03*
%TO.P,U1,16*%
%TO.N,/PAIR*%
X18000000Y-36850000D03*
%TO.P,U1,17*%
%TO.N,/LF_XL1*%
X17200000Y-36850000D03*
%TO.P,U1,18*%
%TO.N,/LF_XL2*%
X16400000Y-36850000D03*
%TO.P,U1,19*%
%TO.N,unconnected-(U1-P0.26-Pad19)*%
X16000000Y-37750000D03*
%TO.P,U1,20*%
%TO.N,unconnected-(U1-P0.04{slash}AIN2-Pad20)*%
X15600000Y-36850000D03*
%TO.P,U1,21*%
%TO.N,unconnected-(U1-P0.05{slash}AIN3-Pad21)*%
X15200000Y-37750000D03*
%TO.P,U1,22*%
%TO.N,unconnected-(U1-P0.06-Pad22)*%
X14800000Y-36850000D03*
%TO.P,U1,23*%
%TO.N,unconnected-(U1-TRACECLK{slash}P0.07-Pad23)*%
X14400000Y-37750000D03*
%TO.P,U1,24*%
%TO.N,unconnected-(U1-P0.08-Pad24)*%
X14000000Y-36850000D03*
%TO.P,U1,25*%
%TO.N,unconnected-(U1-P1.08-Pad25)*%
X13600000Y-37750000D03*
%TO.P,U1,26*%
%TO.N,unconnected-(U1-TRACEDATA3{slash}P1.09-Pad26)*%
X13200000Y-36850000D03*
%TO.P,U1,27*%
%TO.N,unconnected-(U1-TRACEDATA2{slash}P0.11-Pad27)*%
X12800000Y-37750000D03*
%TO.P,U1,28*%
%TO.N,/VDD_3V0*%
X12400000Y-36850000D03*
%TO.P,U1,29*%
%TO.N,unconnected-(U1-TRACEDATA1{slash}P0.12-Pad29)*%
X12000000Y-37750000D03*
%TO.P,U1,30*%
%TO.N,/VDD_3V0*%
X11600000Y-36850000D03*
%TO.P,U1,31*%
%TO.N,unconnected-(U1-DCCH-Pad31)*%
X10800000Y-36850000D03*
%TO.P,U1,32*%
%TO.N,/USB_VBUS*%
X10000000Y-36850000D03*
%TO.P,U1,33*%
%TO.N,/GND*%
X9200000Y-36850000D03*
D22*
%TO.P,U1,34*%
%TO.N,/USB_DM*%
X9350000Y-37850000D03*
%TO.P,U1,35*%
%TO.N,/USB_DP*%
X9350000Y-38650000D03*
%TO.P,U1,36*%
%TO.N,unconnected-(U1-P0.14-Pad36)*%
X10250000Y-39050000D03*
%TO.P,U1,37*%
%TO.N,unconnected-(U1-P0.13-Pad37)*%
X9350000Y-39450000D03*
%TO.P,U1,38*%
%TO.N,unconnected-(U1-P0.16-Pad38)*%
X10250000Y-39850000D03*
%TO.P,U1,39*%
%TO.N,unconnected-(U1-P0.15-Pad39)*%
X9350000Y-40250000D03*
%TO.P,U1,40*%
%TO.N,/MCU_RESET*%
X10250000Y-40650000D03*
%TO.P,U1,41*%
%TO.N,unconnected-(U1-P0.17-Pad41)*%
X9350000Y-41050000D03*
%TO.P,U1,42*%
%TO.N,unconnected-(U1-P0.19-Pad42)*%
X10250000Y-41450000D03*
%TO.P,U1,43*%
%TO.N,unconnected-(U1-P0.21-Pad43)*%
X10250000Y-42250000D03*
%TO.P,U1,44*%
%TO.N,unconnected-(U1-P0.20-Pad44)*%
X9350000Y-42650000D03*
%TO.P,U1,45*%
%TO.N,unconnected-(U1-P0.23-Pad45)*%
X10250000Y-43050000D03*
%TO.P,U1,46*%
%TO.N,unconnected-(U1-P0.22-Pad46)*%
X9350000Y-43450000D03*
%TO.P,U1,47*%
%TO.N,unconnected-(U1-TRACEDATA0{slash}P1.00-Pad47)*%
X10250000Y-43850000D03*
%TO.P,U1,48*%
%TO.N,unconnected-(U1-P0.24-Pad48)*%
X9350000Y-44250000D03*
%TO.P,U1,49*%
%TO.N,unconnected-(U1-P0.25-Pad49)*%
X10250000Y-44650000D03*
%TO.P,U1,50*%
%TO.N,unconnected-(U1-P1.02-Pad50)*%
X10250000Y-45450000D03*
%TO.P,U1,51*%
%TO.N,/SWDIO*%
X9350000Y-45850000D03*
%TO.P,U1,52*%
%TO.N,unconnected-(U1-P0.09{slash}NFC1-Pad52)*%
X10250000Y-46250000D03*
%TO.P,U1,53*%
%TO.N,/SWDCLK*%
X9350000Y-46650000D03*
%TO.P,U1,54*%
%TO.N,unconnected-(U1-P0.10{slash}NFC2-Pad54)*%
X10250000Y-47050000D03*
%TO.P,U1,55*%
%TO.N,/GND*%
X9350000Y-47750000D03*
D23*
%TO.P,U1,56*%
%TO.N,unconnected-(U1-P1.04-Pad56)*%
X16000000Y-43450000D03*
%TO.P,U1,57*%
%TO.N,unconnected-(U1-P1.06-Pad57)*%
X15200000Y-43450000D03*
%TO.P,U1,58*%
%TO.N,unconnected-(U1-P1.07-Pad58)*%
X14400000Y-43450000D03*
%TO.P,U1,59*%
%TO.N,unconnected-(U1-P1.05-Pad59)*%
X13600000Y-43450000D03*
%TO.P,U1,60*%
%TO.N,unconnected-(U1-P1.03-Pad60)*%
X12800000Y-43450000D03*
%TO.P,U1,61*%
%TO.N,unconnected-(U1-P1.01-Pad61)*%
X12000000Y-43450000D03*
%TD*%
D24*
%TO.N,/CC2*%
X12250000Y-8762300D03*
X20175000Y-8142100D03*
%TO.N,/GND*%
X11852800Y-31324500D03*
X17951800Y-46442200D03*
X5716800Y-16900000D03*
X14000000Y-12637500D03*
X1500000Y-1500000D03*
X8809800Y-47209700D03*
X1500000Y-52500000D03*
X26500000Y-52500000D03*
X9200000Y-33977300D03*
X26500000Y-27000000D03*
X26500000Y-1500000D03*
X1500000Y-27000000D03*
%TO.N,/LF_XL1*%
X17200000Y-37541500D03*
X11547500Y-34168700D03*
%TO.N,/LF_XL2*%
X11626900Y-33461800D03*
X16400000Y-36166700D03*
%TO.N,/USB_VBUS*%
X11550000Y-9984900D03*
X14000000Y-11422300D03*
%TO.N,/VDD_3V0*%
X23213300Y-15974200D03*
X14906600Y-35860900D03*
X22175000Y-33860300D03*
%TO.N,/USB_DP*%
X14250000Y-8600000D03*
X13250000Y-8600000D03*
%TO.N,/USB_DM*%
X14750000Y-9120000D03*
X13750000Y-9120000D03*
%TO.N,/CC1*%
X15379100Y-9371600D03*
X6955700Y-9550800D03*
%TO.N,/PAIR*%
X5716800Y-13100000D03*
X16997200Y-34211900D03*
%TO.N,/MCU_RESET*%
X22285300Y-25100000D03*
X11700000Y-39200000D03*
X23825000Y-29379500D03*
%TO.N,/SWDCLK*%
X8667600Y-46479300D03*
%TD*%
%TO.N,/CC2*%
D25*
X12250000Y-7645000D02*
X12250000Y-8762300D01*
X20175000Y-8142100D02*
X20175000Y-9000000D01*
%TO.N,/GND*%
X22856900Y-16980500D02*
X22856900Y-16531500D01*
X17775000Y-31000000D02*
X14775000Y-31000000D01*
X9211700Y-9000000D02*
X9802500Y-8409200D01*
X17775000Y-33724300D02*
X15659300Y-33724300D01*
X9680000Y-6730000D02*
X9680000Y-7991700D01*
X20775000Y-11000000D02*
X21825000Y-9950000D01*
X22267800Y-18507200D02*
X22588100Y-18507200D01*
X26150000Y-28900000D02*
X27211700Y-28900000D01*
D26*
X22449700Y-16000000D02*
X21862500Y-16000000D01*
D25*
X17775000Y-35000000D02*
X18800000Y-36025000D01*
D26*
X22449700Y-16124300D02*
X22764600Y-16439200D01*
D25*
X12797200Y-35702900D02*
X12535800Y-35441500D01*
X18320000Y-6730000D02*
X18320000Y-7360800D01*
X5716800Y-16900000D02*
X8150000Y-16900000D01*
X22588100Y-18507200D02*
X22588100Y-18313900D01*
X18788300Y-28900000D02*
X17775000Y-29913300D01*
X8150000Y-16900000D02*
X9211700Y-16900000D01*
X21825000Y-9000000D02*
X21825000Y-9950000D01*
X21825000Y-12469000D02*
X22735800Y-13379800D01*
X19161700Y-37723400D02*
X18800000Y-37361700D01*
D26*
X22735800Y-17101600D02*
X22856900Y-16980500D01*
D25*
X11852800Y-31324500D02*
X11528300Y-31000000D01*
X18320000Y-8545000D02*
X20775000Y-11000000D01*
X21775000Y-19000000D02*
X22267800Y-18507200D01*
X18800000Y-36850000D02*
X18800000Y-37361700D01*
D26*
X13960000Y-33989400D02*
X13960000Y-33970300D01*
X9350000Y-47750000D02*
X8859600Y-47750000D01*
D25*
X2380900Y-16900000D02*
X5716800Y-16900000D01*
X10750000Y-7645000D02*
X10750000Y-8581700D01*
D26*
X22735800Y-18166200D02*
X22735800Y-17101600D01*
X8859600Y-47259500D02*
X8809800Y-47209700D01*
X22753100Y-15332200D02*
X22736100Y-15349200D01*
D25*
X9211700Y-16900000D02*
X9211700Y-9000000D01*
D26*
X8859600Y-47750000D02*
X8859600Y-47259500D01*
D25*
X12237500Y-31709200D02*
X11852800Y-31324500D01*
X9802500Y-8409200D02*
X9680000Y-8286700D01*
X25775000Y-19000000D02*
X25030500Y-19744500D01*
X18320000Y-7360800D02*
X18320000Y-8545000D01*
X22856900Y-16531500D02*
X22764600Y-16439200D01*
D26*
X13961700Y-33968600D02*
X15415000Y-33968600D01*
D25*
X12956000Y-34111700D02*
X13837700Y-34111700D01*
X1850000Y-16900000D02*
X2380900Y-16900000D01*
X13961700Y-32012300D02*
X13658600Y-31709200D01*
D26*
X22449700Y-16000000D02*
X22449700Y-16124300D01*
D25*
X18650000Y-46650000D02*
X19161700Y-46650000D01*
X23825400Y-19744500D02*
X22588100Y-18507200D01*
X18283300Y-8581700D02*
X17250000Y-8581700D01*
X13658600Y-31709200D02*
X12237500Y-31709200D01*
X27211700Y-20436700D02*
X27211700Y-28900000D01*
X17250000Y-7645000D02*
X17250000Y-8581700D01*
X12535800Y-35441500D02*
X12535800Y-34531900D01*
D26*
X18650000Y-47750000D02*
X18159600Y-47750000D01*
X22449700Y-15861300D02*
X22449700Y-16000000D01*
D25*
X13837700Y-34111700D02*
X13960000Y-33989400D01*
X22588100Y-18313900D02*
X22735800Y-18166200D01*
D26*
X22736100Y-15349200D02*
X22736100Y-15574900D01*
D25*
X14775000Y-35000000D02*
X14072100Y-35702900D01*
X17775000Y-33724300D02*
X17775000Y-35000000D01*
X21825000Y-9950000D02*
X21825000Y-12469000D01*
D26*
X22735800Y-13379800D02*
X22735800Y-15154500D01*
D25*
X25775000Y-19000000D02*
X27211700Y-20436700D01*
X25030500Y-19744500D02*
X23825400Y-19744500D01*
X18320000Y-6730000D02*
X18320000Y-2550000D01*
X13961700Y-33968600D02*
X13961700Y-32012300D01*
X22753100Y-15263800D02*
X22753100Y-15332200D01*
X10750000Y-8581700D02*
X9975000Y-8581700D01*
X19161700Y-46650000D02*
X19161700Y-37723400D01*
X17775000Y-29913300D02*
X17775000Y-31000000D01*
D26*
X18650000Y-46650000D02*
X18159600Y-46650000D01*
D25*
X17775000Y-31000000D02*
X17775000Y-33724300D01*
D26*
X13960000Y-33970300D02*
X13961700Y-33968600D01*
D25*
X9211700Y-9000000D02*
X7825000Y-9000000D01*
X9680000Y-8286700D02*
X9680000Y-7991700D01*
D26*
X22735800Y-15154500D02*
X22799100Y-15217800D01*
D25*
X14072100Y-35702900D02*
X12797200Y-35702900D01*
X22736100Y-15574900D02*
X22449700Y-15861300D01*
X11528300Y-31000000D02*
X10775000Y-31000000D01*
X18800000Y-36025000D02*
X18800000Y-36850000D01*
X12535800Y-34531900D02*
X12956000Y-34111700D01*
X17951800Y-46442200D02*
X18159600Y-46650000D01*
X9975000Y-8581700D02*
X9802500Y-8409200D01*
X9200000Y-36850000D02*
X9200000Y-33977300D01*
X15659300Y-33724300D02*
X15415000Y-33968600D01*
X19850000Y-28900000D02*
X18788300Y-28900000D01*
X18320000Y-8545000D02*
X18283300Y-8581700D01*
D26*
X18159600Y-46650000D02*
X18159600Y-47750000D01*
D25*
X19850000Y-28900000D02*
X26150000Y-28900000D01*
X22799100Y-15217800D02*
X22753100Y-15263800D01*
X9680000Y-6730000D02*
X9680000Y-2550000D01*
%TO.N,/LF_XL1*%
X11668500Y-34136100D02*
X12538300Y-33266300D01*
X11547500Y-34136100D02*
X11547500Y-34168700D01*
X13250000Y-33000000D02*
X12538300Y-33000000D01*
X9225000Y-31000000D02*
X9225000Y-33184300D01*
X12538300Y-33266300D02*
X12538300Y-33000000D01*
X10176800Y-34136100D02*
X11547500Y-34136100D01*
X9225000Y-33184300D02*
X10176800Y-34136100D01*
X11547500Y-34136100D02*
X11668500Y-34136100D01*
X17200000Y-37541500D02*
X17200000Y-36850000D01*
%TO.N,/LF_XL2*%
X10750000Y-33000000D02*
X11461700Y-33000000D01*
X9968400Y-31348300D02*
X10508400Y-31888300D01*
X10052700Y-31055100D02*
X10052700Y-30515200D01*
X10508400Y-31888300D02*
X10750000Y-31888300D01*
X10052700Y-30515200D02*
X10322600Y-30245300D01*
X16400000Y-36338300D02*
X16400000Y-36166700D01*
X11461700Y-33000000D02*
X11461700Y-33296600D01*
D26*
X10052700Y-31055100D02*
X10052700Y-31264000D01*
X10052700Y-31264000D02*
X9968400Y-31348300D01*
D25*
X11461700Y-33296600D02*
X11626900Y-33461800D01*
X10322600Y-30245300D02*
X13225000Y-30245300D01*
X13225000Y-30245300D02*
X13225000Y-31000000D01*
X16400000Y-36850000D02*
X16400000Y-36338300D01*
X10750000Y-33000000D02*
X10750000Y-31888300D01*
%TO.N,/USB_VBUS*%
X16470500Y-11000000D02*
X16470500Y-22662800D01*
X9829500Y-36167800D02*
X10000000Y-36338300D01*
D26*
X8887800Y-30245500D02*
X8769100Y-30364200D01*
D25*
X9610200Y-37400000D02*
X9829500Y-37180700D01*
X16470500Y-22662800D02*
X8887800Y-30245500D01*
X16450000Y-8561200D02*
X16470500Y-8581700D01*
X16470500Y-11000000D02*
X19225000Y-11000000D01*
X8905100Y-37400000D02*
X9610200Y-37400000D01*
X14000000Y-11422300D02*
X14000000Y-10362500D01*
X20225000Y-17690300D02*
X20965300Y-16950000D01*
X8530900Y-37025800D02*
X8905100Y-37400000D01*
X11550000Y-7225000D02*
X11550000Y-7645000D01*
X10000000Y-36850000D02*
X10000000Y-36338300D01*
D26*
X8769100Y-30364200D02*
X8711600Y-30364200D01*
D25*
X16470500Y-8581700D02*
X16470500Y-11000000D01*
X9829500Y-37180700D02*
X9829500Y-36167800D01*
X21862500Y-16950000D02*
X20965300Y-16950000D01*
D26*
X11956400Y-6464100D02*
X11789800Y-6630700D01*
D25*
X8530900Y-30544900D02*
X8530900Y-37025800D01*
X19225000Y-12412500D02*
X19225000Y-11000000D01*
X21740100Y-14927500D02*
X19225000Y-12412500D01*
X16450000Y-7645000D02*
X16450000Y-8561200D01*
X8711600Y-30364200D02*
X8530900Y-30544900D01*
X20225000Y-19000000D02*
X20225000Y-17690300D01*
X16450000Y-7645000D02*
X16450000Y-7117600D01*
X15796500Y-6464100D02*
X11956400Y-6464100D01*
X20965300Y-15702300D02*
X21740100Y-14927500D01*
D26*
X11789800Y-6630700D02*
X11789800Y-6985200D01*
D25*
X16450000Y-7117600D02*
X15796500Y-6464100D01*
X11789800Y-6985200D02*
X11550000Y-7225000D01*
X11550000Y-7645000D02*
X11550000Y-9984900D01*
X21862500Y-15050000D02*
X21740100Y-14927500D01*
X20965300Y-16950000D02*
X20965300Y-15702300D01*
%TO.N,/VDD_3V0*%
X13816600Y-34408400D02*
X13960600Y-34408400D01*
X13960600Y-34408400D02*
X14092100Y-34276900D01*
X23213300Y-15974200D02*
X24137500Y-15050000D01*
X12400000Y-36850000D02*
X12400000Y-36338300D01*
X14092100Y-34276900D02*
X15210600Y-34276900D01*
X24225000Y-19000000D02*
X23213300Y-17988300D01*
X12400000Y-36338300D02*
X14429200Y-36338300D01*
X15081500Y-35860900D02*
X15938100Y-35004300D01*
X14429200Y-36338300D02*
X14906600Y-35860900D01*
X13225000Y-35000000D02*
X13816600Y-34408400D01*
X14906600Y-35860900D02*
X15081500Y-35860900D01*
X23213300Y-17988300D02*
X23213300Y-15974200D01*
X15938100Y-35004300D02*
X15942400Y-35000000D01*
X22175000Y-33860300D02*
X22175000Y-33000000D01*
X12400000Y-36850000D02*
X11600000Y-36850000D01*
X15210600Y-34276900D02*
X15938100Y-35004300D01*
X15942400Y-35000000D02*
X16225000Y-35000000D01*
%TO.N,/USB_DP*%
X13050000Y-14500000D02*
X6000000Y-21550000D01*
X6000000Y-37800000D02*
X6850000Y-38650000D01*
X14250000Y-7645000D02*
X14250000Y-8600000D01*
X6850000Y-38650000D02*
X9350000Y-38650000D01*
X13250000Y-7645000D02*
X13250000Y-9750000D01*
X6000000Y-21550000D02*
X6000000Y-37800000D01*
X13050000Y-10362500D02*
X13050000Y-12637500D01*
X13050000Y-12637500D02*
X13050000Y-14500000D01*
X13250000Y-9750000D02*
X13050000Y-10362500D01*
%TO.N,/USB_DM*%
X6320000Y-36950000D02*
X7220000Y-37850000D01*
X6320000Y-21682000D02*
X6320000Y-36950000D01*
X14750000Y-7645000D02*
X14750000Y-9750000D01*
X13750000Y-7645000D02*
X13750000Y-9120000D01*
X14950000Y-12637500D02*
X14950000Y-13052000D01*
X14950000Y-13052000D02*
X6320000Y-21682000D01*
X14750000Y-9750000D02*
X14950000Y-10362500D01*
X14950000Y-10362500D02*
X14950000Y-12637500D01*
X7220000Y-37850000D02*
X9350000Y-37850000D01*
%TO.N,/CC1*%
X6404900Y-9000000D02*
X6175000Y-9000000D01*
X15250000Y-7645000D02*
X15250000Y-9242500D01*
X15250000Y-9242500D02*
X15379100Y-9371600D01*
X6955700Y-9550800D02*
X6404900Y-9000000D01*
%TO.N,/PAIR*%
X16997200Y-35335500D02*
X16997200Y-34211900D01*
X5716800Y-13100000D02*
X8150000Y-13100000D01*
X1850000Y-13100000D02*
X2380900Y-13100000D01*
X2380900Y-13100000D02*
X5716800Y-13100000D01*
X18000000Y-36850000D02*
X18000000Y-36338300D01*
X18000000Y-36338300D02*
X16997200Y-35335500D01*
%TO.N,/MCU_RESET*%
X10761700Y-40138300D02*
X10761700Y-40650000D01*
X26150000Y-25100000D02*
X22285300Y-25100000D01*
X23825000Y-33000000D02*
X23825000Y-29379500D01*
X11700000Y-39200000D02*
X10761700Y-40138300D01*
X10250000Y-40650000D02*
X10761700Y-40650000D01*
X19850000Y-25100000D02*
X22285300Y-25100000D01*
%TO.N,/SWDIO*%
X2932700Y-31601700D02*
X5120900Y-33789900D01*
D26*
X5120900Y-37338400D02*
X6134500Y-38352000D01*
D25*
X2800000Y-31601700D02*
X2932700Y-31601700D01*
X2800000Y-30540000D02*
X2800000Y-31601700D01*
X5120900Y-33789900D02*
X5120900Y-37338400D01*
X9350000Y-45850000D02*
X8838300Y-45850000D01*
X6134500Y-38797500D02*
X6134500Y-43146200D01*
X8670600Y-45682300D02*
X8838300Y-45850000D01*
D26*
X6134500Y-38352000D02*
X6134500Y-38797500D01*
D25*
X6134500Y-43146200D02*
X8670600Y-45682300D01*
%TO.N,/SWDCLK*%
X9350000Y-46650000D02*
X8838300Y-46650000D01*
X8667600Y-46479300D02*
X8838300Y-46650000D01*
%TD*%
M02*
