M48
; DRILL file KiCad 10.0.6 date 2026-10-08T23:49:18
; FORMAT={-:-/ absolute / metric / decimal}
; #@! TF.CreationDate,2026-10-08T23:49:18+13:00
; #@! TF.GenerationSoftware,Kicad,Pcbnew,10.0.6
; #@! TF.FileFunction,Plated,1,4,PTH
FMAT,2
METRIC
; #@! TA.AperFunction,Plated,PTH,ViaDrill
T1C0.200
; #@! TA.AperFunction,Plated,PTH,ComponentDrill
T2C0.600
; #@! TA.AperFunction,Plated,PTH,ComponentDrill
T3C1.000
%
G90
G05
T1
X1.5Y-1.5
X1.5Y-27.0
X1.5Y-52.5
X5.717Y-13.1
X5.717Y-16.9
X6.956Y-9.551
X8.668Y-46.479
X8.81Y-47.21
X9.2Y-33.977
X11.547Y-34.169
X11.55Y-9.985
X11.627Y-33.462
X11.7Y-39.2
X11.853Y-31.324
X12.25Y-8.762
X13.25Y-8.6
X13.75Y-9.12
X14.0Y-11.422
X14.0Y-12.637
X14.25Y-8.6
X14.75Y-9.12
X14.907Y-35.861
X15.379Y-9.372
X16.4Y-36.167
X16.997Y-34.212
X17.2Y-37.541
X17.952Y-46.442
X20.175Y-8.142
X22.175Y-33.86
X22.285Y-25.1
X23.213Y-15.974
X23.825Y-29.38
X26.5Y-1.5
X26.5Y-27.0
X26.5Y-52.5
T3
X2.8Y-28.0
X2.8Y-30.54
X2.8Y-33.08
X2.8Y-35.62
X2.8Y-38.16
T2
X9.68Y-2.85G85X9.68Y-2.25
G05
X9.68Y-7.28G85X9.68Y-6.18
G05
X18.32Y-2.85G85X18.32Y-2.25
G05
X18.32Y-7.28G85X18.32Y-6.18
G05
M30
