%TF.GenerationSoftware,KiCad,Pcbnew,10.0.6*%
%TF.CreationDate,2026-10-08T23:49:17+13:00*%
%TF.ProjectId,receiver,72656365-6976-4657-922e-6b696361645f,rev?*%
%TF.SameCoordinates,Original*%
%TF.FileFunction,Paste,Top*%
%TF.FilePolarity,Positive*%
%FSLAX46Y46*%
G04 Gerber Fmt 4.6, Leading zero omitted, Abs format (unit mm)*
G04 Created by KiCad (PCBNEW 10.0.6) date 2026-10-08 23:49:17*
%MOMM*%
%LPD*%
G01*
G04 APERTURE LIST*
G04 Aperture macros list*
%AMRoundRect*
0 Rectangle with rounded corners*
0 $1 Rounding radius*
0 $2 $3 $4 $5 $6 $7 $8 $9 X,Y pos of 4 corners*
0 Add a 4 corners polygon primitive as box body*
4,1,4,$2,$3,$4,$5,$6,$7,$8,$9,$2,$3,0*
0 Add four circle primitives for the rounded corners*
1,1,$1+$1,$2,$3*
1,1,$1+$1,$4,$5*
1,1,$1+$1,$6,$7*
1,1,$1+$1,$8,$9*
0 Add four rect primitives between the rounded corners*
20,1,$1+$1,$2,$3,$4,$5,0*
20,1,$1+$1,$4,$5,$6,$7,0*
20,1,$1+$1,$6,$7,$8,$9,0*
20,1,$1+$1,$8,$9,$2,$3,0*%
G04 Aperture macros list end*
%ADD10RoundRect,0.200000X-0.200000X-0.275000X0.200000X-0.275000X0.200000X0.275000X-0.200000X0.275000X0*%
%ADD11R,1.000000X1.800000*%
%ADD12RoundRect,0.225000X-0.225000X-0.250000X0.225000X-0.250000X0.225000X0.250000X-0.225000X0.250000X0*%
%ADD13RoundRect,0.150000X0.150000X-0.512500X0.150000X0.512500X-0.150000X0.512500X-0.150000X-0.512500X0*%
%ADD14R,1.700000X1.000000*%
%ADD15R,0.600000X1.450000*%
%ADD16R,0.300000X1.450000*%
%ADD17RoundRect,0.150000X-0.512500X-0.150000X0.512500X-0.150000X0.512500X0.150000X-0.512500X0.150000X0*%
%ADD18R,0.600000X0.400000*%
%ADD19R,0.400000X0.600000*%
G04 APERTURE END LIST*
D10*
%TO.C,R2*%
X20175000Y-9000000D03*
X21825000Y-9000000D03*
%TD*%
D11*
%TO.C,Y1*%
X13250000Y-33000000D03*
X10750000Y-33000000D03*
%TD*%
D12*
%TO.C,C1*%
X20225000Y-19000000D03*
X21775000Y-19000000D03*
%TD*%
%TO.C,C4*%
X16225000Y-35000000D03*
X17775000Y-35000000D03*
%TD*%
D13*
%TO.C,U2*%
X13050000Y-12637500D03*
X14000000Y-12637500D03*
X14950000Y-12637500D03*
X14950000Y-10362500D03*
X14000000Y-10362500D03*
X13050000Y-10362500D03*
%TD*%
D10*
%TO.C,R1*%
X6175000Y-9000000D03*
X7825000Y-9000000D03*
%TD*%
D14*
%TO.C,SW1*%
X1850000Y-13100000D03*
X8150000Y-13100000D03*
X1850000Y-16900000D03*
X8150000Y-16900000D03*
%TD*%
D12*
%TO.C,C5*%
X19225000Y-11000000D03*
X20775000Y-11000000D03*
%TD*%
D10*
%TO.C,R3*%
X22175000Y-33000000D03*
X23825000Y-33000000D03*
%TD*%
D15*
%TO.C,J1*%
X17250000Y-7645000D03*
X16450000Y-7645000D03*
D16*
X15250000Y-7645000D03*
X14250000Y-7645000D03*
X13750000Y-7645000D03*
X12750000Y-7645000D03*
D15*
X11550000Y-7645000D03*
X10750000Y-7645000D03*
X10750000Y-7645000D03*
X11550000Y-7645000D03*
D16*
X12250000Y-7645000D03*
X13250000Y-7645000D03*
X14750000Y-7645000D03*
X15750000Y-7645000D03*
D15*
X16450000Y-7645000D03*
X17250000Y-7645000D03*
%TD*%
D12*
%TO.C,C2*%
X24225000Y-19000000D03*
X25775000Y-19000000D03*
%TD*%
%TO.C,C6*%
X9225000Y-31000000D03*
X10775000Y-31000000D03*
%TD*%
D17*
%TO.C,U3*%
X21862500Y-15050000D03*
X21862500Y-16000000D03*
X21862500Y-16950000D03*
X24137500Y-16950000D03*
X24137500Y-15050000D03*
%TD*%
D12*
%TO.C,C7*%
X13225000Y-31000000D03*
X14775000Y-31000000D03*
%TD*%
%TO.C,C3*%
X13225000Y-35000000D03*
X14775000Y-35000000D03*
%TD*%
D14*
%TO.C,SW2*%
X19850000Y-25100000D03*
X26150000Y-25100000D03*
X19850000Y-28900000D03*
X26150000Y-28900000D03*
%TD*%
D18*
%TO.C,U1*%
X18650000Y-47750000D03*
X18650000Y-46650000D03*
X18650000Y-45850000D03*
X18650000Y-44250000D03*
X17750000Y-43850000D03*
X18650000Y-43450000D03*
X17750000Y-43050000D03*
X18650000Y-42650000D03*
X17750000Y-42250000D03*
X18650000Y-41850000D03*
X17750000Y-41450000D03*
X18650000Y-41050000D03*
X17750000Y-40650000D03*
X18650000Y-40250000D03*
D19*
X18800000Y-36850000D03*
X18000000Y-36850000D03*
X17200000Y-36850000D03*
X16400000Y-36850000D03*
X16000000Y-37750000D03*
X15600000Y-36850000D03*
X15200000Y-37750000D03*
X14800000Y-36850000D03*
X14400000Y-37750000D03*
X14000000Y-36850000D03*
X13600000Y-37750000D03*
X13200000Y-36850000D03*
X12800000Y-37750000D03*
X12400000Y-36850000D03*
X12000000Y-37750000D03*
X11600000Y-36850000D03*
X10800000Y-36850000D03*
X10000000Y-36850000D03*
X9200000Y-36850000D03*
D18*
X9350000Y-37850000D03*
X9350000Y-38650000D03*
X10250000Y-39050000D03*
X9350000Y-39450000D03*
X10250000Y-39850000D03*
X9350000Y-40250000D03*
X10250000Y-40650000D03*
X9350000Y-41050000D03*
X10250000Y-41450000D03*
X10250000Y-42250000D03*
X9350000Y-42650000D03*
X10250000Y-43050000D03*
X9350000Y-43450000D03*
X10250000Y-43850000D03*
X9350000Y-44250000D03*
X10250000Y-44650000D03*
X10250000Y-45450000D03*
X9350000Y-45850000D03*
X10250000Y-46250000D03*
X9350000Y-46650000D03*
X10250000Y-47050000D03*
X9350000Y-47750000D03*
D19*
X16000000Y-43450000D03*
X15200000Y-43450000D03*
X14400000Y-43450000D03*
X13600000Y-43450000D03*
X12800000Y-43450000D03*
X12000000Y-43450000D03*
%TD*%
M02*
