<svg xmlns="http://www.w3.org/2000/svg" viewBox="-10 -10 216 453"><style>text{font-family:Arial,sans-serif} .r{font-size:9px;fill:#e5f2df} .n{font-size:7px;fill:#b7c9b0}</style><rect x="0" y="0" width="196" height="378" rx="9" fill="#1c493d" stroke="#bdd29c" stroke-width="2"/><rect x="49" y="335.65" width="98" height="35.35" fill="#7c8548" opacity=".65"/><text x="98" y="360.5" text-anchor="middle" class="n">RF KEEP-OUT</text><rect x="61.25" y="253.75" width="73.5" height="108.5" rx="2" fill="#29473d" stroke="#e2c983" stroke-width=".8"/><text x="98" y="311" text-anchor="middle" class="r">U1</text><rect x="66.5" y="0.6999999999999993" width="63" height="49" rx="2" fill="#29473d" stroke="#e2c983" stroke-width=".8"/><text x="98" y="28.2" text-anchor="middle" class="r">J1</text><rect x="87.5" y="70.0" width="21" height="21" rx="2" fill="#29473d" stroke="#e2c983" stroke-width=".8"/><text x="98" y="83.5" text-anchor="middle" class="r">U2</text><rect x="42.0" y="58.8" width="14" height="8.4" rx="2" fill="#29473d" stroke="#e2c983" stroke-width=".8"/><text x="49" y="66" text-anchor="middle" class="r">R1</text><rect x="140.0" y="58.8" width="14" height="8.4" rx="2" fill="#29473d" stroke="#e2c983" stroke-width=".8"/><text x="147" y="66" text-anchor="middle" class="r">R2</text><rect x="150.5" y="101.5" width="21" height="21" rx="2" fill="#29473d" stroke="#e2c983" stroke-width=".8"/><text x="161" y="115" text-anchor="middle" class="r">U3</text><rect x="140.0" y="128.8" width="14" height="8.4" rx="2" fill="#29473d" stroke="#e2c983" stroke-width=".8"/><text x="147" y="136" text-anchor="middle" class="r">C1</text><rect x="168.0" y="128.8" width="14" height="8.4" rx="2" fill="#29473d" stroke="#e2c983" stroke-width=".8"/><text x="175" y="136" text-anchor="middle" class="r">C2</text><rect x="91.0" y="240.8" width="14" height="8.4" rx="2" fill="#29473d" stroke="#e2c983" stroke-width=".8"/><text x="98" y="248" text-anchor="middle" class="r">C3</text><rect x="112.0" y="240.8" width="14" height="8.4" rx="2" fill="#29473d" stroke="#e2c983" stroke-width=".8"/><text x="119" y="248" text-anchor="middle" class="r">C4</text><rect x="133.0" y="72.8" width="14" height="8.4" rx="2" fill="#29473d" stroke="#e2c983" stroke-width=".8"/><text x="140" y="80" text-anchor="middle" class="r">C5</text><rect x="77.0" y="226.8" width="14" height="8.4" rx="2" fill="#29473d" stroke="#e2c983" stroke-width=".8"/><text x="84" y="234" text-anchor="middle" class="r">Y1</text><rect x="63.0" y="212.8" width="14" height="8.4" rx="2" fill="#29473d" stroke="#e2c983" stroke-width=".8"/><text x="70" y="220" text-anchor="middle" class="r">C6</text><rect x="91.0" y="212.8" width="14" height="8.4" rx="2" fill="#29473d" stroke="#e2c983" stroke-width=".8"/><text x="98" y="220" text-anchor="middle" class="r">C7</text><rect x="5.599999999999998" y="175.0" width="28" height="42" rx="2" fill="#29473d" stroke="#e2c983" stroke-width=".8"/><text x="19.599999999999998" y="199" text-anchor="middle" class="r">J2</text><rect x="21.0" y="94.5" width="28" height="21" rx="2" fill="#29473d" stroke="#e2c983" stroke-width=".8"/><text x="35" y="108" text-anchor="middle" class="r">SW1</text><rect x="147.0" y="178.5" width="28" height="21" rx="2" fill="#29473d" stroke="#e2c983" stroke-width=".8"/><text x="161" y="192" text-anchor="middle" class="r">SW2</text><rect x="154.0" y="226.8" width="14" height="8.4" rx="2" fill="#29473d" stroke="#e2c983" stroke-width=".8"/><text x="161" y="234" text-anchor="middle" class="r">R3</text><text x="98.0" y="403" text-anchor="middle" fill="#23483c" font-size="13">RECEIVER · 28 × 54 mm · component placement overview</text><text x="98.0" y="422" text-anchor="middle" fill="#65766a" font-size="10">Routed A1. Physical testing and lens fit remain pending.</text></svg>