<svg xmlns="http://www.w3.org/2000/svg" viewBox="-10 -10 160 383"><style>text{font-family:Arial,sans-serif} .r{font-size:9px;fill:#e5f2df} .n{font-size:7px;fill:#b7c9b0}</style><rect x="0" y="0" width="140" height="308" rx="9" fill="#1c493d" stroke="#bdd29c" stroke-width="2"/><rect x="21" y="279.65" width="98" height="35.35" fill="#7c8548" opacity=".65"/><text x="70" y="304.5" text-anchor="middle" class="n">RF KEEP-OUT</text><rect x="33.25" y="197.75" width="73.5" height="108.5" rx="2" fill="#29473d" stroke="#e2c983" stroke-width=".8"/><text x="70" y="255" text-anchor="middle" class="r">U1</text><rect x="38.5" y="0.6999999999999993" width="63" height="49" rx="2" fill="#29473d" stroke="#e2c983" stroke-width=".8"/><text x="70" y="28.2" text-anchor="middle" class="r">J1</text><rect x="101.5" y="42.699999999999996" width="21" height="21" rx="2" fill="#29473d" stroke="#e2c983" stroke-width=".8"/><text x="112" y="56.199999999999996" text-anchor="middle" class="r">U2</text><rect x="21.0" y="48.99999999999999" width="14" height="8.4" rx="2" fill="#29473d" stroke="#e2c983" stroke-width=".8"/><text x="28" y="56.199999999999996" text-anchor="middle" class="r">R1</text><rect x="42.0" y="48.99999999999999" width="14" height="8.4" rx="2" fill="#29473d" stroke="#e2c983" stroke-width=".8"/><text x="49" y="56.199999999999996" text-anchor="middle" class="r">R2</text><rect x="24.5" y="80.5" width="21" height="21" rx="2" fill="#29473d" stroke="#e2c983" stroke-width=".8"/><text x="35" y="94" text-anchor="middle" class="r">U3</text><rect x="14.0" y="107.8" width="14" height="8.4" rx="2" fill="#29473d" stroke="#e2c983" stroke-width=".8"/><text x="21" y="115" text-anchor="middle" class="r">C1</text><rect x="42.0" y="107.8" width="14" height="8.4" rx="2" fill="#29473d" stroke="#e2c983" stroke-width=".8"/><text x="49" y="115" text-anchor="middle" class="r">C2</text><rect x="63.0" y="184.8" width="14" height="8.4" rx="2" fill="#29473d" stroke="#e2c983" stroke-width=".8"/><text x="70" y="192" text-anchor="middle" class="r">C3</text><rect x="84.0" y="184.8" width="14" height="8.4" rx="2" fill="#29473d" stroke="#e2c983" stroke-width=".8"/><text x="91" y="192" text-anchor="middle" class="r">C4</text><rect x="84.0" y="70.0" width="14" height="8.4" rx="2" fill="#29473d" stroke="#e2c983" stroke-width=".8"/><text x="91" y="77.2" text-anchor="middle" class="r">C5</text><rect x="49.0" y="170.8" width="14" height="8.4" rx="2" fill="#29473d" stroke="#e2c983" stroke-width=".8"/><text x="56" y="178" text-anchor="middle" class="r">Y1</text><rect x="35.0" y="156.8" width="14" height="8.4" rx="2" fill="#29473d" stroke="#e2c983" stroke-width=".8"/><text x="42" y="164" text-anchor="middle" class="r">C6</text><rect x="63.0" y="156.8" width="14" height="8.4" rx="2" fill="#29473d" stroke="#e2c983" stroke-width=".8"/><text x="70" y="164" text-anchor="middle" class="r">C7</text><rect x="0.0" y="140.0" width="28" height="42" rx="2" fill="#29473d" stroke="#e2c983" stroke-width=".8"/><text x="14" y="164" text-anchor="middle" class="r">J2</text><rect x="91.0" y="87.5" width="28" height="21" rx="2" fill="#29473d" stroke="#e2c983" stroke-width=".8"/><text x="105" y="101" text-anchor="middle" class="r">SW1</text><rect x="91.0" y="122.5" width="28" height="21" rx="2" fill="#29473d" stroke="#e2c983" stroke-width=".8"/><text x="105" y="136" text-anchor="middle" class="r">SW2</text><rect x="105.0" y="156.8" width="14" height="8.4" rx="2" fill="#29473d" stroke="#e2c983" stroke-width=".8"/><text x="112" y="164" text-anchor="middle" class="r">R3</text><text x="70.0" y="333" text-anchor="middle" fill="#23483c" font-size="13">RECEIVER · 20 × 44 mm · component placement draft</text><text x="70.0" y="352" text-anchor="middle" fill="#65766a" font-size="10">Unrouted. Verify RF keep-out and optics before fabrication.</text></svg>