<svg xmlns="http://www.w3.org/2000/svg" viewBox="-10 -10 468 733"><style>text{font-family:Arial,sans-serif} .r{font-size:9px;fill:#e5f2df} .n{font-size:7px;fill:#b7c9b0}</style><rect x="0" y="0" width="448" height="658" rx="9" fill="#1c493d" stroke="#bdd29c" stroke-width="2"/><rect x="175" y="615.65" width="98" height="35.35" fill="#7c8548" opacity=".65"/><text x="224" y="640.5" text-anchor="middle" class="n">RF KEEP-OUT</text><rect x="187.25" y="533.75" width="73.5" height="108.5" rx="2" fill="#29473d" stroke="#e2c983" stroke-width=".8"/><text x="224" y="591" text-anchor="middle" class="r">U1</text><rect x="192.5" y="0.6999999999999993" width="63" height="49" rx="2" fill="#29473d" stroke="#e2c983" stroke-width=".8"/><text x="224" y="28.2" text-anchor="middle" class="r">J1</text><rect x="213.5" y="70.0" width="21" height="21" rx="2" fill="#29473d" stroke="#e2c983" stroke-width=".8"/><text x="224" y="83.5" text-anchor="middle" class="r">U2</text><rect x="168.0" y="58.8" width="14" height="8.4" rx="2" fill="#29473d" stroke="#e2c983" stroke-width=".8"/><text x="175" y="66" text-anchor="middle" class="r">R1</text><rect x="266.0" y="58.8" width="14" height="8.4" rx="2" fill="#29473d" stroke="#e2c983" stroke-width=".8"/><text x="273" y="66" text-anchor="middle" class="r">R2</text><rect x="80.5" y="416.5" width="21" height="21" rx="2" fill="#29473d" stroke="#e2c983" stroke-width=".8"/><text x="91" y="430" text-anchor="middle" class="r">U3</text><rect x="70.0" y="443.8" width="14" height="8.4" rx="2" fill="#29473d" stroke="#e2c983" stroke-width=".8"/><text x="77" y="451" text-anchor="middle" class="r">C1</text><rect x="98.0" y="443.8" width="14" height="8.4" rx="2" fill="#29473d" stroke="#e2c983" stroke-width=".8"/><text x="105" y="451" text-anchor="middle" class="r">C2</text><rect x="217.0" y="520.8" width="14" height="8.4" rx="2" fill="#29473d" stroke="#e2c983" stroke-width=".8"/><text x="224" y="528" text-anchor="middle" class="r">C3</text><rect x="238.0" y="520.8" width="14" height="8.4" rx="2" fill="#29473d" stroke="#e2c983" stroke-width=".8"/><text x="245" y="528" text-anchor="middle" class="r">C4</text><rect x="259.0" y="72.8" width="14" height="8.4" rx="2" fill="#29473d" stroke="#e2c983" stroke-width=".8"/><text x="266" y="80" text-anchor="middle" class="r">C5</text><rect x="203.0" y="506.8" width="14" height="8.4" rx="2" fill="#29473d" stroke="#e2c983" stroke-width=".8"/><text x="210" y="514" text-anchor="middle" class="r">Y1</text><rect x="189.0" y="492.8" width="14" height="8.4" rx="2" fill="#29473d" stroke="#e2c983" stroke-width=".8"/><text x="196" y="500" text-anchor="middle" class="r">C6</text><rect x="217.0" y="492.8" width="14" height="8.4" rx="2" fill="#29473d" stroke="#e2c983" stroke-width=".8"/><text x="224" y="500" text-anchor="middle" class="r">C7</text><rect x="385.0" y="448.0" width="28" height="42" rx="2" fill="#29473d" stroke="#e2c983" stroke-width=".8"/><text x="399" y="472" text-anchor="middle" class="r">J2</text><rect x="56.0" y="535.5" width="28" height="21" rx="2" fill="#29473d" stroke="#e2c983" stroke-width=".8"/><text x="70" y="549" text-anchor="middle" class="r">SW1</text><rect x="56.0" y="577.5" width="28" height="21" rx="2" fill="#29473d" stroke="#e2c983" stroke-width=".8"/><text x="70" y="591" text-anchor="middle" class="r">SW2</text><rect x="112.0" y="583.8" width="14" height="8.4" rx="2" fill="#29473d" stroke="#e2c983" stroke-width=".8"/><text x="119" y="591" text-anchor="middle" class="r">R3</text><rect x="147.0" y="266.0" width="154" height="84" rx="2" fill="#29473d" stroke="#e2c983" stroke-width=".8"/><text x="224" y="311" text-anchor="middle" class="r">U4</text><rect x="311.5" y="325.5" width="21" height="21" rx="2" fill="#29473d" stroke="#e2c983" stroke-width=".8"/><text x="322" y="339" text-anchor="middle" class="r">U5</text><rect x="322.0" y="352.8" width="14" height="8.4" rx="2" fill="#29473d" stroke="#e2c983" stroke-width=".8"/><text x="329" y="360" text-anchor="middle" class="r">C8</text><rect x="308.0" y="303.8" width="14" height="8.4" rx="2" fill="#29473d" stroke="#e2c983" stroke-width=".8"/><text x="315" y="311" text-anchor="middle" class="r">C9</text><rect x="294.0" y="282.8" width="14" height="8.4" rx="2" fill="#29473d" stroke="#e2c983" stroke-width=".8"/><text x="301" y="290" text-anchor="middle" class="r">C10</text><rect x="168.0" y="240.8" width="14" height="8.4" rx="2" fill="#29473d" stroke="#e2c983" stroke-width=".8"/><text x="175" y="248" text-anchor="middle" class="r">C11</text><rect x="189.0" y="240.8" width="14" height="8.4" rx="2" fill="#29473d" stroke="#e2c983" stroke-width=".8"/><text x="196" y="248" text-anchor="middle" class="r">C12</text><rect x="112.0" y="310.8" width="14" height="8.4" rx="2" fill="#29473d" stroke="#e2c983" stroke-width=".8"/><text x="119" y="318" text-anchor="middle" class="r">C13</text><rect x="119.0" y="331.8" width="14" height="8.4" rx="2" fill="#29473d" stroke="#e2c983" stroke-width=".8"/><text x="126" y="339" text-anchor="middle" class="r">C14</text><rect x="287.0" y="366.8" width="14" height="8.4" rx="2" fill="#29473d" stroke="#e2c983" stroke-width=".8"/><text x="294" y="374" text-anchor="middle" class="r">C15</text><rect x="259.0" y="387.8" width="14" height="8.4" rx="2" fill="#29473d" stroke="#e2c983" stroke-width=".8"/><text x="266" y="395" text-anchor="middle" class="r">R4</text><rect x="343.0" y="289.8" width="14" height="8.4" rx="2" fill="#29473d" stroke="#e2c983" stroke-width=".8"/><text x="350" y="297" text-anchor="middle" class="r">R5</text><rect x="101.5" y="87.5" width="21" height="21" rx="2" fill="#29473d" stroke="#e2c983" stroke-width=".8"/><text x="112" y="101" text-anchor="middle" class="r">U6</text><rect x="28.0" y="329.0" width="28" height="42" rx="2" fill="#29473d" stroke="#e2c983" stroke-width=".8"/><text x="42" y="353" text-anchor="middle" class="r">J3</text><rect x="70.0" y="121.8" width="14" height="8.4" rx="2" fill="#29473d" stroke="#e2c983" stroke-width=".8"/><text x="77" y="129" text-anchor="middle" class="r">R6</text><rect x="91.0" y="121.8" width="14" height="8.4" rx="2" fill="#29473d" stroke="#e2c983" stroke-width=".8"/><text x="98" y="129" text-anchor="middle" class="r">R7</text><rect x="112.0" y="121.8" width="14" height="8.4" rx="2" fill="#29473d" stroke="#e2c983" stroke-width=".8"/><text x="119" y="129" text-anchor="middle" class="r">R8</text><rect x="105.0" y="65.8" width="14" height="8.4" rx="2" fill="#29473d" stroke="#e2c983" stroke-width=".8"/><text x="112" y="73" text-anchor="middle" class="r">C16</text><rect x="147.0" y="100.8" width="14" height="8.4" rx="2" fill="#29473d" stroke="#e2c983" stroke-width=".8"/><text x="154" y="108" text-anchor="middle" class="r">C17</text><rect x="70.0" y="79.8" width="14" height="8.4" rx="2" fill="#29473d" stroke="#e2c983" stroke-width=".8"/><text x="77" y="87" text-anchor="middle" class="r">C18</text><rect x="35.0" y="381.5" width="28" height="21" rx="2" fill="#29473d" stroke="#e2c983" stroke-width=".8"/><text x="49" y="395" text-anchor="middle" class="r">SW3</text><rect x="35.0" y="485.8" width="14" height="8.4" rx="2" fill="#29473d" stroke="#e2c983" stroke-width=".8"/><text x="42" y="493" text-anchor="middle" class="r">R9</text><rect x="56.0" y="485.8" width="14" height="8.4" rx="2" fill="#29473d" stroke="#e2c983" stroke-width=".8"/><text x="63" y="493" text-anchor="middle" class="r">R10</text><rect x="77.0" y="485.8" width="14" height="8.4" rx="2" fill="#29473d" stroke="#e2c983" stroke-width=".8"/><text x="84" y="493" text-anchor="middle" class="r">C19</text><rect x="56.0" y="149.8" width="14" height="8.4" rx="2" fill="#29473d" stroke="#e2c983" stroke-width=".8"/><text x="63" y="157" text-anchor="middle" class="r">R11</text><rect x="77.0" y="149.8" width="14" height="8.4" rx="2" fill="#29473d" stroke="#e2c983" stroke-width=".8"/><text x="84" y="157" text-anchor="middle" class="r">R12</text><rect x="28.0" y="161.0" width="28" height="42" rx="2" fill="#29473d" stroke="#e2c983" stroke-width=".8"/><text x="42" y="185" text-anchor="middle" class="r">J4</text><rect x="112.0" y="154.0" width="28" height="42" rx="2" fill="#29473d" stroke="#e2c983" stroke-width=".8"/><text x="126" y="178" text-anchor="middle" class="r">J5</text><rect x="301.0" y="140.0" width="28" height="42" rx="2" fill="#29473d" stroke="#e2c983" stroke-width=".8"/><text x="315" y="164" text-anchor="middle" class="r">J6</text><rect x="224.0" y="133.0" width="28" height="42" rx="2" fill="#29473d" stroke="#e2c983" stroke-width=".8"/><text x="238" y="157" text-anchor="middle" class="r">J7</text><rect x="21.0" y="238.0" width="28" height="42" rx="2" fill="#29473d" stroke="#e2c983" stroke-width=".8"/><text x="35" y="262" text-anchor="middle" class="r">J8</text><rect x="56.0" y="280.0" width="28" height="42" rx="2" fill="#29473d" stroke="#e2c983" stroke-width=".8"/><text x="70" y="304" text-anchor="middle" class="r">J9</text><rect x="175.0" y="63.0" width="28" height="42" rx="2" fill="#29473d" stroke="#e2c983" stroke-width=".8"/><text x="189" y="87" text-anchor="middle" class="r">J10</text><text x="224.0" y="683" text-anchor="middle" fill="#23483c" font-size="13">MOUSE · 64 × 94 mm · component placement overview</text><text x="224.0" y="702" text-anchor="middle" fill="#65766a" font-size="10">Routed A1. Physical testing and lens fit remain pending.</text></svg>