%TF.GenerationSoftware,KiCad,Pcbnew,10.0.6*%
%TF.CreationDate,2026-10-08T23:49:12+13:00*%
%TF.ProjectId,mouse,6d6f7573-652e-46b6-9963-61645f706362,rev?*%
%TF.SameCoordinates,Original*%
%TF.FileFunction,Copper,L1,Top*%
%TF.FilePolarity,Positive*%
%FSLAX46Y46*%
G04 Gerber Fmt 4.6, Leading zero omitted, Abs format (unit mm)*
G04 Created by KiCad (PCBNEW 10.0.6) date 2026-10-08 23:49:12*
%MOMM*%
%LPD*%
G01*
G04 APERTURE LIST*
G04 Aperture macros list*
%AMRoundRect*
0 Rectangle with rounded corners*
0 $1 Rounding radius*
0 $2 $3 $4 $5 $6 $7 $8 $9 X,Y pos of 4 corners*
0 Add a 4 corners polygon primitive as box body*
4,1,4,$2,$3,$4,$5,$6,$7,$8,$9,$2,$3,0*
0 Add four circle primitives for the rounded corners*
1,1,$1+$1,$2,$3*
1,1,$1+$1,$4,$5*
1,1,$1+$1,$6,$7*
1,1,$1+$1,$8,$9*
0 Add four rect primitives between the rounded corners*
20,1,$1+$1,$2,$3,$4,$5,0*
20,1,$1+$1,$4,$5,$6,$7,0*
20,1,$1+$1,$6,$7,$8,$9,0*
20,1,$1+$1,$8,$9,$2,$3,0*%
G04 Aperture macros list end*
%TA.AperFunction,SMDPad,CuDef*%
%ADD10RoundRect,0.225000X-0.225000X-0.250000X0.225000X-0.250000X0.225000X0.250000X-0.225000X0.250000X0*%
%TD*%
%TA.AperFunction,SMDPad,CuDef*%
%ADD11RoundRect,0.150000X-0.512500X-0.150000X0.512500X-0.150000X0.512500X0.150000X-0.512500X0.150000X0*%
%TD*%
%TA.AperFunction,SMDPad,CuDef*%
%ADD12RoundRect,0.200000X-0.200000X-0.275000X0.200000X-0.275000X0.200000X0.275000X-0.200000X0.275000X0*%
%TD*%
%TA.AperFunction,SMDPad,CuDef*%
%ADD13R,1.000000X1.800000*%
%TD*%
%TA.AperFunction,SMDPad,CuDef*%
%ADD14RoundRect,0.250000X-0.250000X-0.475000X0.250000X-0.475000X0.250000X0.475000X-0.250000X0.475000X0*%
%TD*%
%TA.AperFunction,ComponentPad*%
%ADD15R,1.700000X1.700000*%
%TD*%
%TA.AperFunction,ComponentPad*%
%ADD16O,1.700000X1.700000*%
%TD*%
%TA.AperFunction,SMDPad,CuDef*%
%ADD17R,0.600000X0.240000*%
%TD*%
%TA.AperFunction,SMDPad,CuDef*%
%ADD18R,0.240000X0.600000*%
%TD*%
%TA.AperFunction,SMDPad,CuDef*%
%ADD19R,1.680000X1.680000*%
%TD*%
%TA.AperFunction,ComponentPad*%
%ADD20C,1.300000*%
%TD*%
%TA.AperFunction,SMDPad,CuDef*%
%ADD21R,1.700000X1.000000*%
%TD*%
%TA.AperFunction,ComponentPad*%
%ADD22RoundRect,0.250000X-0.350000X-0.625000X0.350000X-0.625000X0.350000X0.625000X-0.350000X0.625000X0*%
%TD*%
%TA.AperFunction,ComponentPad*%
%ADD23O,1.200000X1.750000*%
%TD*%
%TA.AperFunction,SMDPad,CuDef*%
%ADD24RoundRect,0.150000X0.150000X-0.512500X0.150000X0.512500X-0.150000X0.512500X-0.150000X-0.512500X0*%
%TD*%
%TA.AperFunction,SMDPad,CuDef*%
%ADD25R,0.600000X0.400000*%
%TD*%
%TA.AperFunction,SMDPad,CuDef*%
%ADD26R,0.400000X0.600000*%
%TD*%
%TA.AperFunction,SMDPad,CuDef*%
%ADD27R,0.600000X1.450000*%
%TD*%
%TA.AperFunction,SMDPad,CuDef*%
%ADD28R,0.300000X1.450000*%
%TD*%
%TA.AperFunction,ComponentPad*%
%ADD29O,1.000000X2.100000*%
%TD*%
%TA.AperFunction,ComponentPad*%
%ADD30O,1.000000X1.600000*%
%TD*%
%TA.AperFunction,SMDPad,CuDef*%
%ADD31R,1.000000X0.800000*%
%TD*%
%TA.AperFunction,SMDPad,CuDef*%
%ADD32R,0.700000X1.500000*%
%TD*%
%TA.AperFunction,ViaPad*%
%ADD33C,0.500000*%
%TD*%
%TA.AperFunction,Conductor*%
%ADD34C,0.170000*%
%TD*%
%TA.AperFunction,Conductor*%
%ADD35C,0.127400*%
%TD*%
G04 APERTURE END LIST*
D10*
%TO.P,C5,1*%
%TO.N,/USB_VBUS*%
X37225000Y-11000000D03*
%TO.P,C5,2*%
%TO.N,/GND*%
X38775000Y-11000000D03*
%TD*%
D11*
%TO.P,U5,1*%
%TO.N,/VDD_3V0*%
X44862500Y-47050000D03*
%TO.P,U5,2*%
%TO.N,/GND*%
X44862500Y-48000000D03*
%TO.P,U5,3*%
%TO.N,/VDD_3V0*%
X44862500Y-48950000D03*
%TO.P,U5,4*%
%TO.N,unconnected-(U5-Pad4)*%
X47137500Y-48950000D03*
%TO.P,U5,5*%
%TO.N,/VDD_1V9*%
X47137500Y-47050000D03*
%TD*%
D10*
%TO.P,C7,1*%
%TO.N,/LF_XL2*%
X31225000Y-71000000D03*
%TO.P,C7,2*%
%TO.N,/GND*%
X32775000Y-71000000D03*
%TD*%
%TO.P,C3,1*%
%TO.N,/VDD_3V0*%
X31225000Y-75000000D03*
%TO.P,C3,2*%
%TO.N,/GND*%
X32775000Y-75000000D03*
%TD*%
%TO.P,C2,1*%
%TO.N,/VDD_3V0*%
X14225000Y-64000000D03*
%TO.P,C2,2*%
%TO.N,/GND*%
X15775000Y-64000000D03*
%TD*%
%TO.P,C14,1*%
%TO.N,/VDD_3V0*%
X17225000Y-48000000D03*
%TO.P,C14,2*%
%TO.N,/GND*%
X18775000Y-48000000D03*
%TD*%
D12*
%TO.P,R5,1*%
%TO.N,/VDD_3V0*%
X49175000Y-42000000D03*
%TO.P,R5,2*%
%TO.N,/SPI_MISO*%
X50825000Y-42000000D03*
%TD*%
D13*
%TO.P,Y1,1*%
%TO.N,/LF_XL1*%
X31250000Y-73000000D03*
%TO.P,Y1,2*%
%TO.N,/LF_XL2*%
X28750000Y-73000000D03*
%TD*%
D12*
%TO.P,R8,1*%
%TO.N,/CHARGER_TMR*%
X16175000Y-18000000D03*
%TO.P,R8,2*%
%TO.N,/GND*%
X17825000Y-18000000D03*
%TD*%
%TO.P,R4,1*%
%TO.N,/VDD_1V9*%
X37175000Y-56000000D03*
%TO.P,R4,2*%
%TO.N,/SENSOR_LED_P*%
X38825000Y-56000000D03*
%TD*%
%TO.P,R6,1*%
%TO.N,/CHARGER_ISET*%
X10175000Y-18000000D03*
%TO.P,R6,2*%
%TO.N,/GND*%
X11825000Y-18000000D03*
%TD*%
D14*
%TO.P,C16,1*%
%TO.N,/USB_VBUS*%
X15050000Y-10000000D03*
%TO.P,C16,2*%
%TO.N,/GND*%
X16950000Y-10000000D03*
%TD*%
%TO.P,C15,1*%
%TO.N,/VDD_1V9*%
X41050000Y-53000000D03*
%TO.P,C15,2*%
%TO.N,/GND*%
X42950000Y-53000000D03*
%TD*%
D12*
%TO.P,R2,1*%
%TO.N,/CC2*%
X38175000Y-9000000D03*
%TO.P,R2,2*%
%TO.N,/GND*%
X39825000Y-9000000D03*
%TD*%
%TO.P,R9,1*%
%TO.N,/BATTERY*%
X5175000Y-70000000D03*
%TO.P,R9,2*%
%TO.N,/BATTERY_ADC*%
X6825000Y-70000000D03*
%TD*%
D10*
%TO.P,C1,1*%
%TO.N,/SYSTEM_ON*%
X10225000Y-64000000D03*
%TO.P,C1,2*%
%TO.N,/GND*%
X11775000Y-64000000D03*
%TD*%
D15*
%TO.P,J2,1*%
%TO.N,/VDD_3V0*%
X57000000Y-67000000D03*
D16*
%TO.P,J2,2*%
%TO.N,/SWDIO*%
X57000000Y-69540000D03*
%TO.P,J2,3*%
%TO.N,/SWDCLK*%
X57000000Y-72080000D03*
%TO.P,J2,4*%
%TO.N,/GND*%
X57000000Y-74620000D03*
%TO.P,J2,5*%
%TO.N,/MCU_RESET*%
X57000000Y-77160000D03*
%TD*%
D17*
%TO.P,U6,1*%
%TO.N,/BATTERY_NTC*%
X14600000Y-13250000D03*
%TO.P,U6,2*%
%TO.N,/BATTERY*%
X14600000Y-13750000D03*
%TO.P,U6,3*%
X14600000Y-14250000D03*
%TO.P,U6,4*%
%TO.N,/GND*%
X14600000Y-14750000D03*
D18*
%TO.P,U6,5*%
X15250000Y-15400000D03*
%TO.P,U6,6*%
X15750000Y-15400000D03*
%TO.P,U6,7*%
%TO.N,/POWER_GOOD*%
X16250000Y-15400000D03*
%TO.P,U6,8*%
%TO.N,/GND*%
X16750000Y-15400000D03*
D17*
%TO.P,U6,9*%
%TO.N,/CHARGING*%
X17400000Y-14750000D03*
%TO.P,U6,10*%
%TO.N,/SYSTEM*%
X17400000Y-14250000D03*
%TO.P,U6,11*%
X17400000Y-13750000D03*
%TO.P,U6,12*%
%TO.N,/CHARGER_ILIM*%
X17400000Y-13250000D03*
D18*
%TO.P,U6,13*%
%TO.N,/USB_VBUS*%
X16750000Y-12600000D03*
%TO.P,U6,14*%
%TO.N,/CHARGER_TMR*%
X16250000Y-12600000D03*
%TO.P,U6,15*%
%TO.N,/GND*%
X15750000Y-12600000D03*
%TO.P,U6,16*%
%TO.N,/CHARGER_ISET*%
X15250000Y-12600000D03*
D19*
%TO.P,U6,17*%
%TO.N,/GND*%
X16000000Y-14000000D03*
%TD*%
D20*
%TO.P,U4,1*%
%TO.N,unconnected-(U4-NC-Pad1)*%
X37660000Y-38650000D03*
%TO.P,U4,2*%
%TO.N,unconnected-(U4-NC-Pad2)*%
X35880000Y-38650000D03*
%TO.P,U4,3*%
%TO.N,/GND*%
X34100000Y-38650000D03*
%TO.P,U4,4*%
%TO.N,/VDD_1V9*%
X32320000Y-38650000D03*
%TO.P,U4,5*%
%TO.N,/SENSOR_VDDREG*%
X30540000Y-38650000D03*
%TO.P,U4,6*%
%TO.N,unconnected-(U4-NC-Pad6)*%
X28760000Y-38650000D03*
%TO.P,U4,7*%
%TO.N,/VDD_3V0*%
X26980000Y-38650000D03*
%TO.P,U4,8*%
%TO.N,/GND*%
X25200000Y-38650000D03*
%TO.P,U4,9*%
%TO.N,/SENSOR_IRQ*%
X24150000Y-49350000D03*
%TO.P,U4,10*%
%TO.N,/SPI_SCLK*%
X25930000Y-49350000D03*
%TO.P,U4,11*%
%TO.N,/SPI_MOSI*%
X27710000Y-49350000D03*
%TO.P,U4,12*%
%TO.N,/SPI_MISO*%
X29490000Y-49350000D03*
%TO.P,U4,13*%
%TO.N,/SENSOR_NCS*%
X31270000Y-49350000D03*
%TO.P,U4,14*%
%TO.N,/SENSOR_RESET*%
X33050000Y-49350000D03*
%TO.P,U4,15*%
%TO.N,/SENSOR_LED_P*%
X34830000Y-49350000D03*
%TO.P,U4,16*%
%TO.N,unconnected-(U4-NC-Pad16)*%
X36610000Y-49350000D03*
%TD*%
D15*
%TO.P,J9,1*%
%TO.N,/BUTTON_FORWARD*%
X10000000Y-43000000D03*
D16*
%TO.P,J9,2*%
%TO.N,/GND*%
X10000000Y-45540000D03*
%TD*%
D12*
%TO.P,R11,1*%
%TO.N,/VDD_3V0*%
X8175000Y-22000000D03*
%TO.P,R11,2*%
%TO.N,/POWER_GOOD*%
X9825000Y-22000000D03*
%TD*%
D15*
%TO.P,J8,1*%
%TO.N,/BUTTON_BACK*%
X5000000Y-37000000D03*
D16*
%TO.P,J8,2*%
%TO.N,/GND*%
X5000000Y-39540000D03*
%TD*%
D12*
%TO.P,R1,1*%
%TO.N,/CC1*%
X24175000Y-9000000D03*
%TO.P,R1,2*%
%TO.N,/GND*%
X25825000Y-9000000D03*
%TD*%
D21*
%TO.P,SW1,1*%
%TO.N,/PAIR*%
X6850000Y-76100000D03*
X13150000Y-76100000D03*
%TO.P,SW1,2*%
%TO.N,/GND*%
X6850000Y-79900000D03*
X13150000Y-79900000D03*
%TD*%
D22*
%TO.P,J3,1*%
%TO.N,/BATTERY*%
X6000000Y-50000000D03*
D23*
%TO.P,J3,2*%
%TO.N,/GND*%
X8000000Y-50000000D03*
%TO.P,J3,3*%
%TO.N,/BATTERY_NTC*%
X10000000Y-50000000D03*
%TD*%
D10*
%TO.P,C12,1*%
%TO.N,/SENSOR_VDDREG*%
X27225000Y-35000000D03*
%TO.P,C12,2*%
%TO.N,/GND*%
X28775000Y-35000000D03*
%TD*%
D14*
%TO.P,C17,1*%
%TO.N,/SYSTEM*%
X21050000Y-15000000D03*
%TO.P,C17,2*%
%TO.N,/GND*%
X22950000Y-15000000D03*
%TD*%
D15*
%TO.P,J7,1*%
%TO.N,/BUTTON_MIDDLE*%
X34000000Y-22000000D03*
D16*
%TO.P,J7,2*%
%TO.N,/GND*%
X34000000Y-24540000D03*
%TD*%
D10*
%TO.P,C6,1*%
%TO.N,/LF_XL1*%
X27225000Y-71000000D03*
%TO.P,C6,2*%
%TO.N,/GND*%
X28775000Y-71000000D03*
%TD*%
D15*
%TO.P,J10,1*%
%TO.N,/ENCODER_A*%
X27000000Y-12000000D03*
D16*
%TO.P,J10,2*%
%TO.N,/GND*%
X27000000Y-14540000D03*
%TO.P,J10,3*%
%TO.N,/ENCODER_B*%
X27000000Y-17080000D03*
%TD*%
D10*
%TO.P,C4,1*%
%TO.N,/VDD_3V0*%
X34225000Y-75000000D03*
%TO.P,C4,2*%
%TO.N,/GND*%
X35775000Y-75000000D03*
%TD*%
D14*
%TO.P,C18,1*%
%TO.N,/BATTERY*%
X10050000Y-12000000D03*
%TO.P,C18,2*%
%TO.N,/GND*%
X11950000Y-12000000D03*
%TD*%
D15*
%TO.P,J6,1*%
%TO.N,/BUTTON_RIGHT*%
X45000000Y-23000000D03*
D16*
%TO.P,J6,2*%
%TO.N,/GND*%
X45000000Y-25540000D03*
%TD*%
D24*
%TO.P,U2,1*%
%TO.N,/USB_DP*%
X31050000Y-12637500D03*
%TO.P,U2,2*%
%TO.N,/GND*%
X32000000Y-12637500D03*
%TO.P,U2,3*%
%TO.N,/USB_DM*%
X32950000Y-12637500D03*
%TO.P,U2,4*%
X32950000Y-10362500D03*
%TO.P,U2,5*%
%TO.N,/USB_VBUS*%
X32000000Y-10362500D03*
%TO.P,U2,6*%
%TO.N,/USB_DP*%
X31050000Y-10362500D03*
%TD*%
D10*
%TO.P,C8,1*%
%TO.N,/VDD_3V0*%
X46225000Y-51000000D03*
%TO.P,C8,2*%
%TO.N,/GND*%
X47775000Y-51000000D03*
%TD*%
D12*
%TO.P,R12,1*%
%TO.N,/VDD_3V0*%
X11175000Y-22000000D03*
%TO.P,R12,2*%
%TO.N,/CHARGING*%
X12825000Y-22000000D03*
%TD*%
D14*
%TO.P,C13,1*%
%TO.N,/VDD_3V0*%
X16050000Y-45000000D03*
%TO.P,C13,2*%
%TO.N,/GND*%
X17950000Y-45000000D03*
%TD*%
D21*
%TO.P,SW2,1*%
%TO.N,/MCU_RESET*%
X6850000Y-82100000D03*
X13150000Y-82100000D03*
%TO.P,SW2,2*%
%TO.N,/GND*%
X6850000Y-85900000D03*
X13150000Y-85900000D03*
%TD*%
D25*
%TO.P,U1,1*%
%TO.N,/GND*%
X36650000Y-87750000D03*
%TO.P,U1,2*%
X36650000Y-86650000D03*
%TO.P,U1,3*%
%TO.N,unconnected-(U1-P1.10-Pad3)*%
X36650000Y-85850000D03*
%TO.P,U1,4*%
%TO.N,unconnected-(U1-P1.11-Pad4)*%
X36650000Y-84250000D03*
%TO.P,U1,5*%
%TO.N,unconnected-(U1-P1.12-Pad5)*%
X35750000Y-83850000D03*
%TO.P,U1,6*%
%TO.N,unconnected-(U1-P1.13-Pad6)*%
X36650000Y-83450000D03*
%TO.P,U1,7*%
%TO.N,unconnected-(U1-P1.14-Pad7)*%
X35750000Y-83050000D03*
%TO.P,U1,8*%
%TO.N,unconnected-(U1-P1.15-Pad8)*%
X36650000Y-82650000D03*
%TO.P,U1,9*%
%TO.N,unconnected-(U1-P0.03{slash}AIN1-Pad9)*%
X35750000Y-82250000D03*
%TO.P,U1,10*%
%TO.N,unconnected-(U1-P0.29{slash}AIN5-Pad10)*%
X36650000Y-81850000D03*
%TO.P,U1,11*%
%TO.N,unconnected-(U1-P0.02{slash}AIN0-Pad11)*%
X35750000Y-81450000D03*
%TO.P,U1,12*%
%TO.N,unconnected-(U1-P0.31{slash}AIN7-Pad12)*%
X36650000Y-81050000D03*
%TO.P,U1,13*%
%TO.N,unconnected-(U1-P0.28{slash}AIN4-Pad13)*%
X35750000Y-80650000D03*
%TO.P,U1,14*%
%TO.N,unconnected-(U1-P0.30{slash}AIN6-Pad14)*%
X36650000Y-80250000D03*
D26*
%TO.P,U1,15*%
%TO.N,/GND*%
X36800000Y-76850000D03*
%TO.P,U1,16*%
%TO.N,/PAIR*%
X36000000Y-76850000D03*
%TO.P,U1,17*%
%TO.N,/LF_XL1*%
X35200000Y-76850000D03*
%TO.P,U1,18*%
%TO.N,/LF_XL2*%
X34400000Y-76850000D03*
%TO.P,U1,19*%
%TO.N,/ENCODER_B*%
X34000000Y-77750000D03*
%TO.P,U1,20*%
%TO.N,/BATTERY_ADC*%
X33600000Y-76850000D03*
%TO.P,U1,21*%
%TO.N,unconnected-(U1-P0.05{slash}AIN3-Pad21)*%
X33200000Y-77750000D03*
%TO.P,U1,22*%
%TO.N,unconnected-(U1-P0.06-Pad22)*%
X32800000Y-76850000D03*
%TO.P,U1,23*%
%TO.N,unconnected-(U1-TRACECLK{slash}P0.07-Pad23)*%
X32400000Y-77750000D03*
%TO.P,U1,24*%
%TO.N,unconnected-(U1-P0.08-Pad24)*%
X32000000Y-76850000D03*
%TO.P,U1,25*%
%TO.N,unconnected-(U1-P1.08-Pad25)*%
X31600000Y-77750000D03*
%TO.P,U1,26*%
%TO.N,unconnected-(U1-TRACEDATA3{slash}P1.09-Pad26)*%
X31200000Y-76850000D03*
%TO.P,U1,27*%
%TO.N,/SENSOR_IRQ*%
X30800000Y-77750000D03*
%TO.P,U1,28*%
%TO.N,/VDD_3V0*%
X30400000Y-76850000D03*
%TO.P,U1,29*%
%TO.N,unconnected-(U1-TRACEDATA1{slash}P0.12-Pad29)*%
X30000000Y-77750000D03*
%TO.P,U1,30*%
%TO.N,/VDD_3V0*%
X29600000Y-76850000D03*
%TO.P,U1,31*%
%TO.N,unconnected-(U1-DCCH-Pad31)*%
X28800000Y-76850000D03*
%TO.P,U1,32*%
%TO.N,/USB_VBUS*%
X28000000Y-76850000D03*
%TO.P,U1,33*%
%TO.N,/GND*%
X27200000Y-76850000D03*
D25*
%TO.P,U1,34*%
%TO.N,/USB_DM*%
X27350000Y-77850000D03*
%TO.P,U1,35*%
%TO.N,/USB_DP*%
X27350000Y-78650000D03*
%TO.P,U1,36*%
%TO.N,/SPI_SCLK*%
X28250000Y-79050000D03*
%TO.P,U1,37*%
%TO.N,/SPI_MOSI*%
X27350000Y-79450000D03*
%TO.P,U1,38*%
%TO.N,/SENSOR_NCS*%
X28250000Y-79850000D03*
%TO.P,U1,39*%
%TO.N,/SPI_MISO*%
X27350000Y-80250000D03*
%TO.P,U1,40*%
%TO.N,/MCU_RESET*%
X28250000Y-80650000D03*
%TO.P,U1,41*%
%TO.N,/SENSOR_RESET*%
X27350000Y-81050000D03*
%TO.P,U1,42*%
%TO.N,unconnected-(U1-P0.19-Pad42)*%
X28250000Y-81450000D03*
%TO.P,U1,43*%
%TO.N,/BUTTON_RIGHT*%
X28250000Y-82250000D03*
%TO.P,U1,44*%
%TO.N,/BUTTON_LEFT*%
X27350000Y-82650000D03*
%TO.P,U1,45*%
%TO.N,/BUTTON_MIDDLE*%
X28250000Y-83050000D03*
%TO.P,U1,46*%
%TO.N,/BUTTON_BACK*%
X27350000Y-83450000D03*
%TO.P,U1,47*%
%TO.N,unconnected-(U1-TRACEDATA0{slash}P1.00-Pad47)*%
X28250000Y-83850000D03*
%TO.P,U1,48*%
%TO.N,/BUTTON_FORWARD*%
X27350000Y-84250000D03*
%TO.P,U1,49*%
%TO.N,/ENCODER_A*%
X28250000Y-84650000D03*
%TO.P,U1,50*%
%TO.N,unconnected-(U1-P1.02-Pad50)*%
X28250000Y-85450000D03*
%TO.P,U1,51*%
%TO.N,/SWDIO*%
X27350000Y-85850000D03*
%TO.P,U1,52*%
%TO.N,unconnected-(U1-P0.09{slash}NFC1-Pad52)*%
X28250000Y-86250000D03*
%TO.P,U1,53*%
%TO.N,/SWDCLK*%
X27350000Y-86650000D03*
%TO.P,U1,54*%
%TO.N,unconnected-(U1-P0.10{slash}NFC2-Pad54)*%
X28250000Y-87050000D03*
%TO.P,U1,55*%
%TO.N,/GND*%
X27350000Y-87750000D03*
D26*
%TO.P,U1,56*%
%TO.N,unconnected-(U1-P1.04-Pad56)*%
X34000000Y-83450000D03*
%TO.P,U1,57*%
%TO.N,unconnected-(U1-P1.06-Pad57)*%
X33200000Y-83450000D03*
%TO.P,U1,58*%
%TO.N,unconnected-(U1-P1.07-Pad58)*%
X32400000Y-83450000D03*
%TO.P,U1,59*%
%TO.N,unconnected-(U1-P1.05-Pad59)*%
X31600000Y-83450000D03*
%TO.P,U1,60*%
%TO.N,unconnected-(U1-P1.03-Pad60)*%
X30800000Y-83450000D03*
%TO.P,U1,61*%
%TO.N,unconnected-(U1-P1.01-Pad61)*%
X30000000Y-83450000D03*
%TD*%
D14*
%TO.P,C9,1*%
%TO.N,/VDD_1V9*%
X44050000Y-44000000D03*
%TO.P,C9,2*%
%TO.N,/GND*%
X45950000Y-44000000D03*
%TD*%
D11*
%TO.P,U3,1*%
%TO.N,/SYSTEM_ON*%
X11862500Y-60050000D03*
%TO.P,U3,2*%
%TO.N,/GND*%
X11862500Y-61000000D03*
%TO.P,U3,3*%
%TO.N,/SYSTEM_ON*%
X11862500Y-61950000D03*
%TO.P,U3,4*%
%TO.N,unconnected-(U3-Pad4)*%
X14137500Y-61950000D03*
%TO.P,U3,5*%
%TO.N,/VDD_3V0*%
X14137500Y-60050000D03*
%TD*%
D27*
%TO.P,J1,A1*%
%TO.N,/GND*%
X35250000Y-7645000D03*
%TO.P,J1,A4*%
%TO.N,/USB_VBUS*%
X34450000Y-7645000D03*
D28*
%TO.P,J1,A5*%
%TO.N,/CC1*%
X33250000Y-7645000D03*
%TO.P,J1,A6*%
%TO.N,/USB_DP*%
X32250000Y-7645000D03*
%TO.P,J1,A7*%
%TO.N,/USB_DM*%
X31750000Y-7645000D03*
%TO.P,J1,A8*%
%TO.N,unconnected-(J1-PadA8)*%
X30750000Y-7645000D03*
D27*
%TO.P,J1,A9*%
%TO.N,/USB_VBUS*%
X29550000Y-7645000D03*
%TO.P,J1,A12*%
%TO.N,/GND*%
X28750000Y-7645000D03*
%TO.P,J1,B1*%
X28750000Y-7645000D03*
%TO.P,J1,B4*%
%TO.N,/USB_VBUS*%
X29550000Y-7645000D03*
D28*
%TO.P,J1,B5*%
%TO.N,/CC2*%
X30250000Y-7645000D03*
%TO.P,J1,B6*%
%TO.N,/USB_DP*%
X31250000Y-7645000D03*
%TO.P,J1,B7*%
%TO.N,/USB_DM*%
X32750000Y-7645000D03*
%TO.P,J1,B8*%
%TO.N,unconnected-(J1-PadB8)*%
X33750000Y-7645000D03*
D27*
%TO.P,J1,B9*%
%TO.N,/USB_VBUS*%
X34450000Y-7645000D03*
%TO.P,J1,B12*%
%TO.N,/GND*%
X35250000Y-7645000D03*
D29*
%TO.P,J1,S1*%
X36320000Y-6730000D03*
D30*
X36320000Y-2550000D03*
D29*
X27680000Y-6730000D03*
D30*
X27680000Y-2550000D03*
%TD*%
D12*
%TO.P,R3,1*%
%TO.N,/VDD_3V0*%
X16175000Y-84000000D03*
%TO.P,R3,2*%
%TO.N,/MCU_RESET*%
X17825000Y-84000000D03*
%TD*%
D10*
%TO.P,C10,1*%
%TO.N,/VDD_1V9*%
X42225000Y-41000000D03*
%TO.P,C10,2*%
%TO.N,/GND*%
X43775000Y-41000000D03*
%TD*%
D12*
%TO.P,R10,1*%
%TO.N,/BATTERY_ADC*%
X8175000Y-70000000D03*
%TO.P,R10,2*%
%TO.N,/GND*%
X9825000Y-70000000D03*
%TD*%
D31*
%TO.P,SW3,*%
%TO.N,*%
X3350000Y-55220000D03*
X3350000Y-57430000D03*
X10650000Y-55220000D03*
X10650000Y-57430000D03*
D32*
%TO.P,SW3,1*%
%TO.N,/SYSTEM*%
X4750000Y-54570000D03*
%TO.P,SW3,2*%
%TO.N,/SYSTEM_ON*%
X7750000Y-54570000D03*
%TO.P,SW3,3*%
%TO.N,unconnected-(SW3-Pad3)*%
X9250000Y-54570000D03*
%TD*%
D10*
%TO.P,C19,1*%
%TO.N,/BATTERY_ADC*%
X11225000Y-70000000D03*
%TO.P,C19,2*%
%TO.N,/GND*%
X12775000Y-70000000D03*
%TD*%
D15*
%TO.P,J5,1*%
%TO.N,/BUTTON_LEFT*%
X18000000Y-25000000D03*
D16*
%TO.P,J5,2*%
%TO.N,/GND*%
X18000000Y-27540000D03*
%TD*%
D10*
%TO.P,C11,1*%
%TO.N,/SENSOR_VDDREG*%
X24225000Y-35000000D03*
%TO.P,C11,2*%
%TO.N,/GND*%
X25775000Y-35000000D03*
%TD*%
D12*
%TO.P,R7,1*%
%TO.N,/CHARGER_ILIM*%
X13175000Y-18000000D03*
%TO.P,R7,2*%
%TO.N,/GND*%
X14825000Y-18000000D03*
%TD*%
D15*
%TO.P,J4,1*%
%TO.N,/GND*%
X6000000Y-26000000D03*
D16*
%TO.P,J4,2*%
%TO.N,/POWER_GOOD*%
X6000000Y-28540000D03*
%TO.P,J4,3*%
%TO.N,/CHARGING*%
X6000000Y-31080000D03*
%TD*%
D33*
%TO.N,/USB_VBUS*%
X28011900Y-76170300D03*
X22833200Y-70482200D03*
X29550000Y-9041800D03*
X34274600Y-9052700D03*
X32401800Y-11373000D03*
%TO.N,/GND*%
X16000000Y-14000000D03*
X62500000Y-1500000D03*
X15420000Y-14580000D03*
X12088300Y-82968000D03*
X62500000Y-92500000D03*
X35960900Y-86451300D03*
X26486000Y-34289000D03*
X1500000Y-92500000D03*
X62500000Y-47000000D03*
X16579999Y-13420000D03*
X31599300Y-13845500D03*
X27385100Y-75954800D03*
X1500000Y-1500000D03*
X29454600Y-71757900D03*
X35716500Y-72984000D03*
X15420000Y-13420000D03*
X26661800Y-87417000D03*
X1500000Y-47000000D03*
%TO.N,/VDD_3V0*%
X16835200Y-84660200D03*
X16050000Y-37952800D03*
X29578900Y-81028200D03*
X46225000Y-49887300D03*
X49175000Y-42863100D03*
%TO.N,/VDD_1V9*%
X43241700Y-44808300D03*
%TO.N,/LF_XL2*%
X30544400Y-70321600D03*
X34455400Y-78676300D03*
%TO.N,/SPI_MISO*%
X29113200Y-53486000D03*
X50823400Y-42870500D03*
%TO.N,/LF_XL1*%
X35382800Y-77544500D03*
X32129600Y-73068300D03*
%TO.N,/CHARGER_TMR*%
X16175000Y-18860100D03*
X16250000Y-11923300D03*
%TO.N,/SENSOR_LED_P*%
X39401700Y-56739200D03*
%TO.N,/CC2*%
X30167400Y-8760000D03*
X38193500Y-8134100D03*
%TO.N,/BATTERY*%
X13603000Y-14736900D03*
X10050000Y-13125900D03*
%TO.N,/BATTERY_ADC*%
X8824600Y-70649600D03*
X34936200Y-74370800D03*
%TO.N,/SWDIO*%
X26672800Y-85582300D03*
%TO.N,/SWDCLK*%
X26668900Y-86378400D03*
%TO.N,/MCU_RESET*%
X6850000Y-82987700D03*
X28964000Y-80703300D03*
X15900500Y-82100000D03*
%TO.N,/POWER_GOOD*%
X9825000Y-22861100D03*
X16250000Y-16098900D03*
%TO.N,/CHARGING*%
X12592100Y-20271900D03*
X17911700Y-15191500D03*
%TO.N,/SYSTEM*%
X4688000Y-53437100D03*
X18661700Y-15000000D03*
%TO.N,/CHARGER_ILIM*%
X18088200Y-13419800D03*
X14448900Y-16540000D03*
%TO.N,/SENSOR_IRQ*%
X30792400Y-78427100D03*
%TO.N,/SPI_SCLK*%
X26620900Y-71741800D03*
%TO.N,/SPI_MOSI*%
X26392800Y-56883100D03*
%TO.N,/SENSOR_NCS*%
X28838400Y-77888600D03*
%TO.N,/SENSOR_RESET*%
X28115900Y-53663700D03*
%TO.N,/BUTTON_FORWARD*%
X16742000Y-48996900D03*
%TO.N,/BUTTON_BACK*%
X17000000Y-38778600D03*
%TO.N,/CC1*%
X33391200Y-9022200D03*
X24175000Y-8146000D03*
%TO.N,/PAIR*%
X14386100Y-75925600D03*
X36000000Y-76155300D03*
%TO.N,/BUTTON_MIDDLE*%
X21475600Y-28407400D03*
X25964100Y-81465300D03*
X28949300Y-82862400D03*
%TO.N,/ENCODER_A*%
X30044900Y-78889200D03*
X23063200Y-72944800D03*
%TO.N,/ENCODER_B*%
X33789500Y-78472200D03*
X21951200Y-72667400D03*
%TO.N,/BUTTON_RIGHT*%
X23018200Y-30825700D03*
%TO.N,/USB_DP*%
X32250000Y-8600000D03*
X31250000Y-8600000D03*
%TO.N,/USB_DM*%
X32750000Y-9120000D03*
X31750000Y-9120000D03*
%TD*%
%TO.N,/USB_VBUS*%
D34*
X28000000Y-76182200D02*
X28011900Y-76170300D01*
X22677400Y-70326400D02*
X22677400Y-34842100D01*
X22677400Y-34842100D02*
X29550000Y-27969500D01*
X16750000Y-11700000D02*
X23039600Y-5410400D01*
X34806700Y-8581700D02*
X37225000Y-11000000D01*
X16750000Y-11700000D02*
X15050000Y-10000000D01*
X34450000Y-8581700D02*
X34274600Y-8757100D01*
X29550000Y-7142400D02*
X29550000Y-7645000D01*
X29550000Y-9041800D02*
X29550000Y-7645000D01*
X22833200Y-70482200D02*
X22677400Y-70326400D01*
X29889800Y-6802600D02*
X29550000Y-7142400D01*
X32401800Y-10764300D02*
X32401800Y-11373000D01*
X32000000Y-10362500D02*
X32401800Y-10764300D01*
D35*
X29889800Y-5410400D02*
X29889800Y-6802600D01*
D34*
X23039600Y-5410400D02*
X29889800Y-5410400D01*
X34450000Y-7645000D02*
X34450000Y-8581700D01*
X29550000Y-27969500D02*
X29550000Y-9041800D01*
X28000000Y-76850000D02*
X28000000Y-76182200D01*
X16750000Y-12600000D02*
X16750000Y-11700000D01*
X34450000Y-8581700D02*
X34806700Y-8581700D01*
X34274600Y-8757100D02*
X34274600Y-9052700D01*
%TO.N,/GND*%
X27200000Y-76139900D02*
X27385100Y-75954800D01*
D35*
X37467800Y-37789800D02*
X36600200Y-36922200D01*
D34*
X34000000Y-38550000D02*
X34100000Y-38650000D01*
X42950000Y-51714900D02*
X42950000Y-48439200D01*
X10518800Y-70693800D02*
X9825000Y-70000000D01*
X28775000Y-71000000D02*
X29454600Y-71679600D01*
X18000000Y-27540000D02*
X18000000Y-28601700D01*
X35960900Y-86451300D02*
X36159600Y-86650000D01*
X16000000Y-14000000D02*
X15750000Y-14250000D01*
X35716500Y-74941500D02*
X35775000Y-75000000D01*
X38775000Y-11000000D02*
X39825000Y-9950000D01*
X14211700Y-79900000D02*
X14849200Y-79262500D01*
X26538300Y-8286700D02*
X25825000Y-9000000D01*
X26486000Y-34289000D02*
X25775000Y-35000000D01*
D35*
X44423300Y-48439200D02*
X44862500Y-48000000D01*
D34*
X8394100Y-50000000D02*
X9875000Y-51480900D01*
X42950000Y-53000000D02*
X42950000Y-51714900D01*
X10000000Y-46601700D02*
X8811700Y-47790000D01*
X17469100Y-26478300D02*
X16922300Y-25931500D01*
D35*
X39315400Y-37789800D02*
X37467800Y-37789800D01*
D34*
X34000000Y-35000000D02*
X28775000Y-35000000D01*
X14337300Y-10675600D02*
X14337300Y-9249100D01*
X15250000Y-17575000D02*
X14825000Y-18000000D01*
X7959300Y-79947600D02*
X7911700Y-79900000D01*
X30890200Y-75756900D02*
X28332300Y-75756900D01*
X15250000Y-15400000D02*
X15250000Y-15911700D01*
X17689200Y-16850900D02*
X16750000Y-15911700D01*
X15750000Y-13750000D02*
X15750000Y-12600000D01*
D35*
X26859600Y-87614800D02*
X26661800Y-87417000D01*
D34*
X35200700Y-85691100D02*
X35200700Y-78961000D01*
X35250000Y-7645000D02*
X35250000Y-8581700D01*
X15750000Y-14250000D02*
X15750000Y-14888300D01*
X18000000Y-26478300D02*
X17469100Y-26478300D01*
X27200000Y-76850000D02*
X27200000Y-76139900D01*
X7959300Y-84968000D02*
X7959300Y-79947600D01*
X35200700Y-78961000D02*
X36800000Y-77361700D01*
X17950000Y-45000000D02*
X17950000Y-28651700D01*
D35*
X36650000Y-86650000D02*
X36159600Y-86650000D01*
D34*
X13065800Y-60058000D02*
X13065800Y-62709200D01*
X17689200Y-18000000D02*
X17689200Y-16850900D01*
X16000000Y-14000000D02*
X16750000Y-14750000D01*
X31793100Y-75981900D02*
X31324100Y-75981900D01*
X10946500Y-58960400D02*
X10946500Y-59505600D01*
X27680000Y-7991700D02*
X27680000Y-8286700D01*
X34759000Y-72984000D02*
X35716500Y-72984000D01*
X27000000Y-14540000D02*
X25825000Y-14540000D01*
X36320000Y-8545000D02*
X36283300Y-8581700D01*
D35*
X9939800Y-56177500D02*
X9226300Y-56891000D01*
D34*
X32775000Y-71000000D02*
X34759000Y-72984000D01*
X13150000Y-79900000D02*
X12088300Y-79900000D01*
X47775000Y-51000000D02*
X48042800Y-50732200D01*
X15250000Y-14888300D02*
X15111700Y-14750000D01*
X48042800Y-46092800D02*
X45950000Y-44000000D01*
X23526300Y-34596500D02*
X23845600Y-34277200D01*
X36320000Y-6730000D02*
X36320000Y-7360800D01*
X16000000Y-14000000D02*
X15750000Y-13750000D01*
X19950000Y-18000000D02*
X22950000Y-15000000D01*
X36283300Y-8581700D02*
X35250000Y-8581700D01*
D35*
X31115200Y-75981900D02*
X30890200Y-75756900D01*
D34*
X43775000Y-41000000D02*
X40564800Y-37789800D01*
X16922300Y-18766900D02*
X17689200Y-18000000D01*
X12088300Y-85900000D02*
X12088300Y-84968000D01*
X16750000Y-15400000D02*
X16750000Y-15911700D01*
X14849200Y-79262500D02*
X14849200Y-72074200D01*
X23410000Y-14540000D02*
X22950000Y-15000000D01*
X45950000Y-43175000D02*
X43775000Y-41000000D01*
X9875000Y-56112700D02*
X9939800Y-56177500D01*
X42950000Y-51714900D02*
X47060100Y-51714900D01*
D35*
X26859600Y-87750000D02*
X26859600Y-87614800D01*
X36159600Y-86650000D02*
X36159600Y-87750000D01*
D34*
X18000000Y-27540000D02*
X18000000Y-26478300D01*
X15250000Y-15400000D02*
X15250000Y-14888300D01*
X8394100Y-50000000D02*
X8811700Y-50000000D01*
X14088300Y-15736700D02*
X11825000Y-18000000D01*
X36320000Y-7360800D02*
X36320000Y-8545000D01*
X36320000Y-8545000D02*
X38775000Y-11000000D01*
X29454600Y-71679600D02*
X29454600Y-71757900D01*
D35*
X14486500Y-9099900D02*
X14510100Y-9099900D01*
D34*
X10946500Y-59505600D02*
X12513400Y-59505600D01*
X17689200Y-18000000D02*
X17825000Y-18000000D01*
D35*
X36650000Y-87750000D02*
X36159600Y-87750000D01*
D34*
X15970300Y-9020300D02*
X16950000Y-10000000D01*
X13150000Y-79900000D02*
X14211700Y-79900000D01*
D35*
X10946500Y-60560800D02*
X11423300Y-60560800D01*
D34*
X16750000Y-14750000D02*
X16750000Y-15400000D01*
X10946500Y-59505600D02*
X10946500Y-60560800D01*
X31599300Y-13038200D02*
X31599300Y-13845500D01*
X12775000Y-65000000D02*
X11775000Y-64000000D01*
X10000000Y-45540000D02*
X10000000Y-46601700D01*
X8000000Y-50000000D02*
X8394100Y-50000000D01*
X14775000Y-65000000D02*
X15775000Y-64000000D01*
X27662900Y-75677000D02*
X27385100Y-75954800D01*
D35*
X42950000Y-48439200D02*
X44423300Y-48439200D01*
D34*
X25825000Y-14540000D02*
X23410000Y-14540000D01*
X12088300Y-84968000D02*
X7959300Y-84968000D01*
X12775000Y-70000000D02*
X12081200Y-70693800D01*
X15750000Y-12600000D02*
X15750000Y-12088300D01*
X40564800Y-37789800D02*
X39315400Y-37789800D01*
X28750000Y-8581700D02*
X27975000Y-8581700D01*
X9875000Y-51480900D02*
X9875000Y-56112700D01*
X12513400Y-59505600D02*
X13065800Y-60058000D01*
X14600000Y-14750000D02*
X15111700Y-14750000D01*
X14600000Y-14750000D02*
X14088300Y-14750000D01*
X14589700Y-9020300D02*
X15970300Y-9020300D01*
X18775000Y-45825000D02*
X18775000Y-48000000D01*
X48042800Y-50732200D02*
X48042800Y-46092800D01*
X35827800Y-36922200D02*
X34100000Y-38650000D01*
X9226300Y-57240200D02*
X10946500Y-58960400D01*
X32000000Y-12637500D02*
X31599300Y-13038200D01*
X36800000Y-76025000D02*
X36800000Y-76850000D01*
D35*
X27350000Y-87750000D02*
X26859600Y-87750000D01*
D34*
X28775000Y-35000000D02*
X28064000Y-34289000D01*
X28332300Y-75756900D02*
X28252400Y-75677000D01*
X7911700Y-85015600D02*
X7911700Y-85900000D01*
X14849200Y-72074200D02*
X12775000Y-70000000D01*
X27975000Y-8581700D02*
X27680000Y-8286700D01*
D35*
X31324100Y-75981900D02*
X31115200Y-75981900D01*
D34*
X12088300Y-82968000D02*
X12088300Y-79900000D01*
X34000000Y-24540000D02*
X34000000Y-35000000D01*
X12081200Y-70693800D02*
X10518800Y-70693800D01*
X17950000Y-28651700D02*
X18000000Y-28601700D01*
X14337300Y-9249100D02*
X14486500Y-9099900D01*
X35960900Y-86451300D02*
X35200700Y-85691100D01*
X15750000Y-15400000D02*
X15750000Y-14888300D01*
X25052200Y-34277200D02*
X25775000Y-35000000D01*
X34000000Y-35000000D02*
X34000000Y-38550000D01*
X25825000Y-14540000D02*
X25825000Y-9000000D01*
D35*
X11423300Y-60560800D02*
X11862500Y-61000000D01*
D34*
X15750000Y-14888300D02*
X15250000Y-14888300D01*
X28252400Y-75677000D02*
X27662900Y-75677000D01*
X23526300Y-36976300D02*
X23526300Y-34596500D01*
X12775000Y-70000000D02*
X12775000Y-65000000D01*
X16922300Y-25931500D02*
X16922300Y-18766900D01*
X35716500Y-72984000D02*
X35716500Y-74941500D01*
X8811700Y-47790000D02*
X8811700Y-50000000D01*
D35*
X14510100Y-9099900D02*
X14589700Y-9020300D01*
D34*
X17825000Y-18000000D02*
X19950000Y-18000000D01*
X12088300Y-84968000D02*
X12088300Y-82968000D01*
X25200000Y-38650000D02*
X23526300Y-36976300D01*
X36800000Y-76850000D02*
X36800000Y-77361700D01*
X6850000Y-85900000D02*
X7911700Y-85900000D01*
X28064000Y-34289000D02*
X26486000Y-34289000D01*
X15250000Y-15911700D02*
X15250000Y-17575000D01*
X36320000Y-6730000D02*
X36320000Y-2550000D01*
D35*
X9226300Y-56891000D02*
X9226300Y-57240200D01*
D34*
X36600200Y-36922200D02*
X35827800Y-36922200D01*
X28750000Y-7645000D02*
X28750000Y-8581700D01*
X23845600Y-34277200D02*
X25052200Y-34277200D01*
X39825000Y-9950000D02*
X39825000Y-9000000D01*
X35775000Y-75000000D02*
X36800000Y-76025000D01*
X15750000Y-12088300D02*
X14337300Y-10675600D01*
X13065800Y-62709200D02*
X11775000Y-64000000D01*
X27680000Y-8286700D02*
X26538300Y-8286700D01*
X45950000Y-44000000D02*
X45950000Y-43175000D01*
X6850000Y-79900000D02*
X7911700Y-79900000D01*
X32775000Y-75000000D02*
X31793100Y-75981900D01*
X27680000Y-6730000D02*
X27680000Y-7991700D01*
X12775000Y-65000000D02*
X14775000Y-65000000D01*
X17950000Y-45000000D02*
X18775000Y-45825000D01*
X11950000Y-12000000D02*
X13274400Y-10675600D01*
X14088300Y-14750000D02*
X14088300Y-15736700D01*
X47060100Y-51714900D02*
X47775000Y-51000000D01*
X13150000Y-85900000D02*
X12088300Y-85900000D01*
X7959300Y-84968000D02*
X7911700Y-85015600D01*
X13274400Y-10675600D02*
X14337300Y-10675600D01*
%TO.N,/VDD_3V0*%
X10477800Y-21302800D02*
X8872200Y-21302800D01*
X46225000Y-47578200D02*
X46136000Y-47489200D01*
X33479200Y-74254200D02*
X31970800Y-74254200D01*
X46225000Y-51000000D02*
X46225000Y-49887300D01*
X8872200Y-21302800D02*
X8175000Y-22000000D01*
X12758500Y-19784900D02*
X16050000Y-23076400D01*
X18453700Y-84434200D02*
X18131800Y-84756100D01*
X15076100Y-60988600D02*
X15076100Y-63281600D01*
X29600000Y-76850000D02*
X29578900Y-76871100D01*
X17225000Y-48000000D02*
X17086000Y-48000000D01*
X30400000Y-76338300D02*
X32886700Y-76338300D01*
X18131800Y-84756100D02*
X16931100Y-84756100D01*
X46225000Y-49887300D02*
X46225000Y-47578200D01*
X11175000Y-22000000D02*
X10477800Y-21302800D01*
X16835200Y-84660200D02*
X16175000Y-84000000D01*
X44862500Y-49637500D02*
X44862500Y-48950000D01*
X49175000Y-42863100D02*
X49175000Y-42000000D01*
X16050000Y-23076400D02*
X16050000Y-37952800D01*
X16931100Y-84756100D02*
X16835200Y-84660200D01*
X14137500Y-60050000D02*
X15076100Y-60988600D01*
X15076100Y-63281600D02*
X16181000Y-63281600D01*
X29578900Y-76871100D02*
X29578900Y-81028200D01*
X16050000Y-37952800D02*
X16050000Y-45000000D01*
X32886700Y-76338300D02*
X34225000Y-75000000D01*
X31970800Y-74254200D02*
X31225000Y-75000000D01*
X14137500Y-50948500D02*
X14137500Y-60050000D01*
X17086000Y-48000000D02*
X14137500Y-50948500D01*
X12394900Y-19784900D02*
X12758500Y-19784900D01*
X11175000Y-22000000D02*
X11175000Y-21004800D01*
X11175000Y-21004800D02*
X12394900Y-19784900D01*
X17225000Y-46175000D02*
X17225000Y-48000000D01*
X30400000Y-76850000D02*
X30400000Y-76338300D01*
X16050000Y-45000000D02*
X17225000Y-46175000D01*
X46225000Y-51000000D02*
X44862500Y-49637500D01*
D35*
X46136000Y-47489200D02*
X45301700Y-47489200D01*
D34*
X16181000Y-63281600D02*
X18453700Y-65554300D01*
D35*
X45301700Y-47489200D02*
X44862500Y-47050000D01*
D34*
X29600000Y-76850000D02*
X30400000Y-76850000D01*
X18453700Y-65554300D02*
X18453700Y-84434200D01*
X14943400Y-63281600D02*
X15076100Y-63281600D01*
X34225000Y-75000000D02*
X33479200Y-74254200D01*
X14225000Y-64000000D02*
X14943400Y-63281600D01*
%TO.N,/VDD_1V9*%
D35*
X42654800Y-48344200D02*
X42238800Y-48760200D01*
D34*
X41050000Y-53000000D02*
X40175000Y-53000000D01*
X40175000Y-53000000D02*
X37175000Y-56000000D01*
X47100000Y-47050000D02*
X47137500Y-47050000D01*
X44050000Y-44000000D02*
X42225000Y-42175000D01*
X41050000Y-49949000D02*
X41050000Y-53000000D01*
X42654800Y-45395200D02*
X42654800Y-47009900D01*
X42225000Y-42175000D02*
X42225000Y-41000000D01*
X42238800Y-48760200D02*
X41050000Y-49949000D01*
D35*
X42654800Y-47009900D02*
X42654800Y-48344200D01*
D34*
X44050000Y-44000000D02*
X47100000Y-47050000D01*
X43241700Y-44808300D02*
X44050000Y-44000000D01*
X43241700Y-44808300D02*
X42654800Y-45395200D01*
%TO.N,/LF_XL2*%
X31225000Y-71000000D02*
X30546600Y-70321600D01*
X34455400Y-78676300D02*
X34455400Y-76905400D01*
X30482900Y-70260100D02*
X28113900Y-70260100D01*
X30544400Y-70321600D02*
X30482900Y-70260100D01*
X34455400Y-76905400D02*
X34400000Y-76850000D01*
D35*
X28113900Y-70260100D02*
X28113900Y-71888300D01*
D34*
X28113900Y-71888300D02*
X28750000Y-71888300D01*
X30546600Y-70321600D02*
X30544400Y-70321600D01*
X28750000Y-73000000D02*
X28750000Y-71888300D01*
%TO.N,/SPI_MISO*%
X26402300Y-80250000D02*
X23878500Y-77726200D01*
X50825000Y-42000000D02*
X50825000Y-42868900D01*
X29490000Y-53109200D02*
X29490000Y-49350000D01*
X23878500Y-58720700D02*
X29113200Y-53486000D01*
X23878500Y-77726200D02*
X23878500Y-58720700D01*
X50825000Y-42868900D02*
X50823400Y-42870500D01*
X27350000Y-80250000D02*
X26402300Y-80250000D01*
X29113200Y-53486000D02*
X29490000Y-53109200D01*
%TO.N,/LF_XL1*%
X30404200Y-73046300D02*
X30404200Y-72099700D01*
X27225000Y-73216500D02*
X28131900Y-74123400D01*
X31250000Y-73000000D02*
X31961700Y-73000000D01*
X32030000Y-73068300D02*
X31961700Y-73000000D01*
X30615600Y-71888300D02*
X31250000Y-71888300D01*
X35382800Y-77544500D02*
X35200000Y-77361700D01*
X27225000Y-71000000D02*
X27225000Y-73216500D01*
X31250000Y-73000000D02*
X31250000Y-71888300D01*
X35200000Y-76850000D02*
X35200000Y-77361700D01*
X30404200Y-72099700D02*
X30615600Y-71888300D01*
X29327100Y-74123400D02*
X30404200Y-73046300D01*
X32129600Y-73068300D02*
X32030000Y-73068300D01*
X28131900Y-74123400D02*
X29327100Y-74123400D01*
%TO.N,/CHARGER_TMR*%
X16175000Y-18860100D02*
X16175000Y-18000000D01*
X16250000Y-12600000D02*
X16250000Y-11923300D01*
%TO.N,/SENSOR_LED_P*%
X39401700Y-56739200D02*
X38825000Y-56162500D01*
X38825000Y-56162500D02*
X38825000Y-56000000D01*
%TO.N,/CHARGER_ISET*%
D35*
X12661200Y-12919800D02*
X14930200Y-12919800D01*
X14930200Y-12919800D02*
X15250000Y-12600000D01*
D34*
X10175000Y-15406000D02*
X10175000Y-18000000D01*
X12661200Y-12919800D02*
X10175000Y-15406000D01*
%TO.N,/CC2*%
X38193500Y-8134100D02*
X38193500Y-8981500D01*
X38193500Y-8981500D02*
X38175000Y-9000000D01*
X30167400Y-8664300D02*
X30250000Y-8581700D01*
X30250000Y-7645000D02*
X30250000Y-8581700D01*
X30167400Y-8760000D02*
X30167400Y-8664300D01*
%TO.N,/BATTERY*%
X6074400Y-49925600D02*
X6000000Y-50000000D01*
X14600000Y-14250000D02*
X14600000Y-13750000D01*
X13603000Y-14735300D02*
X13603000Y-14736900D01*
X14088300Y-14250000D02*
X13603000Y-14735300D01*
X6074400Y-35254600D02*
X6074400Y-49925600D01*
X6417200Y-50417200D02*
X6417200Y-68757800D01*
X10050000Y-13125900D02*
X10050000Y-12000000D01*
X4632800Y-33813000D02*
X6074400Y-35254600D01*
X10050000Y-13125900D02*
X4632800Y-18543100D01*
X6000000Y-50000000D02*
X6417200Y-50417200D01*
X6417200Y-68757800D02*
X5175000Y-70000000D01*
X14600000Y-14250000D02*
X14088300Y-14250000D01*
X4632800Y-18543100D02*
X4632800Y-33813000D01*
%TO.N,/BATTERY_ADC*%
X8824600Y-70649600D02*
X8175000Y-70000000D01*
X8175000Y-70000000D02*
X6825000Y-70000000D01*
X10509300Y-69284300D02*
X8890700Y-69284300D01*
X34936200Y-75413800D02*
X34011700Y-76338300D01*
X8890700Y-69284300D02*
X8175000Y-70000000D01*
X11225000Y-70000000D02*
X10509300Y-69284300D01*
X33600000Y-76850000D02*
X33600000Y-76338300D01*
X34011700Y-76338300D02*
X33600000Y-76338300D01*
X34936200Y-74370800D02*
X34936200Y-75413800D01*
%TO.N,/SYSTEM_ON*%
X7580600Y-55701100D02*
X7580600Y-57898300D01*
X12148900Y-60050000D02*
X12764600Y-60665700D01*
X10225000Y-64000000D02*
X10225000Y-63587500D01*
X7580600Y-57898300D02*
X11747400Y-62065100D01*
X11747400Y-62065100D02*
X11862500Y-61950000D01*
X11862500Y-60050000D02*
X12148900Y-60050000D01*
X10225000Y-63587500D02*
X11747400Y-62065100D01*
X12764600Y-60665700D02*
X12764600Y-61510800D01*
X7750000Y-54570000D02*
X7750000Y-55531700D01*
X7750000Y-55531700D02*
X7580600Y-55701100D01*
D35*
X12764600Y-61510800D02*
X12301700Y-61510800D01*
X12301700Y-61510800D02*
X11862500Y-61950000D01*
%TO.N,/SWDIO*%
D34*
X27350000Y-85850000D02*
X26838300Y-85850000D01*
X26672800Y-85684500D02*
X26672800Y-85582300D01*
X26838300Y-85850000D02*
X26672800Y-85684500D01*
%TO.N,/SWDCLK*%
X26838300Y-86547800D02*
X26668900Y-86378400D01*
X27350000Y-86650000D02*
X26838300Y-86650000D01*
X26838300Y-86650000D02*
X26838300Y-86547800D01*
%TO.N,/MCU_RESET*%
X28250000Y-80650000D02*
X28761700Y-80650000D01*
X15900500Y-82100000D02*
X13150000Y-82100000D01*
X28910700Y-80650000D02*
X28964000Y-80703300D01*
X6850000Y-82987700D02*
X6850000Y-82100000D01*
X15925000Y-82100000D02*
X15900500Y-82100000D01*
X28761700Y-80650000D02*
X28910700Y-80650000D01*
X17825000Y-84000000D02*
X15925000Y-82100000D01*
%TO.N,/BATTERY_NTC*%
D35*
X7564000Y-20774300D02*
X7564000Y-21819000D01*
D34*
X8525800Y-20774300D02*
X7564000Y-20774300D01*
X10000000Y-50000000D02*
X10811700Y-50000000D01*
D35*
X11129500Y-45267000D02*
X11129500Y-45701000D01*
D34*
X9410700Y-44478300D02*
X10439800Y-44478300D01*
X5087500Y-24295500D02*
X4929500Y-24453500D01*
D35*
X14600000Y-13250000D02*
X14109600Y-13250000D01*
D34*
X5349500Y-31992500D02*
X8859800Y-35502800D01*
X10978200Y-18321900D02*
X8525800Y-20774300D01*
X8859800Y-35502800D02*
X8859800Y-43927400D01*
X11129500Y-45168000D02*
X11129500Y-45267000D01*
X13915900Y-13419800D02*
X10978200Y-16357500D01*
X11129500Y-45701000D02*
X11129500Y-49682200D01*
X10978200Y-16357500D02*
X10978200Y-18321900D01*
D35*
X13939800Y-13419800D02*
X14109600Y-13250000D01*
X13915900Y-13419800D02*
X13939800Y-13419800D01*
D34*
X8859800Y-43927400D02*
X9410700Y-44478300D01*
X10439800Y-44478300D02*
X11129500Y-45168000D01*
X4929500Y-24453500D02*
X4929500Y-31572500D01*
X4929500Y-31572500D02*
X5077000Y-31720000D01*
D35*
X7564000Y-21819000D02*
X5087500Y-24295500D01*
X5077000Y-31720000D02*
X5349500Y-31992500D01*
D34*
X11129500Y-49682200D02*
X10811700Y-50000000D01*
%TO.N,/POWER_GOOD*%
D35*
X7060200Y-26274500D02*
X8638300Y-24696400D01*
D34*
X7061700Y-28540000D02*
X7061700Y-27825000D01*
X8638300Y-24696400D02*
X9825000Y-23509700D01*
X6000000Y-28540000D02*
X7061700Y-28540000D01*
X9825000Y-23509700D02*
X9825000Y-22861100D01*
X9825000Y-22861100D02*
X9825000Y-22000000D01*
X7061700Y-27825000D02*
X7060200Y-27823500D01*
D35*
X7060200Y-27823500D02*
X7060200Y-26274500D01*
D34*
X16250000Y-15400000D02*
X16250000Y-16098900D01*
%TO.N,/CHARGING*%
X17400000Y-14750000D02*
X17911700Y-14750000D01*
X17911700Y-15191500D02*
X17911700Y-14750000D01*
X12825000Y-22000000D02*
X12825000Y-23326000D01*
X12592100Y-20271900D02*
X12592100Y-21767100D01*
X6132700Y-30018300D02*
X6000000Y-30018300D01*
X6000000Y-31080000D02*
X6000000Y-30018300D01*
X12592100Y-21767100D02*
X12825000Y-22000000D01*
X12825000Y-23326000D02*
X6132700Y-30018300D01*
%TO.N,/SYSTEM*%
X4750000Y-53609800D02*
X4750000Y-53608300D01*
X17400000Y-14250000D02*
X17911700Y-14250000D01*
X4750000Y-53682900D02*
X4750000Y-53609800D01*
X18661700Y-15000000D02*
X17911700Y-14250000D01*
X21050000Y-15000000D02*
X18661700Y-15000000D01*
X4688000Y-53437100D02*
X4688000Y-53546300D01*
X17660500Y-13750000D02*
X17911700Y-14001200D01*
X4688000Y-53546300D02*
X4750000Y-53608300D01*
X4750000Y-54570000D02*
X4750000Y-53682900D01*
X17911700Y-14001200D02*
X17911700Y-14250000D01*
X17400000Y-13750000D02*
X17660500Y-13750000D01*
%TO.N,/CHARGER_ILIM*%
D35*
X17400000Y-13250000D02*
X17890400Y-13250000D01*
D34*
X14448900Y-16540000D02*
X14448900Y-16726100D01*
X14448900Y-16726100D02*
X13175000Y-18000000D01*
D35*
X18088200Y-13419800D02*
X18060200Y-13419800D01*
X18060200Y-13419800D02*
X17890400Y-13250000D01*
%TO.N,/SENSOR_VDDREG*%
D34*
X30540000Y-38650000D02*
X27225000Y-35335000D01*
X24952900Y-35727900D02*
X24225000Y-35000000D01*
X26497100Y-35727900D02*
X24952900Y-35727900D01*
X27225000Y-35000000D02*
X26497100Y-35727900D01*
X27225000Y-35335000D02*
X27225000Y-35000000D01*
%TO.N,/SENSOR_IRQ*%
X30800000Y-78419500D02*
X30792400Y-78427100D01*
X30800000Y-77750000D02*
X30800000Y-78419500D01*
%TO.N,/SPI_SCLK*%
X28250000Y-77944400D02*
X27702500Y-77396900D01*
X26936100Y-77396900D02*
X26620900Y-77081700D01*
X28250000Y-79050000D02*
X28250000Y-77944400D01*
X27702500Y-77396900D02*
X26936100Y-77396900D01*
X26620900Y-77081700D02*
X26620900Y-71741800D01*
%TO.N,/SPI_MOSI*%
X24175200Y-59100700D02*
X26392800Y-56883100D01*
X26022000Y-79450000D02*
X24175200Y-77603200D01*
X27350000Y-79450000D02*
X26022000Y-79450000D01*
X24175200Y-77603200D02*
X24175200Y-59100700D01*
%TO.N,/SENSOR_NCS*%
X28761700Y-77965300D02*
X28838400Y-77888600D01*
X28250000Y-79850000D02*
X28761700Y-79850000D01*
X28761700Y-79850000D02*
X28761700Y-77965300D01*
%TO.N,/SENSOR_RESET*%
X26838300Y-81050000D02*
X26710400Y-81050000D01*
X26710400Y-81050000D02*
X23581800Y-77921400D01*
X23581800Y-77921400D02*
X23581800Y-58197800D01*
X27350000Y-81050000D02*
X26838300Y-81050000D01*
X23581800Y-58197800D02*
X28115900Y-53663700D01*
%TO.N,/BUTTON_FORWARD*%
X20585500Y-77997200D02*
X26838300Y-84250000D01*
X16742000Y-58755700D02*
X20585500Y-62599200D01*
X27350000Y-84250000D02*
X26838300Y-84250000D01*
X20585500Y-62599200D02*
X20585500Y-77997200D01*
X16742000Y-48996900D02*
X16742000Y-58755700D01*
%TO.N,/BUTTON_BACK*%
X17000000Y-38778600D02*
X17000000Y-45483400D01*
X20882200Y-77493900D02*
X26838300Y-83450000D01*
X17000000Y-45483400D02*
X18000000Y-46483400D01*
X27350000Y-83450000D02*
X26838300Y-83450000D01*
X18000000Y-46483400D02*
X18000000Y-53109000D01*
X20882200Y-55991200D02*
X20882200Y-77493900D01*
X18000000Y-53109000D02*
X20882200Y-55991200D01*
%TO.N,/CC1*%
X33250000Y-8881000D02*
X33391200Y-9022200D01*
X24175000Y-8146000D02*
X24175000Y-9000000D01*
X33250000Y-7645000D02*
X33250000Y-8881000D01*
%TO.N,/PAIR*%
X13150000Y-76100000D02*
X6850000Y-76100000D01*
X36000000Y-76338300D02*
X36000000Y-76155300D01*
X13150000Y-76100000D02*
X14211700Y-76100000D01*
X14386100Y-75925600D02*
X14211700Y-76100000D01*
X36000000Y-76850000D02*
X36000000Y-76338300D01*
%TO.N,/BUTTON_MIDDLE*%
X21475600Y-28407400D02*
X21475600Y-76976800D01*
X21475600Y-76976800D02*
X25964100Y-81465300D01*
X28250000Y-83050000D02*
X28761700Y-83050000D01*
X28949300Y-82862400D02*
X28761700Y-83050000D01*
%TO.N,/ENCODER_A*%
X27000000Y-12000000D02*
X27000000Y-13061700D01*
X22365700Y-34647800D02*
X22365700Y-70679100D01*
X28761700Y-84650000D02*
X29499700Y-83912000D01*
X28250000Y-84650000D02*
X28761700Y-84650000D01*
X28061700Y-13990600D02*
X28061700Y-28951800D01*
X23063200Y-71376600D02*
X23063200Y-72944800D01*
X22365700Y-70679100D02*
X23063200Y-71376600D01*
X27000000Y-13061700D02*
X27132800Y-13061700D01*
X30044900Y-81973200D02*
X30044900Y-78889200D01*
X29499700Y-83912000D02*
X29499700Y-82518400D01*
X29499700Y-82518400D02*
X30044900Y-81973200D01*
X28061700Y-28951800D02*
X22365700Y-34647800D01*
X27132800Y-13061700D02*
X28061700Y-13990600D01*
%TO.N,/ENCODER_B*%
X22010800Y-23130900D02*
X22010800Y-34163400D01*
X34000000Y-78261700D02*
X33789500Y-78472200D01*
X21772300Y-34401900D02*
X21772300Y-72488500D01*
X21772300Y-72488500D02*
X21951200Y-72667400D01*
X34000000Y-77750000D02*
X34000000Y-78261700D01*
X27000000Y-18141700D02*
X22010800Y-23130900D01*
X27000000Y-17080000D02*
X27000000Y-18141700D01*
X22010800Y-34163400D02*
X21772300Y-34401900D01*
%TO.N,/BUTTON_RIGHT*%
X23018200Y-33575600D02*
X23018200Y-30825700D01*
X26703400Y-81508800D02*
X22592500Y-77397900D01*
X27508800Y-81508800D02*
X26703400Y-81508800D01*
X22592500Y-71325600D02*
X22069000Y-70802100D01*
X22069000Y-34524800D02*
X23018200Y-33575600D01*
X22069000Y-70802100D02*
X22069000Y-34524800D01*
X22592500Y-77397900D02*
X22592500Y-71325600D01*
X28250000Y-82250000D02*
X27508800Y-81508800D01*
%TO.N,/USB_DP*%
X31250000Y-7645000D02*
X31250000Y-9750000D01*
X25500000Y-69000000D02*
X24500000Y-70000000D01*
X31250000Y-9750000D02*
X31050000Y-10362500D01*
X52000000Y-35450000D02*
X52000000Y-67000000D01*
X32250000Y-7645000D02*
X32250000Y-8600000D01*
X31050000Y-10362500D02*
X31050000Y-12637500D01*
X52000000Y-67000000D02*
X50000000Y-69000000D01*
X31050000Y-14500000D02*
X52000000Y-35450000D01*
X31050000Y-12637500D02*
X31050000Y-14500000D01*
X24500000Y-77500000D02*
X25650000Y-78650000D01*
X24500000Y-70000000D02*
X24500000Y-77500000D01*
X25650000Y-78650000D02*
X27350000Y-78650000D01*
X50000000Y-69000000D02*
X25500000Y-69000000D01*
%TO.N,/USB_DM*%
X24820000Y-70132000D02*
X24820000Y-77368000D01*
X25632000Y-69320000D02*
X24820000Y-70132000D01*
X52320000Y-35318000D02*
X52320000Y-67132000D01*
X32950000Y-12637500D02*
X32950000Y-15948000D01*
X24820000Y-77368000D02*
X25302000Y-77850000D01*
X50132000Y-69320000D02*
X25632000Y-69320000D01*
X32950000Y-10362500D02*
X32950000Y-12637500D01*
X25302000Y-77850000D02*
X27350000Y-77850000D01*
X32750000Y-7645000D02*
X32750000Y-9750000D01*
X32950000Y-15948000D02*
X52320000Y-35318000D01*
X32750000Y-9750000D02*
X32950000Y-10362500D01*
X52320000Y-67132000D02*
X50132000Y-69320000D01*
X31750000Y-7645000D02*
X31750000Y-9120000D01*
%TO.N,/BUTTON_LEFT*%
X21178900Y-77333000D02*
X26495900Y-82650000D01*
X18000000Y-25000000D02*
X18000000Y-26061700D01*
X26495900Y-82650000D02*
X26838300Y-82650000D01*
X18000000Y-26061700D02*
X18025500Y-26061700D01*
X21178900Y-29215100D02*
X21178900Y-77333000D01*
X18025500Y-26061700D02*
X21178900Y-29215100D01*
X27350000Y-82650000D02*
X26838300Y-82650000D01*
%TD*%
M02*
