%TF.GenerationSoftware,KiCad,Pcbnew,10.0.6*%
%TF.CreationDate,2026-10-08T23:49:12+13:00*%
%TF.ProjectId,mouse,6d6f7573-652e-46b6-9963-61645f706362,rev?*%
%TF.SameCoordinates,Original*%
%TF.FileFunction,Legend,Bot*%
%TF.FilePolarity,Positive*%
%FSLAX46Y46*%
G04 Gerber Fmt 4.6, Leading zero omitted, Abs format (unit mm)*
G04 Created by KiCad (PCBNEW 10.0.6) date 2026-10-08 23:49:12*
%MOMM*%
%LPD*%
G01*
G04 APERTURE LIST*
G04 Aperture macros list*
%AMRoundRect*
0 Rectangle with rounded corners*
0 $1 Rounding radius*
0 $2 $3 $4 $5 $6 $7 $8 $9 X,Y pos of 4 corners*
0 Add a 4 corners polygon primitive as box body*
4,1,4,$2,$3,$4,$5,$6,$7,$8,$9,$2,$3,0*
0 Add four circle primitives for the rounded corners*
1,1,$1+$1,$2,$3*
1,1,$1+$1,$4,$5*
1,1,$1+$1,$6,$7*
1,1,$1+$1,$8,$9*
0 Add four rect primitives between the rounded corners*
20,1,$1+$1,$2,$3,$4,$5,0*
20,1,$1+$1,$4,$5,$6,$7,0*
20,1,$1+$1,$6,$7,$8,$9,0*
20,1,$1+$1,$8,$9,$2,$3,0*%
G04 Aperture macros list end*
%ADD10R,1.700000X1.700000*%
%ADD11O,1.700000X1.700000*%
%ADD12C,1.300000*%
%ADD13RoundRect,0.250000X-0.350000X-0.625000X0.350000X-0.625000X0.350000X0.625000X-0.350000X0.625000X0*%
%ADD14O,1.200000X1.750000*%
%ADD15C,0.650000*%
%ADD16O,1.000000X2.100000*%
%ADD17O,1.000000X1.600000*%
%ADD18C,0.900000*%
G04 APERTURE END LIST*
%LPC*%
D10*
%TO.C,J2*%
X57000000Y-67000000D03*
D11*
X57000000Y-69540000D03*
X57000000Y-72080000D03*
X57000000Y-74620000D03*
X57000000Y-77160000D03*
%TD*%
D12*
%TO.C,U4*%
X37660000Y-38650000D03*
X35880000Y-38650000D03*
X34100000Y-38650000D03*
X32320000Y-38650000D03*
X30540000Y-38650000D03*
X28760000Y-38650000D03*
X26980000Y-38650000D03*
X25200000Y-38650000D03*
X24150000Y-49350000D03*
X25930000Y-49350000D03*
X27710000Y-49350000D03*
X29490000Y-49350000D03*
X31270000Y-49350000D03*
X33050000Y-49350000D03*
X34830000Y-49350000D03*
X36610000Y-49350000D03*
%TD*%
D10*
%TO.C,J9*%
X10000000Y-43000000D03*
D11*
X10000000Y-45540000D03*
%TD*%
D10*
%TO.C,J8*%
X5000000Y-37000000D03*
D11*
X5000000Y-39540000D03*
%TD*%
D13*
%TO.C,J3*%
X6000000Y-50000000D03*
D14*
X8000000Y-50000000D03*
X10000000Y-50000000D03*
%TD*%
D10*
%TO.C,J7*%
X34000000Y-22000000D03*
D11*
X34000000Y-24540000D03*
%TD*%
D10*
%TO.C,J10*%
X27000000Y-12000000D03*
D11*
X27000000Y-14540000D03*
X27000000Y-17080000D03*
%TD*%
D10*
%TO.C,J6*%
X45000000Y-23000000D03*
D11*
X45000000Y-25540000D03*
%TD*%
D15*
%TO.C,J1*%
X34890000Y-6200000D03*
X29110000Y-6200000D03*
D16*
X36320000Y-6730000D03*
D17*
X36320000Y-2550000D03*
D16*
X27680000Y-6730000D03*
D17*
X27680000Y-2550000D03*
%TD*%
D18*
%TO.C,SW3*%
X5500000Y-56330000D03*
X8500000Y-56330000D03*
%TD*%
D10*
%TO.C,J5*%
X18000000Y-25000000D03*
D11*
X18000000Y-27540000D03*
%TD*%
D10*
%TO.C,J4*%
X6000000Y-26000000D03*
D11*
X6000000Y-28540000D03*
X6000000Y-31080000D03*
%TD*%
%LPD*%
M02*
