%TF.GenerationSoftware,KiCad,Pcbnew,10.0.6*%
%TF.CreationDate,2026-10-08T23:49:12+13:00*%
%TF.ProjectId,mouse,6d6f7573-652e-46b6-9963-61645f706362,rev?*%
%TF.SameCoordinates,Original*%
%TF.FileFunction,Copper,L2,Inr*%
%TF.FilePolarity,Positive*%
%FSLAX46Y46*%
G04 Gerber Fmt 4.6, Leading zero omitted, Abs format (unit mm)*
G04 Created by KiCad (PCBNEW 10.0.6) date 2026-10-08 23:49:12*
%MOMM*%
%LPD*%
G01*
G04 APERTURE LIST*
G04 Aperture macros list*
%AMRoundRect*
0 Rectangle with rounded corners*
0 $1 Rounding radius*
0 $2 $3 $4 $5 $6 $7 $8 $9 X,Y pos of 4 corners*
0 Add a 4 corners polygon primitive as box body*
4,1,4,$2,$3,$4,$5,$6,$7,$8,$9,$2,$3,0*
0 Add four circle primitives for the rounded corners*
1,1,$1+$1,$2,$3*
1,1,$1+$1,$4,$5*
1,1,$1+$1,$6,$7*
1,1,$1+$1,$8,$9*
0 Add four rect primitives between the rounded corners*
20,1,$1+$1,$2,$3,$4,$5,0*
20,1,$1+$1,$4,$5,$6,$7,0*
20,1,$1+$1,$6,$7,$8,$9,0*
20,1,$1+$1,$8,$9,$2,$3,0*%
G04 Aperture macros list end*
%TA.AperFunction,ComponentPad*%
%ADD10R,1.700000X1.700000*%
%TD*%
%TA.AperFunction,ComponentPad*%
%ADD11O,1.700000X1.700000*%
%TD*%
%TA.AperFunction,ComponentPad*%
%ADD12C,1.300000*%
%TD*%
%TA.AperFunction,ComponentPad*%
%ADD13RoundRect,0.250000X-0.350000X-0.625000X0.350000X-0.625000X0.350000X0.625000X-0.350000X0.625000X0*%
%TD*%
%TA.AperFunction,ComponentPad*%
%ADD14O,1.200000X1.750000*%
%TD*%
%TA.AperFunction,ComponentPad*%
%ADD15O,1.000000X2.100000*%
%TD*%
%TA.AperFunction,ComponentPad*%
%ADD16O,1.000000X1.600000*%
%TD*%
%TA.AperFunction,ViaPad*%
%ADD17C,0.500000*%
%TD*%
G04 APERTURE END LIST*
D10*
%TO.N,/VDD_3V0*%
%TO.C,J2*%
X57000000Y-67000000D03*
D11*
%TO.N,/SWDIO*%
X57000000Y-69540000D03*
%TO.N,/SWDCLK*%
X57000000Y-72080000D03*
%TO.N,/GND*%
X57000000Y-74620000D03*
%TO.N,/MCU_RESET*%
X57000000Y-77160000D03*
%TD*%
D12*
%TO.N,unconnected-(U4-NC-Pad1)*%
%TO.C,U4*%
X37660000Y-38650000D03*
%TO.N,unconnected-(U4-NC-Pad2)*%
X35880000Y-38650000D03*
%TO.N,/GND*%
X34100000Y-38650000D03*
%TO.N,/VDD_1V9*%
X32320000Y-38650000D03*
%TO.N,/SENSOR_VDDREG*%
X30540000Y-38650000D03*
%TO.N,unconnected-(U4-NC-Pad6)*%
X28760000Y-38650000D03*
%TO.N,/VDD_3V0*%
X26980000Y-38650000D03*
%TO.N,/GND*%
X25200000Y-38650000D03*
%TO.N,/SENSOR_IRQ*%
X24150000Y-49350000D03*
%TO.N,/SPI_SCLK*%
X25930000Y-49350000D03*
%TO.N,/SPI_MOSI*%
X27710000Y-49350000D03*
%TO.N,/SPI_MISO*%
X29490000Y-49350000D03*
%TO.N,/SENSOR_NCS*%
X31270000Y-49350000D03*
%TO.N,/SENSOR_RESET*%
X33050000Y-49350000D03*
%TO.N,/SENSOR_LED_P*%
X34830000Y-49350000D03*
%TO.N,unconnected-(U4-NC-Pad16)*%
X36610000Y-49350000D03*
%TD*%
D10*
%TO.N,/BUTTON_FORWARD*%
%TO.C,J9*%
X10000000Y-43000000D03*
D11*
%TO.N,/GND*%
X10000000Y-45540000D03*
%TD*%
D10*
%TO.N,/BUTTON_BACK*%
%TO.C,J8*%
X5000000Y-37000000D03*
D11*
%TO.N,/GND*%
X5000000Y-39540000D03*
%TD*%
D13*
%TO.N,/BATTERY*%
%TO.C,J3*%
X6000000Y-50000000D03*
D14*
%TO.N,/GND*%
X8000000Y-50000000D03*
%TO.N,/BATTERY_NTC*%
X10000000Y-50000000D03*
%TD*%
D10*
%TO.N,/BUTTON_MIDDLE*%
%TO.C,J7*%
X34000000Y-22000000D03*
D11*
%TO.N,/GND*%
X34000000Y-24540000D03*
%TD*%
D10*
%TO.N,/ENCODER_A*%
%TO.C,J10*%
X27000000Y-12000000D03*
D11*
%TO.N,/GND*%
X27000000Y-14540000D03*
%TO.N,/ENCODER_B*%
X27000000Y-17080000D03*
%TD*%
D10*
%TO.N,/BUTTON_RIGHT*%
%TO.C,J6*%
X45000000Y-23000000D03*
D11*
%TO.N,/GND*%
X45000000Y-25540000D03*
%TD*%
D15*
%TO.N,/GND*%
%TO.C,J1*%
X36320000Y-6730000D03*
D16*
X36320000Y-2550000D03*
D15*
X27680000Y-6730000D03*
D16*
X27680000Y-2550000D03*
%TD*%
D10*
%TO.N,/BUTTON_LEFT*%
%TO.C,J5*%
X18000000Y-25000000D03*
D11*
%TO.N,/GND*%
X18000000Y-27540000D03*
%TD*%
D10*
%TO.N,/GND*%
%TO.C,J4*%
X6000000Y-26000000D03*
D11*
%TO.N,/POWER_GOOD*%
X6000000Y-28540000D03*
%TO.N,/CHARGING*%
X6000000Y-31080000D03*
%TD*%
D17*
%TO.N,/USB_VBUS*%
X28011900Y-76170300D03*
X22833200Y-70482200D03*
X29550000Y-9041800D03*
X34274600Y-9052700D03*
X32401800Y-11373000D03*
%TO.N,/GND*%
X16000000Y-14000000D03*
X62500000Y-1500000D03*
X15420000Y-14580000D03*
X12088300Y-82968000D03*
X62500000Y-92500000D03*
X35960900Y-86451300D03*
X26486000Y-34289000D03*
X1500000Y-92500000D03*
X62500000Y-47000000D03*
X16579999Y-13420000D03*
X31599300Y-13845500D03*
X27385100Y-75954800D03*
X1500000Y-1500000D03*
X29454600Y-71757900D03*
X35716500Y-72984000D03*
X15420000Y-13420000D03*
X26661800Y-87417000D03*
X1500000Y-47000000D03*
%TO.N,/VDD_3V0*%
X16835200Y-84660200D03*
X16050000Y-37952800D03*
X29578900Y-81028200D03*
X46225000Y-49887300D03*
X49175000Y-42863100D03*
%TO.N,/VDD_1V9*%
X43241700Y-44808300D03*
%TO.N,/LF_XL2*%
X30544400Y-70321600D03*
X34455400Y-78676300D03*
%TO.N,/SPI_MISO*%
X29113200Y-53486000D03*
X50823400Y-42870500D03*
%TO.N,/LF_XL1*%
X35382800Y-77544500D03*
X32129600Y-73068300D03*
%TO.N,/CHARGER_TMR*%
X16175000Y-18860100D03*
X16250000Y-11923300D03*
%TO.N,/SENSOR_LED_P*%
X39401700Y-56739200D03*
%TO.N,/CC2*%
X30167400Y-8760000D03*
X38193500Y-8134100D03*
%TO.N,/BATTERY*%
X13603000Y-14736900D03*
X10050000Y-13125900D03*
%TO.N,/BATTERY_ADC*%
X8824600Y-70649600D03*
X34936200Y-74370800D03*
%TO.N,/SWDIO*%
X26672800Y-85582300D03*
%TO.N,/SWDCLK*%
X26668900Y-86378400D03*
%TO.N,/MCU_RESET*%
X6850000Y-82987700D03*
X28964000Y-80703300D03*
X15900500Y-82100000D03*
%TO.N,/POWER_GOOD*%
X9825000Y-22861100D03*
X16250000Y-16098900D03*
%TO.N,/CHARGING*%
X12592100Y-20271900D03*
X17911700Y-15191500D03*
%TO.N,/SYSTEM*%
X4688000Y-53437100D03*
X18661700Y-15000000D03*
%TO.N,/CHARGER_ILIM*%
X18088200Y-13419800D03*
X14448900Y-16540000D03*
%TO.N,/SENSOR_IRQ*%
X30792400Y-78427100D03*
%TO.N,/SPI_SCLK*%
X26620900Y-71741800D03*
%TO.N,/SPI_MOSI*%
X26392800Y-56883100D03*
%TO.N,/SENSOR_NCS*%
X28838400Y-77888600D03*
%TO.N,/SENSOR_RESET*%
X28115900Y-53663700D03*
%TO.N,/BUTTON_FORWARD*%
X16742000Y-48996900D03*
%TO.N,/BUTTON_BACK*%
X17000000Y-38778600D03*
%TO.N,/CC1*%
X33391200Y-9022200D03*
X24175000Y-8146000D03*
%TO.N,/PAIR*%
X14386100Y-75925600D03*
X36000000Y-76155300D03*
%TO.N,/BUTTON_MIDDLE*%
X21475600Y-28407400D03*
X25964100Y-81465300D03*
X28949300Y-82862400D03*
%TO.N,/ENCODER_A*%
X30044900Y-78889200D03*
X23063200Y-72944800D03*
%TO.N,/ENCODER_B*%
X33789500Y-78472200D03*
X21951200Y-72667400D03*
%TO.N,/BUTTON_RIGHT*%
X23018200Y-30825700D03*
%TO.N,/USB_DP*%
X32250000Y-8600000D03*
X31250000Y-8600000D03*
%TO.N,/USB_DM*%
X32750000Y-9120000D03*
X31750000Y-9120000D03*
%TD*%
%TA.AperFunction,Conductor*%
%TO.N,/GND*%
G36*
X63731487Y-268513D02*
G01*
X63749500Y-312000D01*
X63749500Y-93688000D01*
X63731487Y-93731487D01*
X63688000Y-93749500D01*
X312000Y-93749500D01*
X268513Y-93731487D01*
X250500Y-93688000D01*
X250500Y-93000000D01*
X25000000Y-93000000D01*
X39000000Y-93000000D01*
X39000000Y-89874034D01*
X58899500Y-89874034D01*
X58899500Y-90125965D01*
X58938910Y-90374787D01*
X59016759Y-90614380D01*
X59067553Y-90714068D01*
X59131130Y-90838845D01*
X59279207Y-91042656D01*
X59457344Y-91220793D01*
X59661155Y-91368870D01*
X59885621Y-91483241D01*
X60125212Y-91561089D01*
X60125215Y-91561090D01*
X60374038Y-91600500D01*
X60374042Y-91600500D01*
X60625958Y-91600500D01*
X60625962Y-91600500D01*
X60874785Y-91561090D01*
X61114379Y-91483241D01*
X61338845Y-91368870D01*
X61542656Y-91220793D01*
X61720793Y-91042656D01*
X61868870Y-90838845D01*
X61983241Y-90614379D01*
X62061090Y-90374785D01*
X62100500Y-90125962D01*
X62100500Y-89874038D01*
X62061090Y-89625215D01*
X61983241Y-89385621D01*
X61868870Y-89161155D01*
X61720793Y-88957344D01*
X61542656Y-88779207D01*
X61338845Y-88631130D01*
X61330753Y-88627007D01*
X61114380Y-88516759D01*
X60874786Y-88438910D01*
X60874788Y-88438910D01*
X60625965Y-88399500D01*
X60625962Y-88399500D01*
X60374038Y-88399500D01*
X60374034Y-88399500D01*
X60125212Y-88438910D01*
X59885619Y-88516759D01*
X59661156Y-88631129D01*
X59457341Y-88779209D01*
X59279209Y-88957341D01*
X59131129Y-89161156D01*
X59016759Y-89385619D01*
X58938910Y-89625212D01*
X58899500Y-89874034D01*
X39000000Y-89874034D01*
X39000000Y-87950000D01*
X25000000Y-87950000D01*
X25000000Y-93000000D01*
X250500Y-93000000D01*
X250500Y-89874034D01*
X1899500Y-89874034D01*
X1899500Y-90125965D01*
X1938910Y-90374787D01*
X2016759Y-90614380D01*
X2067553Y-90714068D01*
X2131130Y-90838845D01*
X2279207Y-91042656D01*
X2457344Y-91220793D01*
X2661155Y-91368870D01*
X2885621Y-91483241D01*
X3125212Y-91561089D01*
X3125215Y-91561090D01*
X3374038Y-91600500D01*
X3374042Y-91600500D01*
X3625958Y-91600500D01*
X3625962Y-91600500D01*
X3874785Y-91561090D01*
X4114379Y-91483241D01*
X4338845Y-91368870D01*
X4542656Y-91220793D01*
X4720793Y-91042656D01*
X4868870Y-90838845D01*
X4983241Y-90614379D01*
X5061090Y-90374785D01*
X5100500Y-90125962D01*
X5100500Y-89874038D01*
X5061090Y-89625215D01*
X4983241Y-89385621D01*
X4868870Y-89161155D01*
X4720793Y-88957344D01*
X4542656Y-88779207D01*
X4338845Y-88631130D01*
X4330753Y-88627007D01*
X4114380Y-88516759D01*
X3874786Y-88438910D01*
X3874788Y-88438910D01*
X3625965Y-88399500D01*
X3625962Y-88399500D01*
X3374038Y-88399500D01*
X3374034Y-88399500D01*
X3125212Y-88438910D01*
X2885619Y-88516759D01*
X2661156Y-88631129D01*
X2457341Y-88779209D01*
X2279209Y-88957341D01*
X2131129Y-89161156D01*
X2016759Y-89385619D01*
X1938910Y-89625212D01*
X1899500Y-89874034D01*
X250500Y-89874034D01*
X250500Y-86319088D01*
X26218400Y-86319088D01*
X26218400Y-86437711D01*
X26249099Y-86552281D01*
X26249103Y-86552291D01*
X26308406Y-86655006D01*
X26308409Y-86655010D01*
X26308411Y-86655013D01*
X26392287Y-86738889D01*
X26392290Y-86738891D01*
X26392293Y-86738893D01*
X26495008Y-86798196D01*
X26495010Y-86798197D01*
X26495014Y-86798199D01*
X26495018Y-86798200D01*
X26609589Y-86828900D01*
X26609591Y-86828900D01*
X26728210Y-86828900D01*
X26778726Y-86815363D01*
X26842786Y-86798199D01*
X26945513Y-86738889D01*
X27029389Y-86655013D01*
X27088699Y-86552286D01*
X27100611Y-86507827D01*
X27119400Y-86437711D01*
X27119400Y-86319088D01*
X27088700Y-86204518D01*
X27088699Y-86204514D01*
X27088696Y-86204508D01*
X27029393Y-86101793D01*
X27029391Y-86101790D01*
X27029389Y-86101787D01*
X26953389Y-86025787D01*
X26935376Y-85982300D01*
X26953389Y-85938813D01*
X26957289Y-85934913D01*
X27033289Y-85858913D01*
X27092599Y-85756186D01*
X27104511Y-85711727D01*
X27123300Y-85641611D01*
X27123300Y-85522988D01*
X27092600Y-85408418D01*
X27092599Y-85408414D01*
X27092596Y-85408408D01*
X27033293Y-85305693D01*
X27033291Y-85305690D01*
X27033289Y-85305687D01*
X26949413Y-85221811D01*
X26949410Y-85221809D01*
X26949406Y-85221806D01*
X26846691Y-85162503D01*
X26846681Y-85162499D01*
X26732111Y-85131800D01*
X26732109Y-85131800D01*
X26613491Y-85131800D01*
X26613489Y-85131800D01*
X26498918Y-85162499D01*
X26498908Y-85162503D01*
X26396193Y-85221806D01*
X26396183Y-85221814D01*
X26312314Y-85305683D01*
X26312306Y-85305693D01*
X26253003Y-85408408D01*
X26252999Y-85408418D01*
X26222300Y-85522988D01*
X26222300Y-85641611D01*
X26252999Y-85756181D01*
X26253003Y-85756191D01*
X26312306Y-85858906D01*
X26312309Y-85858910D01*
X26312311Y-85858913D01*
X26312314Y-85858916D01*
X26388311Y-85934913D01*
X26406324Y-85978400D01*
X26388311Y-86021887D01*
X26308414Y-86101783D01*
X26308406Y-86101793D01*
X26249103Y-86204508D01*
X26249099Y-86204518D01*
X26218400Y-86319088D01*
X250500Y-86319088D01*
X250500Y-84600888D01*
X16384700Y-84600888D01*
X16384700Y-84719511D01*
X16415399Y-84834081D01*
X16415403Y-84834091D01*
X16474706Y-84936806D01*
X16474709Y-84936810D01*
X16474711Y-84936813D01*
X16558587Y-85020689D01*
X16558590Y-85020691D01*
X16558593Y-85020693D01*
X16661308Y-85079996D01*
X16661310Y-85079997D01*
X16661314Y-85079999D01*
X16661318Y-85080000D01*
X16775889Y-85110700D01*
X16775891Y-85110700D01*
X16894510Y-85110700D01*
X16945026Y-85097163D01*
X17009086Y-85079999D01*
X17111813Y-85020689D01*
X17195689Y-84936813D01*
X17254999Y-84834086D01*
X17266911Y-84789627D01*
X17285700Y-84719511D01*
X17285700Y-84600888D01*
X17255000Y-84486318D01*
X17254999Y-84486314D01*
X17254996Y-84486308D01*
X17195693Y-84383593D01*
X17195691Y-84383590D01*
X17195689Y-84383587D01*
X17111813Y-84299711D01*
X17111810Y-84299709D01*
X17111806Y-84299706D01*
X17009091Y-84240403D01*
X17009081Y-84240399D01*
X16894511Y-84209700D01*
X16894509Y-84209700D01*
X16775891Y-84209700D01*
X16775889Y-84209700D01*
X16661318Y-84240399D01*
X16661308Y-84240403D01*
X16558593Y-84299706D01*
X16558583Y-84299714D01*
X16474714Y-84383583D01*
X16474706Y-84383593D01*
X16415403Y-84486308D01*
X16415399Y-84486318D01*
X16384700Y-84600888D01*
X250500Y-84600888D01*
X250500Y-82928388D01*
X6399500Y-82928388D01*
X6399500Y-83047011D01*
X6430199Y-83161581D01*
X6430203Y-83161591D01*
X6489506Y-83264306D01*
X6489509Y-83264310D01*
X6489511Y-83264313D01*
X6573387Y-83348189D01*
X6573390Y-83348191D01*
X6573393Y-83348193D01*
X6676108Y-83407496D01*
X6676110Y-83407497D01*
X6676114Y-83407499D01*
X6676118Y-83407500D01*
X6790689Y-83438200D01*
X6790691Y-83438200D01*
X6909310Y-83438200D01*
X6959826Y-83424663D01*
X7023886Y-83407499D01*
X7126613Y-83348189D01*
X7210489Y-83264313D01*
X7269799Y-83161586D01*
X7281711Y-83117127D01*
X7300500Y-83047011D01*
X7300500Y-82928388D01*
X7270111Y-82814978D01*
X7270111Y-82814977D01*
X7269992Y-82814536D01*
X7269799Y-82813814D01*
X7263608Y-82803091D01*
X7263606Y-82803088D01*
X28498800Y-82803088D01*
X28498800Y-82921711D01*
X28529499Y-83036281D01*
X28529503Y-83036291D01*
X28588806Y-83139006D01*
X28588809Y-83139010D01*
X28588811Y-83139013D01*
X28672687Y-83222889D01*
X28672690Y-83222891D01*
X28672693Y-83222893D01*
X28775408Y-83282196D01*
X28775410Y-83282197D01*
X28775414Y-83282199D01*
X28775418Y-83282200D01*
X28889989Y-83312900D01*
X28889991Y-83312900D01*
X29008610Y-83312900D01*
X29059126Y-83299363D01*
X29123186Y-83282199D01*
X29225913Y-83222889D01*
X29309789Y-83139013D01*
X29369099Y-83036286D01*
X29398010Y-82928391D01*
X29399800Y-82921711D01*
X29399800Y-82803088D01*
X29369100Y-82688518D01*
X29369099Y-82688514D01*
X29369096Y-82688508D01*
X29309793Y-82585793D01*
X29309791Y-82585790D01*
X29309789Y-82585787D01*
X29225913Y-82501911D01*
X29225910Y-82501909D01*
X29225906Y-82501906D01*
X29123191Y-82442603D01*
X29123181Y-82442599D01*
X29008611Y-82411900D01*
X29008609Y-82411900D01*
X28889991Y-82411900D01*
X28889989Y-82411900D01*
X28775418Y-82442599D01*
X28775408Y-82442603D01*
X28672693Y-82501906D01*
X28672683Y-82501914D01*
X28588814Y-82585783D01*
X28588806Y-82585793D01*
X28529503Y-82688508D01*
X28529499Y-82688518D01*
X28498800Y-82803088D01*
X7263606Y-82803088D01*
X7210493Y-82711093D01*
X7210491Y-82711090D01*
X7210489Y-82711087D01*
X7126613Y-82627211D01*
X7126610Y-82627209D01*
X7126606Y-82627206D01*
X7023891Y-82567903D01*
X7023881Y-82567899D01*
X6909311Y-82537200D01*
X6909309Y-82537200D01*
X6790691Y-82537200D01*
X6790689Y-82537200D01*
X6676118Y-82567899D01*
X6676108Y-82567903D01*
X6573393Y-82627206D01*
X6573383Y-82627214D01*
X6489514Y-82711083D01*
X6489506Y-82711093D01*
X6430203Y-82813808D01*
X6430199Y-82813818D01*
X6399500Y-82928388D01*
X250500Y-82928388D01*
X250500Y-82040688D01*
X15450000Y-82040688D01*
X15450000Y-82159311D01*
X15480699Y-82273881D01*
X15480703Y-82273891D01*
X15540006Y-82376606D01*
X15540009Y-82376610D01*
X15540011Y-82376613D01*
X15623887Y-82460489D01*
X15623890Y-82460491D01*
X15623893Y-82460493D01*
X15726608Y-82519796D01*
X15726610Y-82519797D01*
X15726614Y-82519799D01*
X15726618Y-82519800D01*
X15841189Y-82550500D01*
X15841191Y-82550500D01*
X15959810Y-82550500D01*
X16010326Y-82536963D01*
X16074386Y-82519799D01*
X16177113Y-82460489D01*
X16260989Y-82376613D01*
X16320299Y-82273886D01*
X16332211Y-82229427D01*
X16351000Y-82159311D01*
X16351000Y-82040688D01*
X16320300Y-81926118D01*
X16320299Y-81926114D01*
X16320296Y-81926108D01*
X16260993Y-81823393D01*
X16260991Y-81823390D01*
X16260989Y-81823387D01*
X16177113Y-81739511D01*
X16177110Y-81739509D01*
X16177106Y-81739506D01*
X16074391Y-81680203D01*
X16074381Y-81680199D01*
X15959811Y-81649500D01*
X15959809Y-81649500D01*
X15841191Y-81649500D01*
X15841189Y-81649500D01*
X15726618Y-81680199D01*
X15726608Y-81680203D01*
X15623893Y-81739506D01*
X15623883Y-81739514D01*
X15540014Y-81823383D01*
X15540006Y-81823393D01*
X15480703Y-81926108D01*
X15480699Y-81926118D01*
X15450000Y-82040688D01*
X250500Y-82040688D01*
X250500Y-81405988D01*
X25513600Y-81405988D01*
X25513600Y-81524611D01*
X25544299Y-81639181D01*
X25544303Y-81639191D01*
X25603606Y-81741906D01*
X25603609Y-81741910D01*
X25603611Y-81741913D01*
X25687487Y-81825789D01*
X25687490Y-81825791D01*
X25687493Y-81825793D01*
X25790208Y-81885096D01*
X25790210Y-81885097D01*
X25790214Y-81885099D01*
X25790218Y-81885100D01*
X25904789Y-81915800D01*
X25904791Y-81915800D01*
X26023410Y-81915800D01*
X26073926Y-81902263D01*
X26137986Y-81885099D01*
X26240713Y-81825789D01*
X26324589Y-81741913D01*
X26383899Y-81639186D01*
X26395811Y-81594727D01*
X26414600Y-81524611D01*
X26414600Y-81405988D01*
X26383900Y-81291418D01*
X26383899Y-81291414D01*
X26332328Y-81202091D01*
X26324593Y-81188693D01*
X26324591Y-81188690D01*
X26324589Y-81188687D01*
X26240713Y-81104811D01*
X26240710Y-81104809D01*
X26240706Y-81104806D01*
X26137991Y-81045503D01*
X26137981Y-81045499D01*
X26023411Y-81014800D01*
X26023409Y-81014800D01*
X25904791Y-81014800D01*
X25904789Y-81014800D01*
X25790218Y-81045499D01*
X25790208Y-81045503D01*
X25687493Y-81104806D01*
X25687483Y-81104814D01*
X25603614Y-81188683D01*
X25603606Y-81188693D01*
X25544303Y-81291408D01*
X25544299Y-81291418D01*
X25513600Y-81405988D01*
X250500Y-81405988D01*
X250500Y-80643988D01*
X28513500Y-80643988D01*
X28513500Y-80762611D01*
X28544199Y-80877181D01*
X28544203Y-80877191D01*
X28603506Y-80979906D01*
X28603509Y-80979910D01*
X28603511Y-80979913D01*
X28687387Y-81063789D01*
X28687390Y-81063791D01*
X28687393Y-81063793D01*
X28790108Y-81123096D01*
X28790110Y-81123097D01*
X28790114Y-81123099D01*
X28790118Y-81123100D01*
X28904689Y-81153800D01*
X28904691Y-81153800D01*
X29023310Y-81153800D01*
X29078528Y-81139004D01*
X29125195Y-81145147D01*
X29153850Y-81182490D01*
X29159099Y-81202081D01*
X29159103Y-81202091D01*
X29218406Y-81304806D01*
X29218409Y-81304810D01*
X29218411Y-81304813D01*
X29302287Y-81388689D01*
X29302290Y-81388691D01*
X29302293Y-81388693D01*
X29405008Y-81447996D01*
X29405010Y-81447997D01*
X29405014Y-81447999D01*
X29405018Y-81448000D01*
X29519589Y-81478700D01*
X29519591Y-81478700D01*
X29638210Y-81478700D01*
X29688726Y-81465163D01*
X29752786Y-81447999D01*
X29855513Y-81388689D01*
X29939389Y-81304813D01*
X29998699Y-81202086D01*
X30015602Y-81139004D01*
X30029400Y-81087511D01*
X30029400Y-80968888D01*
X29998700Y-80854318D01*
X29998699Y-80854314D01*
X29945753Y-80762609D01*
X29939393Y-80751593D01*
X29939391Y-80751590D01*
X29939389Y-80751587D01*
X29855513Y-80667711D01*
X29855510Y-80667709D01*
X29855506Y-80667706D01*
X29752791Y-80608403D01*
X29752781Y-80608399D01*
X29638211Y-80577700D01*
X29638209Y-80577700D01*
X29519591Y-80577700D01*
X29464370Y-80592496D01*
X29417703Y-80586351D01*
X29389049Y-80549010D01*
X29383799Y-80529414D01*
X29383796Y-80529408D01*
X29324493Y-80426693D01*
X29324491Y-80426690D01*
X29324489Y-80426687D01*
X29240613Y-80342811D01*
X29240610Y-80342809D01*
X29240606Y-80342806D01*
X29137891Y-80283503D01*
X29137881Y-80283499D01*
X29023311Y-80252800D01*
X29023309Y-80252800D01*
X28904691Y-80252800D01*
X28904689Y-80252800D01*
X28790118Y-80283499D01*
X28790108Y-80283503D01*
X28687393Y-80342806D01*
X28687383Y-80342814D01*
X28603514Y-80426683D01*
X28603506Y-80426693D01*
X28544203Y-80529408D01*
X28544199Y-80529418D01*
X28513500Y-80643988D01*
X250500Y-80643988D01*
X250500Y-78829888D01*
X29594400Y-78829888D01*
X29594400Y-78948511D01*
X29625099Y-79063081D01*
X29625103Y-79063091D01*
X29684406Y-79165806D01*
X29684409Y-79165810D01*
X29684411Y-79165813D01*
X29768287Y-79249689D01*
X29768290Y-79249691D01*
X29768293Y-79249693D01*
X29871008Y-79308996D01*
X29871010Y-79308997D01*
X29871014Y-79308999D01*
X29871018Y-79309000D01*
X29985589Y-79339700D01*
X29985591Y-79339700D01*
X30104210Y-79339700D01*
X30154726Y-79326163D01*
X30218786Y-79308999D01*
X30321513Y-79249689D01*
X30405389Y-79165813D01*
X30464699Y-79063086D01*
X30476611Y-79018627D01*
X30495400Y-78948511D01*
X30495400Y-78882339D01*
X30513413Y-78838852D01*
X30556900Y-78820839D01*
X30587647Y-78829078D01*
X30618514Y-78846899D01*
X30618518Y-78846900D01*
X30733089Y-78877600D01*
X30733091Y-78877600D01*
X30851710Y-78877600D01*
X30902226Y-78864063D01*
X30966286Y-78846899D01*
X31069013Y-78787589D01*
X31152889Y-78703713D01*
X31212199Y-78600986D01*
X31230815Y-78531511D01*
X31242900Y-78486411D01*
X31242900Y-78412888D01*
X33339000Y-78412888D01*
X33339000Y-78531511D01*
X33369699Y-78646081D01*
X33369703Y-78646091D01*
X33429006Y-78748806D01*
X33429009Y-78748810D01*
X33429011Y-78748813D01*
X33512887Y-78832689D01*
X33512890Y-78832691D01*
X33512893Y-78832693D01*
X33615608Y-78891996D01*
X33615610Y-78891997D01*
X33615614Y-78891999D01*
X33615618Y-78892000D01*
X33730189Y-78922700D01*
X33730191Y-78922700D01*
X33848810Y-78922700D01*
X33887001Y-78912466D01*
X33963386Y-78891999D01*
X33982391Y-78881025D01*
X34029058Y-78874881D01*
X34066402Y-78903534D01*
X34066402Y-78903536D01*
X34077467Y-78922700D01*
X34094911Y-78952913D01*
X34178787Y-79036789D01*
X34178790Y-79036791D01*
X34178793Y-79036793D01*
X34281508Y-79096096D01*
X34281510Y-79096097D01*
X34281514Y-79096099D01*
X34281518Y-79096100D01*
X34396089Y-79126800D01*
X34396091Y-79126800D01*
X34514710Y-79126800D01*
X34565226Y-79113263D01*
X34629286Y-79096099D01*
X34732013Y-79036789D01*
X34815889Y-78952913D01*
X34875199Y-78850186D01*
X34891973Y-78787585D01*
X34905900Y-78735611D01*
X34905900Y-78616988D01*
X34875200Y-78502418D01*
X34875199Y-78502414D01*
X34875196Y-78502408D01*
X34815893Y-78399693D01*
X34815891Y-78399690D01*
X34815889Y-78399687D01*
X34732013Y-78315811D01*
X34732010Y-78315809D01*
X34732006Y-78315806D01*
X34629291Y-78256503D01*
X34629281Y-78256499D01*
X34514711Y-78225800D01*
X34514709Y-78225800D01*
X34396091Y-78225800D01*
X34396089Y-78225800D01*
X34281518Y-78256499D01*
X34281512Y-78256502D01*
X34262505Y-78267475D01*
X34215837Y-78273617D01*
X34178497Y-78244963D01*
X34149993Y-78195593D01*
X34149991Y-78195590D01*
X34149989Y-78195587D01*
X34066113Y-78111711D01*
X34066110Y-78111709D01*
X34066106Y-78111706D01*
X33963391Y-78052403D01*
X33963381Y-78052399D01*
X33848811Y-78021700D01*
X33848809Y-78021700D01*
X33730191Y-78021700D01*
X33730189Y-78021700D01*
X33615618Y-78052399D01*
X33615608Y-78052403D01*
X33512893Y-78111706D01*
X33512883Y-78111714D01*
X33429014Y-78195583D01*
X33429006Y-78195593D01*
X33369703Y-78298308D01*
X33369699Y-78298318D01*
X33339000Y-78412888D01*
X31242900Y-78412888D01*
X31242900Y-78367788D01*
X31212200Y-78253218D01*
X31212199Y-78253214D01*
X31209820Y-78249093D01*
X31152893Y-78150493D01*
X31152891Y-78150490D01*
X31152889Y-78150487D01*
X31069013Y-78066611D01*
X31069010Y-78066609D01*
X31069006Y-78066606D01*
X30966291Y-78007303D01*
X30966281Y-78007299D01*
X30851711Y-77976600D01*
X30851709Y-77976600D01*
X30733091Y-77976600D01*
X30733089Y-77976600D01*
X30618518Y-78007299D01*
X30618508Y-78007303D01*
X30515793Y-78066606D01*
X30515783Y-78066614D01*
X30431914Y-78150483D01*
X30431906Y-78150493D01*
X30372603Y-78253208D01*
X30372599Y-78253218D01*
X30341900Y-78367788D01*
X30341900Y-78433960D01*
X30323887Y-78477447D01*
X30280400Y-78495460D01*
X30249650Y-78487220D01*
X30218791Y-78469403D01*
X30218781Y-78469399D01*
X30104211Y-78438700D01*
X30104209Y-78438700D01*
X29985591Y-78438700D01*
X29985589Y-78438700D01*
X29871018Y-78469399D01*
X29871008Y-78469403D01*
X29768293Y-78528706D01*
X29768283Y-78528714D01*
X29684414Y-78612583D01*
X29684406Y-78612593D01*
X29625103Y-78715308D01*
X29625099Y-78715318D01*
X29594400Y-78829888D01*
X250500Y-78829888D01*
X250500Y-77829288D01*
X28387900Y-77829288D01*
X28387900Y-77947911D01*
X28418599Y-78062481D01*
X28418603Y-78062491D01*
X28477906Y-78165206D01*
X28477909Y-78165210D01*
X28477911Y-78165213D01*
X28561787Y-78249089D01*
X28561790Y-78249091D01*
X28561793Y-78249093D01*
X28664508Y-78308396D01*
X28664510Y-78308397D01*
X28664514Y-78308399D01*
X28664518Y-78308400D01*
X28779089Y-78339100D01*
X28779091Y-78339100D01*
X28897710Y-78339100D01*
X28948226Y-78325563D01*
X29012286Y-78308399D01*
X29115013Y-78249089D01*
X29198889Y-78165213D01*
X29258199Y-78062486D01*
X29276282Y-77995000D01*
X29288900Y-77947911D01*
X29288900Y-77829288D01*
X29258200Y-77714718D01*
X29258199Y-77714714D01*
X29258196Y-77714708D01*
X29198893Y-77611993D01*
X29198891Y-77611990D01*
X29198889Y-77611987D01*
X29115013Y-77528111D01*
X29115012Y-77528110D01*
X29115010Y-77528109D01*
X29040670Y-77485188D01*
X34932300Y-77485188D01*
X34932300Y-77603811D01*
X34962999Y-77718381D01*
X34963003Y-77718391D01*
X35022306Y-77821106D01*
X35022309Y-77821110D01*
X35022311Y-77821113D01*
X35106187Y-77904989D01*
X35106190Y-77904991D01*
X35106193Y-77904993D01*
X35208908Y-77964296D01*
X35208910Y-77964297D01*
X35208914Y-77964299D01*
X35208918Y-77964300D01*
X35323489Y-77995000D01*
X35323491Y-77995000D01*
X35442110Y-77995000D01*
X35513103Y-77975977D01*
X35556686Y-77964299D01*
X35659413Y-77904989D01*
X35743289Y-77821113D01*
X35802599Y-77718386D01*
X35818889Y-77657591D01*
X35833300Y-77603811D01*
X35833300Y-77485188D01*
X35802600Y-77370618D01*
X35802599Y-77370614D01*
X35802596Y-77370608D01*
X35743293Y-77267893D01*
X35743291Y-77267890D01*
X35743289Y-77267887D01*
X35659413Y-77184011D01*
X35659410Y-77184009D01*
X35659406Y-77184006D01*
X35556691Y-77124703D01*
X35556681Y-77124699D01*
X35512713Y-77112918D01*
X35442111Y-77094000D01*
X35442109Y-77094000D01*
X35323491Y-77094000D01*
X35323489Y-77094000D01*
X35208918Y-77124699D01*
X35208908Y-77124703D01*
X35106193Y-77184006D01*
X35106183Y-77184014D01*
X35022314Y-77267883D01*
X35022306Y-77267893D01*
X34963003Y-77370608D01*
X34962999Y-77370618D01*
X34932300Y-77485188D01*
X29040670Y-77485188D01*
X29012291Y-77468803D01*
X29012281Y-77468799D01*
X28897711Y-77438100D01*
X28897709Y-77438100D01*
X28779091Y-77438100D01*
X28779089Y-77438100D01*
X28664518Y-77468799D01*
X28664508Y-77468803D01*
X28561793Y-77528106D01*
X28561783Y-77528114D01*
X28477914Y-77611983D01*
X28477906Y-77611993D01*
X28418603Y-77714708D01*
X28418599Y-77714718D01*
X28387900Y-77829288D01*
X250500Y-77829288D01*
X250500Y-77056531D01*
X55949500Y-77056531D01*
X55949500Y-77263468D01*
X55989868Y-77466414D01*
X55989873Y-77466430D01*
X56069056Y-77657591D01*
X56069059Y-77657598D01*
X56107225Y-77714718D01*
X56184022Y-77829654D01*
X56330345Y-77975977D01*
X56330344Y-77975977D01*
X56377222Y-78007299D01*
X56502402Y-78090941D01*
X56591466Y-78127832D01*
X56693569Y-78170126D01*
X56693574Y-78170127D01*
X56693580Y-78170130D01*
X56896531Y-78210499D01*
X56896532Y-78210500D01*
X56896535Y-78210500D01*
X57103468Y-78210500D01*
X57103468Y-78210499D01*
X57306420Y-78170130D01*
X57318284Y-78165216D01*
X57332518Y-78159319D01*
X57497598Y-78090941D01*
X57669655Y-77975977D01*
X57815977Y-77829655D01*
X57930941Y-77657598D01*
X58010130Y-77466420D01*
X58050499Y-77263468D01*
X58050500Y-77263468D01*
X58050500Y-77056532D01*
X58050499Y-77056531D01*
X58010131Y-76853585D01*
X58010130Y-76853584D01*
X58010130Y-76853580D01*
X58010127Y-76853574D01*
X58010126Y-76853569D01*
X57930943Y-76662408D01*
X57930941Y-76662402D01*
X57815977Y-76490345D01*
X57669655Y-76344023D01*
X57669654Y-76344022D01*
X57669655Y-76344022D01*
X57497599Y-76229060D01*
X57497600Y-76229060D01*
X57497598Y-76229059D01*
X57462718Y-76214611D01*
X57306430Y-76149873D01*
X57306414Y-76149868D01*
X57103468Y-76109500D01*
X57103465Y-76109500D01*
X56896535Y-76109500D01*
X56896532Y-76109500D01*
X56693585Y-76149868D01*
X56693569Y-76149873D01*
X56502408Y-76229056D01*
X56502400Y-76229060D01*
X56330345Y-76344022D01*
X56184022Y-76490345D01*
X56069060Y-76662400D01*
X56069056Y-76662408D01*
X55989873Y-76853569D01*
X55989868Y-76853585D01*
X55949500Y-77056531D01*
X250500Y-77056531D01*
X250500Y-75866288D01*
X13935600Y-75866288D01*
X13935600Y-75984911D01*
X13966299Y-76099481D01*
X13966303Y-76099491D01*
X14025606Y-76202206D01*
X14025609Y-76202210D01*
X14025611Y-76202213D01*
X14109487Y-76286089D01*
X14109490Y-76286091D01*
X14109493Y-76286093D01*
X14212208Y-76345396D01*
X14212210Y-76345397D01*
X14212214Y-76345399D01*
X14212218Y-76345400D01*
X14326789Y-76376100D01*
X14326791Y-76376100D01*
X14445410Y-76376100D01*
X14495926Y-76362563D01*
X14559986Y-76345399D01*
X14662713Y-76286089D01*
X14746589Y-76202213D01*
X14799258Y-76110988D01*
X27561400Y-76110988D01*
X27561400Y-76229611D01*
X27592099Y-76344181D01*
X27592103Y-76344191D01*
X27651406Y-76446906D01*
X27651409Y-76446910D01*
X27651411Y-76446913D01*
X27735287Y-76530789D01*
X27735290Y-76530791D01*
X27735293Y-76530793D01*
X27838008Y-76590096D01*
X27838010Y-76590097D01*
X27838014Y-76590099D01*
X27838018Y-76590100D01*
X27952589Y-76620800D01*
X27952591Y-76620800D01*
X28071210Y-76620800D01*
X28127189Y-76605800D01*
X28185786Y-76590099D01*
X28288513Y-76530789D01*
X28372389Y-76446913D01*
X28431699Y-76344186D01*
X28447267Y-76286085D01*
X28462400Y-76229611D01*
X28462400Y-76110989D01*
X28461567Y-76107881D01*
X28461567Y-76107879D01*
X28461566Y-76107877D01*
X28458380Y-76095988D01*
X35549500Y-76095988D01*
X35549500Y-76214611D01*
X35580199Y-76329181D01*
X35580203Y-76329191D01*
X35639506Y-76431906D01*
X35639509Y-76431910D01*
X35639511Y-76431913D01*
X35723387Y-76515789D01*
X35723390Y-76515791D01*
X35723393Y-76515793D01*
X35826108Y-76575096D01*
X35826110Y-76575097D01*
X35826114Y-76575099D01*
X35826118Y-76575100D01*
X35940689Y-76605800D01*
X35940691Y-76605800D01*
X36059310Y-76605800D01*
X36117902Y-76590100D01*
X36173886Y-76575099D01*
X36276613Y-76515789D01*
X36360489Y-76431913D01*
X36419799Y-76329186D01*
X36431711Y-76284727D01*
X36450500Y-76214611D01*
X36450500Y-76095988D01*
X36419800Y-75981418D01*
X36419799Y-75981414D01*
X36369153Y-75893693D01*
X36360493Y-75878693D01*
X36360491Y-75878690D01*
X36360489Y-75878687D01*
X36276613Y-75794811D01*
X36276610Y-75794809D01*
X36276606Y-75794806D01*
X36173891Y-75735503D01*
X36173881Y-75735499D01*
X36059311Y-75704800D01*
X36059309Y-75704800D01*
X35940691Y-75704800D01*
X35940689Y-75704800D01*
X35826118Y-75735499D01*
X35826108Y-75735503D01*
X35723393Y-75794806D01*
X35723383Y-75794814D01*
X35639514Y-75878683D01*
X35639506Y-75878693D01*
X35580203Y-75981408D01*
X35580199Y-75981418D01*
X35549500Y-76095988D01*
X28458380Y-76095988D01*
X28431701Y-75996420D01*
X28431696Y-75996408D01*
X28372393Y-75893693D01*
X28372391Y-75893690D01*
X28372389Y-75893687D01*
X28288513Y-75809811D01*
X28288510Y-75809809D01*
X28288506Y-75809806D01*
X28185791Y-75750503D01*
X28185781Y-75750499D01*
X28071211Y-75719800D01*
X28071209Y-75719800D01*
X27952591Y-75719800D01*
X27952589Y-75719800D01*
X27838018Y-75750499D01*
X27838008Y-75750503D01*
X27735293Y-75809806D01*
X27735283Y-75809814D01*
X27651414Y-75893683D01*
X27651406Y-75893693D01*
X27592103Y-75996408D01*
X27592099Y-75996418D01*
X27561400Y-76110988D01*
X14799258Y-76110988D01*
X14805899Y-76099486D01*
X14833516Y-75996420D01*
X14836600Y-75984911D01*
X14836600Y-75866288D01*
X14805900Y-75751718D01*
X14805899Y-75751714D01*
X14805198Y-75750499D01*
X14746593Y-75648993D01*
X14746591Y-75648990D01*
X14746589Y-75648987D01*
X14662713Y-75565111D01*
X14662710Y-75565109D01*
X14662706Y-75565106D01*
X14559991Y-75505803D01*
X14559981Y-75505799D01*
X14445411Y-75475100D01*
X14445409Y-75475100D01*
X14326791Y-75475100D01*
X14326789Y-75475100D01*
X14212218Y-75505799D01*
X14212208Y-75505803D01*
X14109493Y-75565106D01*
X14109483Y-75565114D01*
X14025614Y-75648983D01*
X14025606Y-75648993D01*
X13966303Y-75751708D01*
X13966299Y-75751718D01*
X13935600Y-75866288D01*
X250500Y-75866288D01*
X250500Y-74311488D01*
X34485700Y-74311488D01*
X34485700Y-74430111D01*
X34516399Y-74544681D01*
X34516403Y-74544691D01*
X34575706Y-74647406D01*
X34575709Y-74647410D01*
X34575711Y-74647413D01*
X34659587Y-74731289D01*
X34659590Y-74731291D01*
X34659593Y-74731293D01*
X34762308Y-74790596D01*
X34762310Y-74790597D01*
X34762314Y-74790599D01*
X34762318Y-74790600D01*
X34876889Y-74821300D01*
X34876891Y-74821300D01*
X34995510Y-74821300D01*
X35046026Y-74807763D01*
X35110086Y-74790599D01*
X35212813Y-74731289D01*
X35296689Y-74647413D01*
X35355999Y-74544686D01*
X35367911Y-74500227D01*
X35386700Y-74430111D01*
X35386700Y-74311488D01*
X35356000Y-74196918D01*
X35355999Y-74196914D01*
X35355996Y-74196908D01*
X35296693Y-74094193D01*
X35296691Y-74094190D01*
X35296689Y-74094187D01*
X35212813Y-74010311D01*
X35212810Y-74010309D01*
X35212806Y-74010306D01*
X35110091Y-73951003D01*
X35110081Y-73950999D01*
X34995511Y-73920300D01*
X34995509Y-73920300D01*
X34876891Y-73920300D01*
X34876889Y-73920300D01*
X34762318Y-73950999D01*
X34762308Y-73951003D01*
X34659593Y-74010306D01*
X34659583Y-74010314D01*
X34575714Y-74094183D01*
X34575706Y-74094193D01*
X34516403Y-74196908D01*
X34516399Y-74196918D01*
X34485700Y-74311488D01*
X250500Y-74311488D01*
X250500Y-72608088D01*
X21500700Y-72608088D01*
X21500700Y-72726711D01*
X21531399Y-72841281D01*
X21531403Y-72841291D01*
X21590706Y-72944006D01*
X21590709Y-72944010D01*
X21590711Y-72944013D01*
X21674587Y-73027889D01*
X21674590Y-73027891D01*
X21674593Y-73027893D01*
X21777308Y-73087196D01*
X21777310Y-73087197D01*
X21777314Y-73087199D01*
X21777318Y-73087200D01*
X21891889Y-73117900D01*
X21891891Y-73117900D01*
X22010510Y-73117900D01*
X22061026Y-73104363D01*
X22125086Y-73087199D01*
X22227813Y-73027889D01*
X22311689Y-72944013D01*
X22345479Y-72885488D01*
X22612700Y-72885488D01*
X22612700Y-73004111D01*
X22643399Y-73118681D01*
X22643403Y-73118691D01*
X22702706Y-73221406D01*
X22702709Y-73221410D01*
X22702711Y-73221413D01*
X22786587Y-73305289D01*
X22786590Y-73305291D01*
X22786593Y-73305293D01*
X22889308Y-73364596D01*
X22889310Y-73364597D01*
X22889314Y-73364599D01*
X22889318Y-73364600D01*
X23003889Y-73395300D01*
X23003891Y-73395300D01*
X23122510Y-73395300D01*
X23173026Y-73381763D01*
X23237086Y-73364599D01*
X23339813Y-73305289D01*
X23423689Y-73221413D01*
X23482999Y-73118686D01*
X23507328Y-73027889D01*
X23512393Y-73008988D01*
X31679100Y-73008988D01*
X31679100Y-73127611D01*
X31709799Y-73242181D01*
X31709803Y-73242191D01*
X31769106Y-73344906D01*
X31769109Y-73344910D01*
X31769111Y-73344913D01*
X31852987Y-73428789D01*
X31852990Y-73428791D01*
X31852993Y-73428793D01*
X31955708Y-73488096D01*
X31955710Y-73488097D01*
X31955714Y-73488099D01*
X31955718Y-73488100D01*
X32070289Y-73518800D01*
X32070291Y-73518800D01*
X32188910Y-73518800D01*
X32239426Y-73505263D01*
X32303486Y-73488099D01*
X32406213Y-73428789D01*
X32490089Y-73344913D01*
X32549399Y-73242186D01*
X32561311Y-73197727D01*
X32580100Y-73127611D01*
X32580100Y-73008988D01*
X32549400Y-72894418D01*
X32549399Y-72894414D01*
X32549396Y-72894408D01*
X32490093Y-72791693D01*
X32490091Y-72791690D01*
X32490089Y-72791687D01*
X32406213Y-72707811D01*
X32406210Y-72707809D01*
X32406206Y-72707806D01*
X32303491Y-72648503D01*
X32303481Y-72648499D01*
X32188911Y-72617800D01*
X32188909Y-72617800D01*
X32070291Y-72617800D01*
X32070289Y-72617800D01*
X31955718Y-72648499D01*
X31955708Y-72648503D01*
X31852993Y-72707806D01*
X31852983Y-72707814D01*
X31769114Y-72791683D01*
X31769106Y-72791693D01*
X31709803Y-72894408D01*
X31709799Y-72894418D01*
X31679100Y-73008988D01*
X23512393Y-73008988D01*
X23513700Y-73004111D01*
X23513700Y-72885488D01*
X23483000Y-72770918D01*
X23482999Y-72770914D01*
X23470725Y-72749655D01*
X23423693Y-72668193D01*
X23423691Y-72668190D01*
X23423689Y-72668187D01*
X23339813Y-72584311D01*
X23339810Y-72584309D01*
X23339806Y-72584306D01*
X23237091Y-72525003D01*
X23237081Y-72524999D01*
X23122511Y-72494300D01*
X23122509Y-72494300D01*
X23003891Y-72494300D01*
X23003889Y-72494300D01*
X22889318Y-72524999D01*
X22889308Y-72525003D01*
X22786593Y-72584306D01*
X22786583Y-72584314D01*
X22702714Y-72668183D01*
X22702706Y-72668193D01*
X22643403Y-72770908D01*
X22643399Y-72770918D01*
X22612700Y-72885488D01*
X22345479Y-72885488D01*
X22370999Y-72841286D01*
X22382911Y-72796827D01*
X22401700Y-72726711D01*
X22401700Y-72608088D01*
X22371000Y-72493518D01*
X22370999Y-72493514D01*
X22370996Y-72493508D01*
X22311693Y-72390793D01*
X22311691Y-72390790D01*
X22311689Y-72390787D01*
X22227813Y-72306911D01*
X22227810Y-72306909D01*
X22227806Y-72306906D01*
X22125091Y-72247603D01*
X22125081Y-72247599D01*
X22010511Y-72216900D01*
X22010509Y-72216900D01*
X21891891Y-72216900D01*
X21891889Y-72216900D01*
X21777318Y-72247599D01*
X21777308Y-72247603D01*
X21674593Y-72306906D01*
X21674583Y-72306914D01*
X21590714Y-72390783D01*
X21590706Y-72390793D01*
X21531403Y-72493508D01*
X21531399Y-72493518D01*
X21500700Y-72608088D01*
X250500Y-72608088D01*
X250500Y-71682488D01*
X26170400Y-71682488D01*
X26170400Y-71801111D01*
X26201099Y-71915681D01*
X26201103Y-71915691D01*
X26260406Y-72018406D01*
X26260409Y-72018410D01*
X26260411Y-72018413D01*
X26344287Y-72102289D01*
X26344290Y-72102291D01*
X26344293Y-72102293D01*
X26447008Y-72161596D01*
X26447010Y-72161597D01*
X26447014Y-72161599D01*
X26447018Y-72161600D01*
X26561589Y-72192300D01*
X26561591Y-72192300D01*
X26680210Y-72192300D01*
X26730726Y-72178763D01*
X26794786Y-72161599D01*
X26897513Y-72102289D01*
X26981389Y-72018413D01*
X26985853Y-72010680D01*
X27005570Y-71976531D01*
X55949500Y-71976531D01*
X55949500Y-72183468D01*
X55989868Y-72386414D01*
X55989873Y-72386430D01*
X56047272Y-72525001D01*
X56069059Y-72577598D01*
X56089432Y-72608088D01*
X56184022Y-72749654D01*
X56330345Y-72895977D01*
X56330344Y-72895977D01*
X56402226Y-72944006D01*
X56502402Y-73010941D01*
X56543318Y-73027889D01*
X56693569Y-73090126D01*
X56693574Y-73090127D01*
X56693580Y-73090130D01*
X56896531Y-73130499D01*
X56896532Y-73130500D01*
X56896535Y-73130500D01*
X57103468Y-73130500D01*
X57103468Y-73130499D01*
X57306420Y-73090130D01*
X57313504Y-73087196D01*
X57332518Y-73079319D01*
X57497598Y-73010941D01*
X57669655Y-72895977D01*
X57815977Y-72749655D01*
X57930941Y-72577598D01*
X58010130Y-72386420D01*
X58050499Y-72183468D01*
X58050500Y-72183468D01*
X58050500Y-71976532D01*
X58050499Y-71976531D01*
X58043782Y-71942764D01*
X58010130Y-71773580D01*
X58010127Y-71773574D01*
X58010126Y-71773569D01*
X57930943Y-71582408D01*
X57930941Y-71582402D01*
X57815977Y-71410345D01*
X57669655Y-71264023D01*
X57669654Y-71264022D01*
X57669655Y-71264022D01*
X57497599Y-71149060D01*
X57497600Y-71149060D01*
X57497598Y-71149059D01*
X57497591Y-71149056D01*
X57306430Y-71069873D01*
X57306414Y-71069868D01*
X57103468Y-71029500D01*
X57103465Y-71029500D01*
X56896535Y-71029500D01*
X56896532Y-71029500D01*
X56693585Y-71069868D01*
X56693569Y-71069873D01*
X56502408Y-71149056D01*
X56502400Y-71149060D01*
X56330345Y-71264022D01*
X56184022Y-71410345D01*
X56069060Y-71582400D01*
X56069056Y-71582408D01*
X55989873Y-71773569D01*
X55989868Y-71773585D01*
X55949500Y-71976531D01*
X27005570Y-71976531D01*
X27025064Y-71942767D01*
X27025065Y-71942764D01*
X27040699Y-71915686D01*
X27052611Y-71871227D01*
X27071400Y-71801111D01*
X27071400Y-71682488D01*
X27040700Y-71567918D01*
X27040699Y-71567914D01*
X27040696Y-71567908D01*
X26981393Y-71465193D01*
X26981391Y-71465190D01*
X26981389Y-71465187D01*
X26897513Y-71381311D01*
X26897510Y-71381309D01*
X26897506Y-71381306D01*
X26794791Y-71322003D01*
X26794781Y-71321999D01*
X26680211Y-71291300D01*
X26680209Y-71291300D01*
X26561591Y-71291300D01*
X26561589Y-71291300D01*
X26447018Y-71321999D01*
X26447008Y-71322003D01*
X26344293Y-71381306D01*
X26344283Y-71381314D01*
X26260414Y-71465183D01*
X26260406Y-71465193D01*
X26201103Y-71567908D01*
X26201099Y-71567918D01*
X26170400Y-71682488D01*
X250500Y-71682488D01*
X250500Y-70590288D01*
X8374100Y-70590288D01*
X8374100Y-70708911D01*
X8404799Y-70823481D01*
X8404803Y-70823491D01*
X8464106Y-70926206D01*
X8464109Y-70926210D01*
X8464111Y-70926213D01*
X8547987Y-71010089D01*
X8547990Y-71010091D01*
X8547993Y-71010093D01*
X8650708Y-71069396D01*
X8650710Y-71069397D01*
X8650714Y-71069399D01*
X8652472Y-71069870D01*
X8765289Y-71100100D01*
X8765291Y-71100100D01*
X8883910Y-71100100D01*
X8934426Y-71086563D01*
X8998486Y-71069399D01*
X9101213Y-71010089D01*
X9185089Y-70926213D01*
X9244399Y-70823486D01*
X9258168Y-70772100D01*
X9275100Y-70708911D01*
X9275100Y-70590288D01*
X9244400Y-70475718D01*
X9244399Y-70475714D01*
X9241644Y-70470943D01*
X9229331Y-70449615D01*
X9229329Y-70449613D01*
X9213899Y-70422888D01*
X22382700Y-70422888D01*
X22382700Y-70541511D01*
X22413399Y-70656081D01*
X22413403Y-70656091D01*
X22472706Y-70758806D01*
X22472709Y-70758810D01*
X22472711Y-70758813D01*
X22556587Y-70842689D01*
X22556590Y-70842691D01*
X22556593Y-70842693D01*
X22659308Y-70901996D01*
X22659310Y-70901997D01*
X22659314Y-70901999D01*
X22659318Y-70902000D01*
X22773889Y-70932700D01*
X22773891Y-70932700D01*
X22892510Y-70932700D01*
X22943026Y-70919163D01*
X23007086Y-70901999D01*
X23109813Y-70842689D01*
X23193689Y-70758813D01*
X23252999Y-70656086D01*
X23281390Y-70550130D01*
X23283700Y-70541511D01*
X23283700Y-70422888D01*
X23253000Y-70308318D01*
X23252999Y-70308314D01*
X23226426Y-70262288D01*
X30093900Y-70262288D01*
X30093900Y-70380911D01*
X30124599Y-70495481D01*
X30124603Y-70495491D01*
X30183906Y-70598206D01*
X30183909Y-70598210D01*
X30183911Y-70598213D01*
X30267787Y-70682089D01*
X30267790Y-70682091D01*
X30267793Y-70682093D01*
X30370508Y-70741396D01*
X30370510Y-70741397D01*
X30370514Y-70741399D01*
X30370518Y-70741400D01*
X30485089Y-70772100D01*
X30485091Y-70772100D01*
X30603710Y-70772100D01*
X30654226Y-70758563D01*
X30718286Y-70741399D01*
X30821013Y-70682089D01*
X30904889Y-70598213D01*
X30964199Y-70495486D01*
X30983652Y-70422888D01*
X30994900Y-70380911D01*
X30994900Y-70262288D01*
X30964200Y-70147718D01*
X30964199Y-70147714D01*
X30949188Y-70121714D01*
X30904893Y-70044993D01*
X30904891Y-70044990D01*
X30904889Y-70044987D01*
X30821013Y-69961111D01*
X30821010Y-69961109D01*
X30821006Y-69961106D01*
X30718291Y-69901803D01*
X30718281Y-69901799D01*
X30603711Y-69871100D01*
X30603709Y-69871100D01*
X30485091Y-69871100D01*
X30485089Y-69871100D01*
X30370518Y-69901799D01*
X30370508Y-69901803D01*
X30267793Y-69961106D01*
X30267783Y-69961114D01*
X30183914Y-70044983D01*
X30183906Y-70044993D01*
X30124603Y-70147708D01*
X30124599Y-70147718D01*
X30093900Y-70262288D01*
X23226426Y-70262288D01*
X23193689Y-70205587D01*
X23109813Y-70121711D01*
X23109810Y-70121709D01*
X23109806Y-70121706D01*
X23007091Y-70062403D01*
X23007081Y-70062399D01*
X22892511Y-70031700D01*
X22892509Y-70031700D01*
X22773891Y-70031700D01*
X22773889Y-70031700D01*
X22659318Y-70062399D01*
X22659308Y-70062403D01*
X22556593Y-70121706D01*
X22556583Y-70121714D01*
X22472714Y-70205583D01*
X22472706Y-70205593D01*
X22413403Y-70308308D01*
X22413399Y-70308318D01*
X22382700Y-70422888D01*
X9213899Y-70422888D01*
X9185089Y-70372987D01*
X9101213Y-70289111D01*
X9101210Y-70289109D01*
X9101206Y-70289106D01*
X8998491Y-70229803D01*
X8998481Y-70229799D01*
X8883911Y-70199100D01*
X8883909Y-70199100D01*
X8765291Y-70199100D01*
X8765289Y-70199100D01*
X8650718Y-70229799D01*
X8650708Y-70229803D01*
X8547993Y-70289106D01*
X8547983Y-70289114D01*
X8464114Y-70372983D01*
X8464106Y-70372993D01*
X8404803Y-70475708D01*
X8404799Y-70475718D01*
X8374100Y-70590288D01*
X250500Y-70590288D01*
X250500Y-69436531D01*
X55949500Y-69436531D01*
X55949500Y-69643468D01*
X55989868Y-69846414D01*
X55989873Y-69846430D01*
X56037378Y-69961114D01*
X56069059Y-70037598D01*
X56085632Y-70062401D01*
X56184022Y-70209654D01*
X56330345Y-70355977D01*
X56330344Y-70355977D01*
X56416664Y-70413653D01*
X56502402Y-70470941D01*
X56561659Y-70495486D01*
X56693569Y-70550126D01*
X56693574Y-70550127D01*
X56693580Y-70550130D01*
X56896531Y-70590499D01*
X56896532Y-70590500D01*
X56896535Y-70590500D01*
X57103468Y-70590500D01*
X57103468Y-70590499D01*
X57306420Y-70550130D01*
X57497598Y-70470941D01*
X57669655Y-70355977D01*
X57815977Y-70209655D01*
X57930941Y-70037598D01*
X58010130Y-69846420D01*
X58050499Y-69643468D01*
X58050500Y-69643468D01*
X58050500Y-69436532D01*
X58050499Y-69436531D01*
X58010131Y-69233585D01*
X58010130Y-69233584D01*
X58010130Y-69233580D01*
X58010127Y-69233574D01*
X58010126Y-69233569D01*
X57930943Y-69042408D01*
X57930941Y-69042402D01*
X57815977Y-68870345D01*
X57669655Y-68724023D01*
X57669654Y-68724022D01*
X57669655Y-68724022D01*
X57497599Y-68609060D01*
X57497600Y-68609060D01*
X57497598Y-68609059D01*
X57497591Y-68609056D01*
X57306430Y-68529873D01*
X57306414Y-68529868D01*
X57103468Y-68489500D01*
X57103465Y-68489500D01*
X56896535Y-68489500D01*
X56896532Y-68489500D01*
X56693585Y-68529868D01*
X56693569Y-68529873D01*
X56502408Y-68609056D01*
X56502400Y-68609060D01*
X56330345Y-68724022D01*
X56184022Y-68870345D01*
X56069060Y-69042400D01*
X56069056Y-69042408D01*
X55989873Y-69233569D01*
X55989868Y-69233585D01*
X55949500Y-69436531D01*
X250500Y-69436531D01*
X250500Y-66130248D01*
X55949500Y-66130248D01*
X55949500Y-67869751D01*
X55961131Y-67928224D01*
X55961132Y-67928228D01*
X55961133Y-67928231D01*
X56005448Y-67994552D01*
X56071769Y-68038867D01*
X56130248Y-68050499D01*
X56130249Y-68050500D01*
X56130252Y-68050500D01*
X57869751Y-68050500D01*
X57869751Y-68050499D01*
X57928231Y-68038867D01*
X57994552Y-67994552D01*
X58038867Y-67928231D01*
X58050499Y-67869751D01*
X58050500Y-67869751D01*
X58050500Y-66130249D01*
X58050499Y-66130248D01*
X58038868Y-66071775D01*
X58038867Y-66071769D01*
X57994552Y-66005448D01*
X57928231Y-65961133D01*
X57928228Y-65961132D01*
X57928224Y-65961131D01*
X57869751Y-65949500D01*
X57869748Y-65949500D01*
X56130252Y-65949500D01*
X56130249Y-65949500D01*
X56071775Y-65961131D01*
X56071769Y-65961133D01*
X56005448Y-66005448D01*
X55961133Y-66071769D01*
X55961131Y-66071775D01*
X55949500Y-66130248D01*
X250500Y-66130248D01*
X250500Y-56261003D01*
X4799500Y-56261003D01*
X4799500Y-56398996D01*
X4826418Y-56534321D01*
X4826423Y-56534338D01*
X4879222Y-56661804D01*
X4879225Y-56661811D01*
X4879226Y-56661813D01*
X4879230Y-56661820D01*
X4955880Y-56776535D01*
X4955885Y-56776541D01*
X5053458Y-56874114D01*
X5053464Y-56874119D01*
X5168179Y-56950769D01*
X5168183Y-56950771D01*
X5168189Y-56950775D01*
X5227580Y-56975375D01*
X5295661Y-57003576D01*
X5295665Y-57003577D01*
X5295672Y-57003580D01*
X5431003Y-57030499D01*
X5431004Y-57030500D01*
X5431007Y-57030500D01*
X5568996Y-57030500D01*
X5568996Y-57030499D01*
X5704328Y-57003580D01*
X5831811Y-56950775D01*
X5888209Y-56913091D01*
X5946535Y-56874119D01*
X5946536Y-56874117D01*
X5946542Y-56874114D01*
X6044114Y-56776542D01*
X6120775Y-56661811D01*
X6173580Y-56534328D01*
X6200499Y-56398996D01*
X6200500Y-56398996D01*
X6200500Y-56261004D01*
X6200499Y-56261003D01*
X7799500Y-56261003D01*
X7799500Y-56398996D01*
X7826418Y-56534321D01*
X7826423Y-56534338D01*
X7879222Y-56661804D01*
X7879225Y-56661811D01*
X7879226Y-56661813D01*
X7879230Y-56661820D01*
X7955880Y-56776535D01*
X7955885Y-56776541D01*
X8053458Y-56874114D01*
X8053464Y-56874119D01*
X8168179Y-56950769D01*
X8168183Y-56950771D01*
X8168189Y-56950775D01*
X8227580Y-56975375D01*
X8295661Y-57003576D01*
X8295665Y-57003577D01*
X8295672Y-57003580D01*
X8431003Y-57030499D01*
X8431004Y-57030500D01*
X8431007Y-57030500D01*
X8568996Y-57030500D01*
X8568996Y-57030499D01*
X8704328Y-57003580D01*
X8831811Y-56950775D01*
X8888209Y-56913091D01*
X8946535Y-56874119D01*
X8946536Y-56874117D01*
X8946542Y-56874114D01*
X8996868Y-56823788D01*
X25942300Y-56823788D01*
X25942300Y-56942411D01*
X25972999Y-57056981D01*
X25973003Y-57056991D01*
X26032306Y-57159706D01*
X26032309Y-57159710D01*
X26032311Y-57159713D01*
X26116187Y-57243589D01*
X26116190Y-57243591D01*
X26116193Y-57243593D01*
X26218908Y-57302896D01*
X26218910Y-57302897D01*
X26218914Y-57302899D01*
X26218918Y-57302900D01*
X26333489Y-57333600D01*
X26333491Y-57333600D01*
X26452110Y-57333600D01*
X26502626Y-57320063D01*
X26566686Y-57302899D01*
X26669413Y-57243589D01*
X26753289Y-57159713D01*
X26812599Y-57056986D01*
X26841058Y-56950777D01*
X26843300Y-56942411D01*
X26843300Y-56823788D01*
X26812600Y-56709218D01*
X26812599Y-56709214D01*
X26811096Y-56706610D01*
X26795668Y-56679888D01*
X38951200Y-56679888D01*
X38951200Y-56798511D01*
X38981899Y-56913081D01*
X38981903Y-56913091D01*
X39041206Y-57015806D01*
X39041209Y-57015810D01*
X39041211Y-57015813D01*
X39125087Y-57099689D01*
X39125090Y-57099691D01*
X39125093Y-57099693D01*
X39227808Y-57158996D01*
X39227810Y-57158997D01*
X39227814Y-57158999D01*
X39227818Y-57159000D01*
X39342389Y-57189700D01*
X39342391Y-57189700D01*
X39461010Y-57189700D01*
X39511526Y-57176163D01*
X39575586Y-57158999D01*
X39678313Y-57099689D01*
X39762189Y-57015813D01*
X39821499Y-56913086D01*
X39845426Y-56823791D01*
X39852200Y-56798511D01*
X39852200Y-56679888D01*
X39821500Y-56565318D01*
X39821499Y-56565314D01*
X39803615Y-56534338D01*
X39762193Y-56462593D01*
X39762191Y-56462590D01*
X39762189Y-56462587D01*
X39678313Y-56378711D01*
X39678310Y-56378709D01*
X39678306Y-56378706D01*
X39575591Y-56319403D01*
X39575581Y-56319399D01*
X39461011Y-56288700D01*
X39461009Y-56288700D01*
X39342391Y-56288700D01*
X39342389Y-56288700D01*
X39227818Y-56319399D01*
X39227808Y-56319403D01*
X39125093Y-56378706D01*
X39125083Y-56378714D01*
X39041214Y-56462583D01*
X39041206Y-56462593D01*
X38981903Y-56565308D01*
X38981899Y-56565318D01*
X38951200Y-56679888D01*
X26795668Y-56679888D01*
X26753293Y-56606493D01*
X26753291Y-56606490D01*
X26753289Y-56606487D01*
X26669413Y-56522611D01*
X26669410Y-56522609D01*
X26669406Y-56522606D01*
X26566691Y-56463303D01*
X26566681Y-56463299D01*
X26452111Y-56432600D01*
X26452109Y-56432600D01*
X26333491Y-56432600D01*
X26333489Y-56432600D01*
X26218918Y-56463299D01*
X26218908Y-56463303D01*
X26116193Y-56522606D01*
X26116183Y-56522614D01*
X26032314Y-56606483D01*
X26032306Y-56606493D01*
X25973003Y-56709208D01*
X25972999Y-56709218D01*
X25942300Y-56823788D01*
X8996868Y-56823788D01*
X9044114Y-56776542D01*
X9120775Y-56661811D01*
X9173580Y-56534328D01*
X9200499Y-56398996D01*
X9200500Y-56398996D01*
X9200500Y-56261004D01*
X9200499Y-56261003D01*
X9173581Y-56125678D01*
X9173580Y-56125672D01*
X9173577Y-56125665D01*
X9173576Y-56125661D01*
X9120777Y-55998195D01*
X9120775Y-55998189D01*
X9120771Y-55998183D01*
X9120769Y-55998179D01*
X9044119Y-55883464D01*
X9044114Y-55883458D01*
X8946541Y-55785885D01*
X8946535Y-55785880D01*
X8831820Y-55709230D01*
X8831813Y-55709226D01*
X8831811Y-55709225D01*
X8831804Y-55709222D01*
X8704338Y-55656423D01*
X8704321Y-55656418D01*
X8568996Y-55629500D01*
X8568993Y-55629500D01*
X8431007Y-55629500D01*
X8431004Y-55629500D01*
X8295678Y-55656418D01*
X8295661Y-55656423D01*
X8168195Y-55709222D01*
X8168179Y-55709230D01*
X8053464Y-55785880D01*
X8053458Y-55785885D01*
X7955885Y-55883458D01*
X7955880Y-55883464D01*
X7879230Y-55998179D01*
X7879222Y-55998195D01*
X7826423Y-56125661D01*
X7826418Y-56125678D01*
X7799500Y-56261003D01*
X6200499Y-56261003D01*
X6173581Y-56125678D01*
X6173580Y-56125672D01*
X6173577Y-56125665D01*
X6173576Y-56125661D01*
X6120777Y-55998195D01*
X6120775Y-55998189D01*
X6120771Y-55998183D01*
X6120769Y-55998179D01*
X6044119Y-55883464D01*
X6044114Y-55883458D01*
X5946541Y-55785885D01*
X5946535Y-55785880D01*
X5831820Y-55709230D01*
X5831813Y-55709226D01*
X5831811Y-55709225D01*
X5831804Y-55709222D01*
X5704338Y-55656423D01*
X5704321Y-55656418D01*
X5568996Y-55629500D01*
X5568993Y-55629500D01*
X5431007Y-55629500D01*
X5431004Y-55629500D01*
X5295678Y-55656418D01*
X5295661Y-55656423D01*
X5168195Y-55709222D01*
X5168179Y-55709230D01*
X5053464Y-55785880D01*
X5053458Y-55785885D01*
X4955885Y-55883458D01*
X4955880Y-55883464D01*
X4879230Y-55998179D01*
X4879222Y-55998195D01*
X4826423Y-56125661D01*
X4826418Y-56125678D01*
X4799500Y-56261003D01*
X250500Y-56261003D01*
X250500Y-53377788D01*
X4237500Y-53377788D01*
X4237500Y-53496411D01*
X4268199Y-53610981D01*
X4268203Y-53610991D01*
X4327506Y-53713706D01*
X4327509Y-53713710D01*
X4327511Y-53713713D01*
X4411387Y-53797589D01*
X4411390Y-53797591D01*
X4411393Y-53797593D01*
X4514108Y-53856896D01*
X4514110Y-53856897D01*
X4514114Y-53856899D01*
X4514118Y-53856900D01*
X4628689Y-53887600D01*
X4628691Y-53887600D01*
X4747310Y-53887600D01*
X4797826Y-53874063D01*
X4861886Y-53856899D01*
X4964613Y-53797589D01*
X5048489Y-53713713D01*
X5107799Y-53610986D01*
X5109567Y-53604388D01*
X27665400Y-53604388D01*
X27665400Y-53723011D01*
X27696099Y-53837581D01*
X27696103Y-53837591D01*
X27755406Y-53940306D01*
X27755409Y-53940310D01*
X27755411Y-53940313D01*
X27839287Y-54024189D01*
X27839290Y-54024191D01*
X27839293Y-54024193D01*
X27942008Y-54083496D01*
X27942010Y-54083497D01*
X27942014Y-54083499D01*
X27942018Y-54083500D01*
X28056589Y-54114200D01*
X28056591Y-54114200D01*
X28175210Y-54114200D01*
X28225726Y-54100663D01*
X28289786Y-54083499D01*
X28392513Y-54024189D01*
X28476389Y-53940313D01*
X28535699Y-53837586D01*
X28547611Y-53793127D01*
X28566400Y-53723011D01*
X28566400Y-53653050D01*
X28584413Y-53609563D01*
X28627900Y-53591550D01*
X28671387Y-53609563D01*
X28687304Y-53637133D01*
X28693398Y-53659879D01*
X28693403Y-53659891D01*
X28752706Y-53762606D01*
X28752709Y-53762610D01*
X28752711Y-53762613D01*
X28836587Y-53846489D01*
X28836590Y-53846491D01*
X28836593Y-53846493D01*
X28939308Y-53905796D01*
X28939310Y-53905797D01*
X28939314Y-53905799D01*
X28939318Y-53905800D01*
X29053889Y-53936500D01*
X29053891Y-53936500D01*
X29172510Y-53936500D01*
X29223026Y-53922963D01*
X29287086Y-53905799D01*
X29389813Y-53846489D01*
X29473689Y-53762613D01*
X29532999Y-53659886D01*
X29551310Y-53591550D01*
X29563700Y-53545311D01*
X29563700Y-53426688D01*
X29533000Y-53312118D01*
X29532999Y-53312114D01*
X29504769Y-53263218D01*
X29473693Y-53209393D01*
X29473691Y-53209390D01*
X29473689Y-53209387D01*
X29389813Y-53125511D01*
X29389810Y-53125509D01*
X29389806Y-53125506D01*
X29287091Y-53066203D01*
X29287081Y-53066199D01*
X29172511Y-53035500D01*
X29172509Y-53035500D01*
X29053891Y-53035500D01*
X29053889Y-53035500D01*
X28939318Y-53066199D01*
X28939308Y-53066203D01*
X28836593Y-53125506D01*
X28836583Y-53125514D01*
X28752714Y-53209383D01*
X28752706Y-53209393D01*
X28693403Y-53312108D01*
X28693399Y-53312118D01*
X28662700Y-53426688D01*
X28662700Y-53496649D01*
X28644687Y-53540136D01*
X28601200Y-53558149D01*
X28557713Y-53540136D01*
X28541796Y-53512567D01*
X28535700Y-53489818D01*
X28535699Y-53489814D01*
X28499253Y-53426688D01*
X28476393Y-53387093D01*
X28476391Y-53387090D01*
X28476389Y-53387087D01*
X28392513Y-53303211D01*
X28392510Y-53303209D01*
X28392506Y-53303206D01*
X28289791Y-53243903D01*
X28289781Y-53243899D01*
X28175211Y-53213200D01*
X28175209Y-53213200D01*
X28056591Y-53213200D01*
X28056589Y-53213200D01*
X27942018Y-53243899D01*
X27942008Y-53243903D01*
X27839293Y-53303206D01*
X27839283Y-53303214D01*
X27755414Y-53387083D01*
X27755406Y-53387093D01*
X27696103Y-53489808D01*
X27696099Y-53489818D01*
X27665400Y-53604388D01*
X5109567Y-53604388D01*
X5113007Y-53591550D01*
X5114912Y-53584442D01*
X5138500Y-53496411D01*
X5138500Y-53377788D01*
X5107800Y-53263218D01*
X5107799Y-53263214D01*
X5096649Y-53243901D01*
X5048493Y-53160493D01*
X5048491Y-53160490D01*
X5048489Y-53160487D01*
X4964613Y-53076611D01*
X4964610Y-53076609D01*
X4964606Y-53076606D01*
X4861891Y-53017303D01*
X4861881Y-53017299D01*
X4747311Y-52986600D01*
X4747309Y-52986600D01*
X4628691Y-52986600D01*
X4628689Y-52986600D01*
X4514118Y-53017299D01*
X4514108Y-53017303D01*
X4411393Y-53076606D01*
X4411383Y-53076614D01*
X4327514Y-53160483D01*
X4327506Y-53160493D01*
X4268203Y-53263208D01*
X4268199Y-53263218D01*
X4237500Y-53377788D01*
X250500Y-53377788D01*
X250500Y-49320726D01*
X5199500Y-49320726D01*
X5199500Y-50679273D01*
X5202353Y-50709693D01*
X5202354Y-50709701D01*
X5228804Y-50785289D01*
X5247207Y-50837882D01*
X5327850Y-50947150D01*
X5437118Y-51027793D01*
X5565301Y-51072646D01*
X5577981Y-51073835D01*
X5595727Y-51075500D01*
X5595734Y-51075500D01*
X6404273Y-51075500D01*
X6420653Y-51073963D01*
X6434699Y-51072646D01*
X6562882Y-51027793D01*
X6672150Y-50947150D01*
X6752793Y-50837882D01*
X6797646Y-50709699D01*
X6798963Y-50695653D01*
X6800500Y-50679273D01*
X6800500Y-49646154D01*
X9199500Y-49646154D01*
X9199500Y-50353845D01*
X9230261Y-50508490D01*
X9230263Y-50508498D01*
X9290607Y-50654181D01*
X9290611Y-50654188D01*
X9378205Y-50785282D01*
X9378210Y-50785288D01*
X9489711Y-50896789D01*
X9489717Y-50896794D01*
X9620811Y-50984388D01*
X9620818Y-50984392D01*
X9620821Y-50984394D01*
X9766503Y-51044737D01*
X9921154Y-51075499D01*
X9921155Y-51075500D01*
X9921158Y-51075500D01*
X10078845Y-51075500D01*
X10078845Y-51075499D01*
X10233497Y-51044737D01*
X10379179Y-50984394D01*
X10510289Y-50896789D01*
X10621789Y-50785289D01*
X10709394Y-50654179D01*
X10769737Y-50508497D01*
X10800499Y-50353845D01*
X10800500Y-50353845D01*
X10800500Y-49646155D01*
X10800499Y-49646154D01*
X10793445Y-49610693D01*
X10769737Y-49491503D01*
X10709394Y-49345821D01*
X10709392Y-49345818D01*
X10709388Y-49345811D01*
X10621794Y-49214717D01*
X10621789Y-49214711D01*
X10510288Y-49103210D01*
X10510282Y-49103205D01*
X10379188Y-49015611D01*
X10379181Y-49015607D01*
X10379179Y-49015606D01*
X10272565Y-48971445D01*
X10233498Y-48955263D01*
X10233490Y-48955261D01*
X10144642Y-48937588D01*
X16291500Y-48937588D01*
X16291500Y-49056211D01*
X16322199Y-49170781D01*
X16322203Y-49170791D01*
X16381506Y-49273506D01*
X16381509Y-49273510D01*
X16381511Y-49273513D01*
X16465387Y-49357389D01*
X16465390Y-49357391D01*
X16465393Y-49357393D01*
X16568108Y-49416696D01*
X16568110Y-49416697D01*
X16568114Y-49416699D01*
X16568118Y-49416700D01*
X16682689Y-49447400D01*
X16682691Y-49447400D01*
X16801310Y-49447400D01*
X16852188Y-49433767D01*
X16915886Y-49416699D01*
X17018613Y-49357389D01*
X17102489Y-49273513D01*
X17161799Y-49170786D01*
X17179906Y-49103210D01*
X17192500Y-49056211D01*
X17192500Y-48937588D01*
X17161800Y-48823018D01*
X17161799Y-48823014D01*
X17161796Y-48823008D01*
X17102493Y-48720293D01*
X17102491Y-48720290D01*
X17102489Y-48720287D01*
X17018613Y-48636411D01*
X17018610Y-48636409D01*
X17018606Y-48636406D01*
X16915891Y-48577103D01*
X16915881Y-48577099D01*
X16801311Y-48546400D01*
X16801309Y-48546400D01*
X16682691Y-48546400D01*
X16682689Y-48546400D01*
X16568118Y-48577099D01*
X16568108Y-48577103D01*
X16465393Y-48636406D01*
X16465383Y-48636414D01*
X16381514Y-48720283D01*
X16381506Y-48720293D01*
X16322203Y-48823008D01*
X16322199Y-48823018D01*
X16291500Y-48937588D01*
X10144642Y-48937588D01*
X10078845Y-48924500D01*
X10078842Y-48924500D01*
X9921158Y-48924500D01*
X9921155Y-48924500D01*
X9766509Y-48955261D01*
X9766501Y-48955263D01*
X9620818Y-49015607D01*
X9620811Y-49015611D01*
X9489717Y-49103205D01*
X9489711Y-49103210D01*
X9378210Y-49214711D01*
X9378205Y-49214717D01*
X9290611Y-49345811D01*
X9290607Y-49345818D01*
X9230263Y-49491501D01*
X9230261Y-49491509D01*
X9199500Y-49646154D01*
X6800500Y-49646154D01*
X6800500Y-49320726D01*
X6797646Y-49290306D01*
X6797646Y-49290301D01*
X6752793Y-49162118D01*
X6672150Y-49052850D01*
X6562882Y-48972207D01*
X6514459Y-48955263D01*
X6434701Y-48927354D01*
X6434693Y-48927353D01*
X6404273Y-48924500D01*
X6404266Y-48924500D01*
X5595734Y-48924500D01*
X5595727Y-48924500D01*
X5565306Y-48927353D01*
X5565298Y-48927354D01*
X5437117Y-48972207D01*
X5327850Y-49052850D01*
X5247207Y-49162117D01*
X5202354Y-49290298D01*
X5202353Y-49290306D01*
X5199500Y-49320726D01*
X250500Y-49320726D01*
X250500Y-42130248D01*
X8949500Y-42130248D01*
X8949500Y-43869751D01*
X8961131Y-43928224D01*
X8961132Y-43928228D01*
X8961133Y-43928231D01*
X9005448Y-43994552D01*
X9071769Y-44038867D01*
X9130248Y-44050499D01*
X9130249Y-44050500D01*
X9130252Y-44050500D01*
X10869751Y-44050500D01*
X10869751Y-44050499D01*
X10928231Y-44038867D01*
X10994552Y-43994552D01*
X11038867Y-43928231D01*
X11050499Y-43869751D01*
X11050500Y-43869751D01*
X11050500Y-42130249D01*
X11050499Y-42130248D01*
X11038868Y-42071775D01*
X11038867Y-42071769D01*
X10994552Y-42005448D01*
X10928231Y-41961133D01*
X10928228Y-41961132D01*
X10928224Y-41961131D01*
X10869751Y-41949500D01*
X10869748Y-41949500D01*
X9130252Y-41949500D01*
X9130249Y-41949500D01*
X9071775Y-41961131D01*
X9071769Y-41961133D01*
X9005448Y-42005448D01*
X8961133Y-42071769D01*
X8961131Y-42071775D01*
X8949500Y-42130248D01*
X250500Y-42130248D01*
X250500Y-39650172D01*
X22929500Y-39650172D01*
X22929500Y-48250172D01*
X22929500Y-48349828D01*
X22967636Y-48441897D01*
X23038103Y-48512364D01*
X23130172Y-48550500D01*
X23612939Y-48550500D01*
X23656426Y-48568513D01*
X23674439Y-48612000D01*
X23656426Y-48655487D01*
X23647106Y-48663135D01*
X23607844Y-48689368D01*
X23607838Y-48689373D01*
X23489373Y-48807838D01*
X23489372Y-48807840D01*
X23396299Y-48947132D01*
X23396294Y-48947142D01*
X23332187Y-49101907D01*
X23332182Y-49101923D01*
X23299500Y-49266229D01*
X23299500Y-49433770D01*
X23332182Y-49598076D01*
X23332187Y-49598092D01*
X23396294Y-49752857D01*
X23396299Y-49752867D01*
X23420972Y-49789792D01*
X23489374Y-49892162D01*
X23607838Y-50010626D01*
X23677018Y-50056851D01*
X23747132Y-50103700D01*
X23747134Y-50103701D01*
X23747137Y-50103703D01*
X23747142Y-50103705D01*
X23901907Y-50167812D01*
X23901912Y-50167813D01*
X23901918Y-50167816D01*
X24066229Y-50200499D01*
X24066230Y-50200500D01*
X24066233Y-50200500D01*
X24233770Y-50200500D01*
X24233770Y-50200499D01*
X24398082Y-50167816D01*
X24407498Y-50163916D01*
X24433158Y-50153286D01*
X24552863Y-50103703D01*
X24692162Y-50010626D01*
X24810626Y-49892162D01*
X24903703Y-49752863D01*
X24962595Y-49610687D01*
X24967812Y-49598092D01*
X24967812Y-49598090D01*
X24967816Y-49598082D01*
X24979682Y-49538429D01*
X25005832Y-49499292D01*
X25051998Y-49490109D01*
X25091135Y-49516259D01*
X25100318Y-49538429D01*
X25112182Y-49598076D01*
X25112187Y-49598092D01*
X25176294Y-49752857D01*
X25176299Y-49752867D01*
X25200972Y-49789792D01*
X25269374Y-49892162D01*
X25387838Y-50010626D01*
X25457018Y-50056851D01*
X25527132Y-50103700D01*
X25527134Y-50103701D01*
X25527137Y-50103703D01*
X25527142Y-50103705D01*
X25681907Y-50167812D01*
X25681912Y-50167813D01*
X25681918Y-50167816D01*
X25846229Y-50200499D01*
X25846230Y-50200500D01*
X25846233Y-50200500D01*
X26013770Y-50200500D01*
X26013770Y-50200499D01*
X26178082Y-50167816D01*
X26187498Y-50163916D01*
X26213158Y-50153286D01*
X26332863Y-50103703D01*
X26472162Y-50010626D01*
X26590626Y-49892162D01*
X26683703Y-49752863D01*
X26742595Y-49610687D01*
X26747812Y-49598092D01*
X26747812Y-49598090D01*
X26747816Y-49598082D01*
X26759682Y-49538429D01*
X26785832Y-49499292D01*
X26831998Y-49490109D01*
X26871135Y-49516259D01*
X26880318Y-49538429D01*
X26892182Y-49598076D01*
X26892187Y-49598092D01*
X26956294Y-49752857D01*
X26956299Y-49752867D01*
X26980972Y-49789792D01*
X27049374Y-49892162D01*
X27167838Y-50010626D01*
X27237018Y-50056851D01*
X27307132Y-50103700D01*
X27307134Y-50103701D01*
X27307137Y-50103703D01*
X27307142Y-50103705D01*
X27461907Y-50167812D01*
X27461912Y-50167813D01*
X27461918Y-50167816D01*
X27626229Y-50200499D01*
X27626230Y-50200500D01*
X27626233Y-50200500D01*
X27793770Y-50200500D01*
X27793770Y-50200499D01*
X27958082Y-50167816D01*
X27967498Y-50163916D01*
X27993158Y-50153286D01*
X28112863Y-50103703D01*
X28252162Y-50010626D01*
X28370626Y-49892162D01*
X28463703Y-49752863D01*
X28522595Y-49610687D01*
X28527812Y-49598092D01*
X28527812Y-49598090D01*
X28527816Y-49598082D01*
X28539682Y-49538429D01*
X28565832Y-49499292D01*
X28611998Y-49490109D01*
X28651135Y-49516259D01*
X28660318Y-49538429D01*
X28672182Y-49598076D01*
X28672187Y-49598092D01*
X28736294Y-49752857D01*
X28736299Y-49752867D01*
X28760972Y-49789792D01*
X28829374Y-49892162D01*
X28947838Y-50010626D01*
X29017018Y-50056851D01*
X29087132Y-50103700D01*
X29087134Y-50103701D01*
X29087137Y-50103703D01*
X29087142Y-50103705D01*
X29241907Y-50167812D01*
X29241912Y-50167813D01*
X29241918Y-50167816D01*
X29406229Y-50200499D01*
X29406230Y-50200500D01*
X29406233Y-50200500D01*
X29573770Y-50200500D01*
X29573770Y-50200499D01*
X29738082Y-50167816D01*
X29747498Y-50163916D01*
X29773158Y-50153286D01*
X29892863Y-50103703D01*
X30032162Y-50010626D01*
X30150626Y-49892162D01*
X30243703Y-49752863D01*
X30302595Y-49610687D01*
X30307812Y-49598092D01*
X30307812Y-49598090D01*
X30307816Y-49598082D01*
X30319682Y-49538429D01*
X30345832Y-49499292D01*
X30391998Y-49490109D01*
X30431135Y-49516259D01*
X30440318Y-49538429D01*
X30452182Y-49598076D01*
X30452187Y-49598092D01*
X30516294Y-49752857D01*
X30516299Y-49752867D01*
X30540972Y-49789792D01*
X30609374Y-49892162D01*
X30727838Y-50010626D01*
X30797018Y-50056851D01*
X30867132Y-50103700D01*
X30867134Y-50103701D01*
X30867137Y-50103703D01*
X30867142Y-50103705D01*
X31021907Y-50167812D01*
X31021912Y-50167813D01*
X31021918Y-50167816D01*
X31186229Y-50200499D01*
X31186230Y-50200500D01*
X31186233Y-50200500D01*
X31353770Y-50200500D01*
X31353770Y-50200499D01*
X31518082Y-50167816D01*
X31527498Y-50163916D01*
X31553158Y-50153286D01*
X31672863Y-50103703D01*
X31812162Y-50010626D01*
X31930626Y-49892162D01*
X32023703Y-49752863D01*
X32082595Y-49610687D01*
X32087812Y-49598092D01*
X32087812Y-49598090D01*
X32087816Y-49598082D01*
X32099682Y-49538429D01*
X32125832Y-49499292D01*
X32171998Y-49490109D01*
X32211135Y-49516259D01*
X32220318Y-49538429D01*
X32232182Y-49598076D01*
X32232187Y-49598092D01*
X32296294Y-49752857D01*
X32296299Y-49752867D01*
X32320972Y-49789792D01*
X32389374Y-49892162D01*
X32507838Y-50010626D01*
X32577018Y-50056851D01*
X32647132Y-50103700D01*
X32647134Y-50103701D01*
X32647137Y-50103703D01*
X32647142Y-50103705D01*
X32801907Y-50167812D01*
X32801912Y-50167813D01*
X32801918Y-50167816D01*
X32966229Y-50200499D01*
X32966230Y-50200500D01*
X32966233Y-50200500D01*
X33133770Y-50200500D01*
X33133770Y-50200499D01*
X33298082Y-50167816D01*
X33307498Y-50163916D01*
X33333158Y-50153286D01*
X33452863Y-50103703D01*
X33592162Y-50010626D01*
X33710626Y-49892162D01*
X33803703Y-49752863D01*
X33862595Y-49610687D01*
X33867812Y-49598092D01*
X33867812Y-49598090D01*
X33867816Y-49598082D01*
X33879682Y-49538429D01*
X33905832Y-49499292D01*
X33951998Y-49490109D01*
X33991135Y-49516259D01*
X34000318Y-49538429D01*
X34012182Y-49598076D01*
X34012187Y-49598092D01*
X34076294Y-49752857D01*
X34076299Y-49752867D01*
X34100972Y-49789792D01*
X34169374Y-49892162D01*
X34287838Y-50010626D01*
X34357018Y-50056851D01*
X34427132Y-50103700D01*
X34427134Y-50103701D01*
X34427137Y-50103703D01*
X34427142Y-50103705D01*
X34581907Y-50167812D01*
X34581912Y-50167813D01*
X34581918Y-50167816D01*
X34746229Y-50200499D01*
X34746230Y-50200500D01*
X34746233Y-50200500D01*
X34913770Y-50200500D01*
X34913770Y-50200499D01*
X35078082Y-50167816D01*
X35087498Y-50163916D01*
X35113158Y-50153286D01*
X35232863Y-50103703D01*
X35372162Y-50010626D01*
X35490626Y-49892162D01*
X35583703Y-49752863D01*
X35642595Y-49610687D01*
X35647812Y-49598092D01*
X35647812Y-49598090D01*
X35647816Y-49598082D01*
X35659682Y-49538429D01*
X35685832Y-49499292D01*
X35731998Y-49490109D01*
X35771135Y-49516259D01*
X35780318Y-49538429D01*
X35792182Y-49598076D01*
X35792187Y-49598092D01*
X35856294Y-49752857D01*
X35856299Y-49752867D01*
X35880972Y-49789792D01*
X35949374Y-49892162D01*
X36067838Y-50010626D01*
X36137018Y-50056851D01*
X36207132Y-50103700D01*
X36207134Y-50103701D01*
X36207137Y-50103703D01*
X36207142Y-50103705D01*
X36361907Y-50167812D01*
X36361912Y-50167813D01*
X36361918Y-50167816D01*
X36526229Y-50200499D01*
X36526230Y-50200500D01*
X36526233Y-50200500D01*
X36693770Y-50200500D01*
X36693770Y-50200499D01*
X36858082Y-50167816D01*
X36867498Y-50163916D01*
X36893158Y-50153286D01*
X37012863Y-50103703D01*
X37152162Y-50010626D01*
X37270626Y-49892162D01*
X37313506Y-49827988D01*
X45774500Y-49827988D01*
X45774500Y-49946611D01*
X45805199Y-50061181D01*
X45805203Y-50061191D01*
X45864506Y-50163906D01*
X45864509Y-50163910D01*
X45864511Y-50163913D01*
X45948387Y-50247789D01*
X45948390Y-50247791D01*
X45948393Y-50247793D01*
X46051108Y-50307096D01*
X46051110Y-50307097D01*
X46051114Y-50307099D01*
X46051118Y-50307100D01*
X46165689Y-50337800D01*
X46165691Y-50337800D01*
X46284310Y-50337800D01*
X46334826Y-50324263D01*
X46398886Y-50307099D01*
X46501613Y-50247789D01*
X46585489Y-50163913D01*
X46644799Y-50061186D01*
X46658347Y-50010626D01*
X46675500Y-49946611D01*
X46675500Y-49827988D01*
X46644800Y-49713418D01*
X46644799Y-49713414D01*
X46644796Y-49713408D01*
X46585493Y-49610693D01*
X46585491Y-49610690D01*
X46585489Y-49610687D01*
X46501613Y-49526811D01*
X46501610Y-49526809D01*
X46501606Y-49526806D01*
X46398891Y-49467503D01*
X46398881Y-49467499D01*
X46284311Y-49436800D01*
X46284309Y-49436800D01*
X46165691Y-49436800D01*
X46165689Y-49436800D01*
X46051118Y-49467499D01*
X46051108Y-49467503D01*
X45948393Y-49526806D01*
X45948383Y-49526814D01*
X45864514Y-49610683D01*
X45864506Y-49610693D01*
X45805203Y-49713408D01*
X45805199Y-49713418D01*
X45774500Y-49827988D01*
X37313506Y-49827988D01*
X37363703Y-49752863D01*
X37422595Y-49610687D01*
X37427812Y-49598092D01*
X37427812Y-49598090D01*
X37427816Y-49598082D01*
X37460499Y-49433770D01*
X37460500Y-49433770D01*
X37460500Y-49266230D01*
X37460499Y-49266229D01*
X37441515Y-49170791D01*
X37427816Y-49101918D01*
X37427813Y-49101912D01*
X37427812Y-49101907D01*
X37363705Y-48947142D01*
X37363700Y-48947132D01*
X37270627Y-48807840D01*
X37270626Y-48807838D01*
X37152161Y-48689373D01*
X37152155Y-48689368D01*
X37112894Y-48663135D01*
X37086743Y-48623998D01*
X37095926Y-48577833D01*
X37135063Y-48551682D01*
X37147061Y-48550500D01*
X40489827Y-48550500D01*
X40489828Y-48550500D01*
X40581897Y-48512364D01*
X40652364Y-48441897D01*
X40690500Y-48349828D01*
X40690500Y-44748988D01*
X42791200Y-44748988D01*
X42791200Y-44867611D01*
X42821899Y-44982181D01*
X42821903Y-44982191D01*
X42881206Y-45084906D01*
X42881209Y-45084910D01*
X42881211Y-45084913D01*
X42965087Y-45168789D01*
X42965090Y-45168791D01*
X42965093Y-45168793D01*
X43067808Y-45228096D01*
X43067810Y-45228097D01*
X43067814Y-45228099D01*
X43067818Y-45228100D01*
X43182389Y-45258800D01*
X43182391Y-45258800D01*
X43301010Y-45258800D01*
X43351526Y-45245263D01*
X43415586Y-45228099D01*
X43518313Y-45168789D01*
X43602189Y-45084913D01*
X43661499Y-44982186D01*
X43673411Y-44937727D01*
X43692200Y-44867611D01*
X43692200Y-44748988D01*
X43661500Y-44634418D01*
X43661499Y-44634414D01*
X43661496Y-44634408D01*
X43602193Y-44531693D01*
X43602191Y-44531690D01*
X43602189Y-44531687D01*
X43518313Y-44447811D01*
X43518310Y-44447809D01*
X43518306Y-44447806D01*
X43415591Y-44388503D01*
X43415581Y-44388499D01*
X43301011Y-44357800D01*
X43301009Y-44357800D01*
X43182391Y-44357800D01*
X43182389Y-44357800D01*
X43067818Y-44388499D01*
X43067808Y-44388503D01*
X42965093Y-44447806D01*
X42965083Y-44447814D01*
X42881214Y-44531683D01*
X42881206Y-44531693D01*
X42821903Y-44634408D01*
X42821899Y-44634418D01*
X42791200Y-44748988D01*
X40690500Y-44748988D01*
X40690500Y-42803788D01*
X48724500Y-42803788D01*
X48724500Y-42922411D01*
X48755199Y-43036981D01*
X48755203Y-43036991D01*
X48814506Y-43139706D01*
X48814509Y-43139710D01*
X48814511Y-43139713D01*
X48898387Y-43223589D01*
X48898390Y-43223591D01*
X48898393Y-43223593D01*
X49001108Y-43282896D01*
X49001110Y-43282897D01*
X49001114Y-43282899D01*
X49001118Y-43282900D01*
X49115689Y-43313600D01*
X49115691Y-43313600D01*
X49234310Y-43313600D01*
X49321265Y-43290300D01*
X49348886Y-43282899D01*
X49451613Y-43223589D01*
X49535489Y-43139713D01*
X49594799Y-43036986D01*
X49623517Y-42929811D01*
X49625500Y-42922411D01*
X49625500Y-42811188D01*
X50372900Y-42811188D01*
X50372900Y-42929811D01*
X50403599Y-43044381D01*
X50403603Y-43044391D01*
X50462906Y-43147106D01*
X50462909Y-43147110D01*
X50462911Y-43147113D01*
X50546787Y-43230989D01*
X50546790Y-43230991D01*
X50546793Y-43230993D01*
X50649508Y-43290296D01*
X50649510Y-43290297D01*
X50649514Y-43290299D01*
X50649518Y-43290300D01*
X50764089Y-43321000D01*
X50764091Y-43321000D01*
X50882710Y-43321000D01*
X50933226Y-43307463D01*
X50997286Y-43290299D01*
X51100013Y-43230989D01*
X51183889Y-43147113D01*
X51243199Y-43044386D01*
X51255111Y-42999927D01*
X51273900Y-42929811D01*
X51273900Y-42811188D01*
X51243200Y-42696618D01*
X51243199Y-42696614D01*
X51238927Y-42689214D01*
X51183893Y-42593893D01*
X51183891Y-42593890D01*
X51183889Y-42593887D01*
X51100013Y-42510011D01*
X51100010Y-42510009D01*
X51100006Y-42510006D01*
X50997291Y-42450703D01*
X50997281Y-42450699D01*
X50882711Y-42420000D01*
X50882709Y-42420000D01*
X50764091Y-42420000D01*
X50764089Y-42420000D01*
X50649518Y-42450699D01*
X50649508Y-42450703D01*
X50546793Y-42510006D01*
X50546783Y-42510014D01*
X50462914Y-42593883D01*
X50462906Y-42593893D01*
X50403603Y-42696608D01*
X50403599Y-42696618D01*
X50372900Y-42811188D01*
X49625500Y-42811188D01*
X49625500Y-42803788D01*
X49594800Y-42689218D01*
X49594799Y-42689214D01*
X49539765Y-42593893D01*
X49535493Y-42586493D01*
X49535491Y-42586490D01*
X49535489Y-42586487D01*
X49451613Y-42502611D01*
X49451610Y-42502609D01*
X49451606Y-42502606D01*
X49348891Y-42443303D01*
X49348881Y-42443299D01*
X49234311Y-42412600D01*
X49234309Y-42412600D01*
X49115691Y-42412600D01*
X49115689Y-42412600D01*
X49001118Y-42443299D01*
X49001108Y-42443303D01*
X48898393Y-42502606D01*
X48898383Y-42502614D01*
X48814514Y-42586483D01*
X48814506Y-42586493D01*
X48755203Y-42689208D01*
X48755199Y-42689218D01*
X48724500Y-42803788D01*
X40690500Y-42803788D01*
X40690500Y-39650172D01*
X40652364Y-39558103D01*
X40581897Y-39487636D01*
X40489828Y-39449500D01*
X38197061Y-39449500D01*
X38153574Y-39431487D01*
X38135561Y-39388000D01*
X38153574Y-39344513D01*
X38162894Y-39336865D01*
X38202155Y-39310631D01*
X38202156Y-39310629D01*
X38202162Y-39310626D01*
X38320626Y-39192162D01*
X38413703Y-39052863D01*
X38477816Y-38898082D01*
X38510499Y-38733770D01*
X38510500Y-38733770D01*
X38510500Y-38566230D01*
X38510499Y-38566229D01*
X38477817Y-38401923D01*
X38477816Y-38401922D01*
X38477816Y-38401918D01*
X38477813Y-38401912D01*
X38477812Y-38401907D01*
X38413705Y-38247142D01*
X38413700Y-38247132D01*
X38333220Y-38126686D01*
X38320626Y-38107838D01*
X38202162Y-37989374D01*
X38201224Y-37988747D01*
X38062867Y-37896299D01*
X38062857Y-37896294D01*
X37908092Y-37832187D01*
X37908076Y-37832182D01*
X37743770Y-37799500D01*
X37743767Y-37799500D01*
X37576233Y-37799500D01*
X37576230Y-37799500D01*
X37411923Y-37832182D01*
X37411907Y-37832187D01*
X37257142Y-37896294D01*
X37257132Y-37896299D01*
X37117840Y-37989372D01*
X37117838Y-37989373D01*
X36999373Y-38107838D01*
X36999372Y-38107840D01*
X36906299Y-38247132D01*
X36906294Y-38247142D01*
X36842187Y-38401907D01*
X36842182Y-38401923D01*
X36830318Y-38461570D01*
X36804167Y-38500707D01*
X36758002Y-38509890D01*
X36718865Y-38483739D01*
X36709682Y-38461570D01*
X36697817Y-38401923D01*
X36697816Y-38401922D01*
X36697816Y-38401918D01*
X36697813Y-38401912D01*
X36697812Y-38401907D01*
X36633705Y-38247142D01*
X36633700Y-38247132D01*
X36553220Y-38126686D01*
X36540626Y-38107838D01*
X36422162Y-37989374D01*
X36421224Y-37988747D01*
X36282867Y-37896299D01*
X36282857Y-37896294D01*
X36128092Y-37832187D01*
X36128076Y-37832182D01*
X35963770Y-37799500D01*
X35963767Y-37799500D01*
X35796233Y-37799500D01*
X35796230Y-37799500D01*
X35631923Y-37832182D01*
X35631907Y-37832187D01*
X35477142Y-37896294D01*
X35477132Y-37896299D01*
X35337840Y-37989372D01*
X35337838Y-37989373D01*
X35219373Y-38107838D01*
X35219372Y-38107840D01*
X35126299Y-38247132D01*
X35126294Y-38247142D01*
X35062187Y-38401907D01*
X35062182Y-38401923D01*
X35029500Y-38566229D01*
X35029500Y-38733770D01*
X35062182Y-38898076D01*
X35062187Y-38898092D01*
X35126294Y-39052857D01*
X35126299Y-39052867D01*
X35219372Y-39192159D01*
X35219373Y-39192161D01*
X35337838Y-39310626D01*
X35337844Y-39310631D01*
X35377106Y-39336865D01*
X35403257Y-39376002D01*
X35394074Y-39422167D01*
X35354937Y-39448318D01*
X35342939Y-39449500D01*
X32857061Y-39449500D01*
X32813574Y-39431487D01*
X32795561Y-39388000D01*
X32813574Y-39344513D01*
X32822894Y-39336865D01*
X32862155Y-39310631D01*
X32862156Y-39310629D01*
X32862162Y-39310626D01*
X32980626Y-39192162D01*
X33073703Y-39052863D01*
X33137816Y-38898082D01*
X33170499Y-38733770D01*
X33170500Y-38733770D01*
X33170500Y-38566230D01*
X33170499Y-38566229D01*
X33137817Y-38401923D01*
X33137816Y-38401922D01*
X33137816Y-38401918D01*
X33137813Y-38401912D01*
X33137812Y-38401907D01*
X33073705Y-38247142D01*
X33073700Y-38247132D01*
X32993220Y-38126686D01*
X32980626Y-38107838D01*
X32862162Y-37989374D01*
X32861224Y-37988747D01*
X32722867Y-37896299D01*
X32722857Y-37896294D01*
X32568092Y-37832187D01*
X32568076Y-37832182D01*
X32403770Y-37799500D01*
X32403767Y-37799500D01*
X32236233Y-37799500D01*
X32236230Y-37799500D01*
X32071923Y-37832182D01*
X32071907Y-37832187D01*
X31917142Y-37896294D01*
X31917132Y-37896299D01*
X31777840Y-37989372D01*
X31777838Y-37989373D01*
X31659373Y-38107838D01*
X31659372Y-38107840D01*
X31566299Y-38247132D01*
X31566294Y-38247142D01*
X31502187Y-38401907D01*
X31502182Y-38401923D01*
X31490318Y-38461570D01*
X31464167Y-38500707D01*
X31418002Y-38509890D01*
X31378865Y-38483739D01*
X31369682Y-38461570D01*
X31357817Y-38401923D01*
X31357816Y-38401922D01*
X31357816Y-38401918D01*
X31357813Y-38401912D01*
X31357812Y-38401907D01*
X31293705Y-38247142D01*
X31293700Y-38247132D01*
X31213220Y-38126686D01*
X31200626Y-38107838D01*
X31082162Y-37989374D01*
X31081224Y-37988747D01*
X30942867Y-37896299D01*
X30942857Y-37896294D01*
X30788092Y-37832187D01*
X30788076Y-37832182D01*
X30623770Y-37799500D01*
X30623767Y-37799500D01*
X30456233Y-37799500D01*
X30456230Y-37799500D01*
X30291923Y-37832182D01*
X30291907Y-37832187D01*
X30137142Y-37896294D01*
X30137132Y-37896299D01*
X29997840Y-37989372D01*
X29997838Y-37989373D01*
X29879373Y-38107838D01*
X29879372Y-38107840D01*
X29786299Y-38247132D01*
X29786294Y-38247142D01*
X29722187Y-38401907D01*
X29722182Y-38401923D01*
X29710318Y-38461570D01*
X29684167Y-38500707D01*
X29638002Y-38509890D01*
X29598865Y-38483739D01*
X29589682Y-38461570D01*
X29577817Y-38401923D01*
X29577816Y-38401922D01*
X29577816Y-38401918D01*
X29577813Y-38401912D01*
X29577812Y-38401907D01*
X29513705Y-38247142D01*
X29513700Y-38247132D01*
X29433220Y-38126686D01*
X29420626Y-38107838D01*
X29302162Y-37989374D01*
X29301224Y-37988747D01*
X29162867Y-37896299D01*
X29162857Y-37896294D01*
X29008092Y-37832187D01*
X29008076Y-37832182D01*
X28843770Y-37799500D01*
X28843767Y-37799500D01*
X28676233Y-37799500D01*
X28676230Y-37799500D01*
X28511923Y-37832182D01*
X28511907Y-37832187D01*
X28357142Y-37896294D01*
X28357132Y-37896299D01*
X28217840Y-37989372D01*
X28217838Y-37989373D01*
X28099373Y-38107838D01*
X28099372Y-38107840D01*
X28006299Y-38247132D01*
X28006294Y-38247142D01*
X27942187Y-38401907D01*
X27942182Y-38401923D01*
X27930318Y-38461570D01*
X27904167Y-38500707D01*
X27858002Y-38509890D01*
X27818865Y-38483739D01*
X27809682Y-38461570D01*
X27797817Y-38401923D01*
X27797816Y-38401922D01*
X27797816Y-38401918D01*
X27797813Y-38401912D01*
X27797812Y-38401907D01*
X27733705Y-38247142D01*
X27733700Y-38247132D01*
X27653220Y-38126686D01*
X27640626Y-38107838D01*
X27522162Y-37989374D01*
X27521224Y-37988747D01*
X27382867Y-37896299D01*
X27382857Y-37896294D01*
X27228092Y-37832187D01*
X27228076Y-37832182D01*
X27063770Y-37799500D01*
X27063767Y-37799500D01*
X26896233Y-37799500D01*
X26896230Y-37799500D01*
X26731923Y-37832182D01*
X26731907Y-37832187D01*
X26577142Y-37896294D01*
X26577132Y-37896299D01*
X26437840Y-37989372D01*
X26437838Y-37989373D01*
X26319373Y-38107838D01*
X26319372Y-38107840D01*
X26226299Y-38247132D01*
X26226294Y-38247142D01*
X26162187Y-38401907D01*
X26162182Y-38401923D01*
X26129500Y-38566229D01*
X26129500Y-38733770D01*
X26162182Y-38898076D01*
X26162187Y-38898092D01*
X26226294Y-39052857D01*
X26226299Y-39052867D01*
X26319372Y-39192159D01*
X26319373Y-39192161D01*
X26437838Y-39310626D01*
X26437844Y-39310631D01*
X26477106Y-39336865D01*
X26503257Y-39376002D01*
X26494074Y-39422167D01*
X26454937Y-39448318D01*
X26442939Y-39449500D01*
X23130171Y-39449500D01*
X23038102Y-39487636D01*
X22967636Y-39558102D01*
X22967636Y-39558103D01*
X22929500Y-39650172D01*
X250500Y-39650172D01*
X250500Y-38719288D01*
X16549500Y-38719288D01*
X16549500Y-38837911D01*
X16580199Y-38952481D01*
X16580203Y-38952491D01*
X16639506Y-39055206D01*
X16639509Y-39055210D01*
X16639511Y-39055213D01*
X16723387Y-39139089D01*
X16723390Y-39139091D01*
X16723393Y-39139093D01*
X16826108Y-39198396D01*
X16826110Y-39198397D01*
X16826114Y-39198399D01*
X16826118Y-39198400D01*
X16940689Y-39229100D01*
X16940691Y-39229100D01*
X17059310Y-39229100D01*
X17109826Y-39215563D01*
X17173886Y-39198399D01*
X17276613Y-39139089D01*
X17360489Y-39055213D01*
X17419799Y-38952486D01*
X17450361Y-38838429D01*
X17450500Y-38837911D01*
X17450500Y-38719288D01*
X17419800Y-38604718D01*
X17419799Y-38604714D01*
X17397582Y-38566233D01*
X17360493Y-38501993D01*
X17360491Y-38501990D01*
X17360489Y-38501987D01*
X17276613Y-38418111D01*
X17276610Y-38418109D01*
X17276606Y-38418106D01*
X17173891Y-38358803D01*
X17173881Y-38358799D01*
X17059311Y-38328100D01*
X17059309Y-38328100D01*
X16940691Y-38328100D01*
X16940689Y-38328100D01*
X16826118Y-38358799D01*
X16826108Y-38358803D01*
X16723393Y-38418106D01*
X16723383Y-38418114D01*
X16639514Y-38501983D01*
X16639506Y-38501993D01*
X16580203Y-38604708D01*
X16580199Y-38604718D01*
X16549500Y-38719288D01*
X250500Y-38719288D01*
X250500Y-36130248D01*
X3949500Y-36130248D01*
X3949500Y-37869751D01*
X3961131Y-37928224D01*
X3961132Y-37928228D01*
X3961133Y-37928231D01*
X4005448Y-37994552D01*
X4071769Y-38038867D01*
X4130248Y-38050499D01*
X4130249Y-38050500D01*
X4130252Y-38050500D01*
X5869751Y-38050500D01*
X5869751Y-38050499D01*
X5928231Y-38038867D01*
X5994552Y-37994552D01*
X6038867Y-37928231D01*
X6045778Y-37893488D01*
X15599500Y-37893488D01*
X15599500Y-38012111D01*
X15630199Y-38126681D01*
X15630203Y-38126691D01*
X15689506Y-38229406D01*
X15689509Y-38229410D01*
X15689511Y-38229413D01*
X15773387Y-38313289D01*
X15773390Y-38313291D01*
X15773393Y-38313293D01*
X15876108Y-38372596D01*
X15876110Y-38372597D01*
X15876114Y-38372599D01*
X15876118Y-38372600D01*
X15990689Y-38403300D01*
X15990691Y-38403300D01*
X16109310Y-38403300D01*
X16159826Y-38389763D01*
X16223886Y-38372599D01*
X16326613Y-38313289D01*
X16410489Y-38229413D01*
X16469799Y-38126686D01*
X16490213Y-38050500D01*
X16500500Y-38012111D01*
X16500500Y-37893488D01*
X16469800Y-37778918D01*
X16469799Y-37778914D01*
X16469796Y-37778908D01*
X16410493Y-37676193D01*
X16410491Y-37676190D01*
X16410489Y-37676187D01*
X16326613Y-37592311D01*
X16326610Y-37592309D01*
X16326606Y-37592306D01*
X16223891Y-37533003D01*
X16223881Y-37532999D01*
X16109311Y-37502300D01*
X16109309Y-37502300D01*
X15990691Y-37502300D01*
X15990689Y-37502300D01*
X15876118Y-37532999D01*
X15876108Y-37533003D01*
X15773393Y-37592306D01*
X15773383Y-37592314D01*
X15689514Y-37676183D01*
X15689506Y-37676193D01*
X15630203Y-37778908D01*
X15630199Y-37778918D01*
X15599500Y-37893488D01*
X6045778Y-37893488D01*
X6050500Y-37869751D01*
X6050500Y-37869749D01*
X6050500Y-36130249D01*
X6050499Y-36130248D01*
X6038868Y-36071775D01*
X6038867Y-36071769D01*
X5994552Y-36005448D01*
X5928231Y-35961133D01*
X5928228Y-35961132D01*
X5928224Y-35961131D01*
X5869751Y-35949500D01*
X5869748Y-35949500D01*
X4130252Y-35949500D01*
X4130249Y-35949500D01*
X4071775Y-35961131D01*
X4071769Y-35961133D01*
X4005448Y-36005448D01*
X3961133Y-36071769D01*
X3961131Y-36071775D01*
X3949500Y-36130248D01*
X250500Y-36130248D01*
X250500Y-30976531D01*
X4949500Y-30976531D01*
X4949500Y-31183468D01*
X4989868Y-31386414D01*
X4989873Y-31386430D01*
X5069056Y-31577591D01*
X5069059Y-31577598D01*
X5069060Y-31577599D01*
X5184022Y-31749654D01*
X5330345Y-31895977D01*
X5330344Y-31895977D01*
X5416664Y-31953653D01*
X5502402Y-32010941D01*
X5591466Y-32047832D01*
X5693569Y-32090126D01*
X5693574Y-32090127D01*
X5693580Y-32090130D01*
X5896531Y-32130499D01*
X5896532Y-32130500D01*
X5896535Y-32130500D01*
X6103468Y-32130500D01*
X6103468Y-32130499D01*
X6306420Y-32090130D01*
X6497598Y-32010941D01*
X6669655Y-31895977D01*
X6815977Y-31749655D01*
X6930941Y-31577598D01*
X7010130Y-31386420D01*
X7050499Y-31183468D01*
X7050500Y-31183468D01*
X7050500Y-30976532D01*
X7050499Y-30976531D01*
X7010285Y-30774358D01*
X7010285Y-30774357D01*
X7010284Y-30774356D01*
X7010130Y-30773580D01*
X7010127Y-30773573D01*
X7010126Y-30773569D01*
X7007151Y-30766388D01*
X22567700Y-30766388D01*
X22567700Y-30885011D01*
X22598399Y-30999581D01*
X22598403Y-30999591D01*
X22657706Y-31102306D01*
X22657709Y-31102310D01*
X22657711Y-31102313D01*
X22741587Y-31186189D01*
X22741590Y-31186191D01*
X22741593Y-31186193D01*
X22844308Y-31245496D01*
X22844310Y-31245497D01*
X22844314Y-31245499D01*
X22844318Y-31245500D01*
X22958889Y-31276200D01*
X22958891Y-31276200D01*
X23077510Y-31276200D01*
X23128026Y-31262663D01*
X23192086Y-31245499D01*
X23294813Y-31186189D01*
X23378689Y-31102313D01*
X23437999Y-30999586D01*
X23449911Y-30955127D01*
X23468700Y-30885011D01*
X23468700Y-30766388D01*
X23438000Y-30651818D01*
X23437999Y-30651814D01*
X23437996Y-30651808D01*
X23378693Y-30549093D01*
X23378691Y-30549090D01*
X23378689Y-30549087D01*
X23294813Y-30465211D01*
X23294810Y-30465209D01*
X23294806Y-30465206D01*
X23192091Y-30405903D01*
X23192081Y-30405899D01*
X23077511Y-30375200D01*
X23077509Y-30375200D01*
X22958891Y-30375200D01*
X22958889Y-30375200D01*
X22844318Y-30405899D01*
X22844308Y-30405903D01*
X22741593Y-30465206D01*
X22741583Y-30465214D01*
X22657714Y-30549083D01*
X22657706Y-30549093D01*
X22598403Y-30651808D01*
X22598399Y-30651818D01*
X22567700Y-30766388D01*
X7007151Y-30766388D01*
X6959694Y-30651818D01*
X6930941Y-30582402D01*
X6815977Y-30410345D01*
X6669655Y-30264023D01*
X6669654Y-30264022D01*
X6669655Y-30264022D01*
X6497599Y-30149060D01*
X6497600Y-30149060D01*
X6497598Y-30149059D01*
X6497591Y-30149056D01*
X6306430Y-30069873D01*
X6306414Y-30069868D01*
X6103468Y-30029500D01*
X6103465Y-30029500D01*
X5896535Y-30029500D01*
X5896532Y-30029500D01*
X5693585Y-30069868D01*
X5693569Y-30069873D01*
X5502408Y-30149056D01*
X5502400Y-30149060D01*
X5330345Y-30264022D01*
X5184022Y-30410345D01*
X5069060Y-30582400D01*
X5069056Y-30582408D01*
X4989873Y-30773569D01*
X4989868Y-30773585D01*
X4949500Y-30976531D01*
X250500Y-30976531D01*
X250500Y-28436531D01*
X4949500Y-28436531D01*
X4949500Y-28643468D01*
X4989868Y-28846414D01*
X4989873Y-28846430D01*
X5069056Y-29037591D01*
X5069059Y-29037598D01*
X5069060Y-29037599D01*
X5184022Y-29209654D01*
X5330345Y-29355977D01*
X5330344Y-29355977D01*
X5416664Y-29413653D01*
X5502402Y-29470941D01*
X5591466Y-29507832D01*
X5693569Y-29550126D01*
X5693574Y-29550127D01*
X5693580Y-29550130D01*
X5896531Y-29590499D01*
X5896532Y-29590500D01*
X5896535Y-29590500D01*
X6103468Y-29590500D01*
X6103468Y-29590499D01*
X6306420Y-29550130D01*
X6497598Y-29470941D01*
X6669655Y-29355977D01*
X6815977Y-29209655D01*
X6930941Y-29037598D01*
X7010130Y-28846420D01*
X7050499Y-28643468D01*
X7050500Y-28643468D01*
X7050500Y-28436532D01*
X7050499Y-28436531D01*
X7034493Y-28356058D01*
X7032908Y-28348088D01*
X21025100Y-28348088D01*
X21025100Y-28466711D01*
X21055799Y-28581281D01*
X21055803Y-28581291D01*
X21115106Y-28684006D01*
X21115109Y-28684010D01*
X21115111Y-28684013D01*
X21198987Y-28767889D01*
X21198990Y-28767891D01*
X21198993Y-28767893D01*
X21301708Y-28827196D01*
X21301710Y-28827197D01*
X21301714Y-28827199D01*
X21301718Y-28827200D01*
X21416289Y-28857900D01*
X21416291Y-28857900D01*
X21534910Y-28857900D01*
X21585426Y-28844363D01*
X21649486Y-28827199D01*
X21752213Y-28767889D01*
X21836089Y-28684013D01*
X21895399Y-28581286D01*
X21907311Y-28536827D01*
X21926100Y-28466711D01*
X21926100Y-28348088D01*
X21895400Y-28233518D01*
X21895399Y-28233514D01*
X21895396Y-28233508D01*
X21836093Y-28130793D01*
X21836091Y-28130790D01*
X21836089Y-28130787D01*
X21752213Y-28046911D01*
X21752210Y-28046909D01*
X21752206Y-28046906D01*
X21649491Y-27987603D01*
X21649481Y-27987599D01*
X21534911Y-27956900D01*
X21534909Y-27956900D01*
X21416291Y-27956900D01*
X21416289Y-27956900D01*
X21301718Y-27987599D01*
X21301708Y-27987603D01*
X21198993Y-28046906D01*
X21198983Y-28046914D01*
X21115114Y-28130783D01*
X21115106Y-28130793D01*
X21055803Y-28233508D01*
X21055799Y-28233518D01*
X21025100Y-28348088D01*
X7032908Y-28348088D01*
X7010131Y-28233585D01*
X7010130Y-28233584D01*
X7010130Y-28233580D01*
X7010127Y-28233574D01*
X7010126Y-28233569D01*
X6967550Y-28130783D01*
X6930941Y-28042402D01*
X6815977Y-27870345D01*
X6669655Y-27724023D01*
X6669654Y-27724022D01*
X6669655Y-27724022D01*
X6497599Y-27609060D01*
X6497600Y-27609060D01*
X6497598Y-27609059D01*
X6497591Y-27609056D01*
X6306430Y-27529873D01*
X6306414Y-27529868D01*
X6103468Y-27489500D01*
X6103465Y-27489500D01*
X5896535Y-27489500D01*
X5896532Y-27489500D01*
X5693585Y-27529868D01*
X5693569Y-27529873D01*
X5502408Y-27609056D01*
X5502400Y-27609060D01*
X5330345Y-27724022D01*
X5184022Y-27870345D01*
X5069060Y-28042400D01*
X5069056Y-28042408D01*
X4989873Y-28233569D01*
X4989868Y-28233585D01*
X4949500Y-28436531D01*
X250500Y-28436531D01*
X250500Y-24130248D01*
X16949500Y-24130248D01*
X16949500Y-25869751D01*
X16961131Y-25928224D01*
X16961132Y-25928228D01*
X16961133Y-25928231D01*
X17005448Y-25994552D01*
X17071769Y-26038867D01*
X17130248Y-26050499D01*
X17130249Y-26050500D01*
X17130252Y-26050500D01*
X18869751Y-26050500D01*
X18869751Y-26050499D01*
X18928231Y-26038867D01*
X18994552Y-25994552D01*
X19038867Y-25928231D01*
X19050499Y-25869751D01*
X19050500Y-25869751D01*
X19050500Y-24130249D01*
X19050499Y-24130248D01*
X19038868Y-24071775D01*
X19038867Y-24071769D01*
X18994552Y-24005448D01*
X18928231Y-23961133D01*
X18928228Y-23961132D01*
X18928224Y-23961131D01*
X18869751Y-23949500D01*
X18869748Y-23949500D01*
X17130252Y-23949500D01*
X17130249Y-23949500D01*
X17071775Y-23961131D01*
X17071769Y-23961133D01*
X17005448Y-24005448D01*
X16961133Y-24071769D01*
X16961131Y-24071775D01*
X16949500Y-24130248D01*
X250500Y-24130248D01*
X250500Y-22801788D01*
X9374500Y-22801788D01*
X9374500Y-22920411D01*
X9405199Y-23034981D01*
X9405203Y-23034991D01*
X9464506Y-23137706D01*
X9464509Y-23137710D01*
X9464511Y-23137713D01*
X9548387Y-23221589D01*
X9548390Y-23221591D01*
X9548393Y-23221593D01*
X9651108Y-23280896D01*
X9651110Y-23280897D01*
X9651114Y-23280899D01*
X9651118Y-23280900D01*
X9765689Y-23311600D01*
X9765691Y-23311600D01*
X9884310Y-23311600D01*
X9934826Y-23298063D01*
X9998886Y-23280899D01*
X10101613Y-23221589D01*
X10185489Y-23137713D01*
X10244799Y-23034986D01*
X10256711Y-22990527D01*
X10275500Y-22920411D01*
X10275500Y-22801788D01*
X10244800Y-22687218D01*
X10244799Y-22687214D01*
X10244796Y-22687208D01*
X10185493Y-22584493D01*
X10185491Y-22584490D01*
X10185489Y-22584487D01*
X10101613Y-22500611D01*
X10101610Y-22500609D01*
X10101606Y-22500606D01*
X9998891Y-22441303D01*
X9998881Y-22441299D01*
X9884311Y-22410600D01*
X9884309Y-22410600D01*
X9765691Y-22410600D01*
X9765689Y-22410600D01*
X9651118Y-22441299D01*
X9651108Y-22441303D01*
X9548393Y-22500606D01*
X9548383Y-22500614D01*
X9464514Y-22584483D01*
X9464506Y-22584493D01*
X9405203Y-22687208D01*
X9405199Y-22687218D01*
X9374500Y-22801788D01*
X250500Y-22801788D01*
X250500Y-21130248D01*
X32949500Y-21130248D01*
X32949500Y-22869751D01*
X32961131Y-22928224D01*
X32961132Y-22928228D01*
X32961133Y-22928231D01*
X33005448Y-22994552D01*
X33071769Y-23038867D01*
X33130248Y-23050499D01*
X33130249Y-23050500D01*
X33130252Y-23050500D01*
X34869751Y-23050500D01*
X34869751Y-23050499D01*
X34928231Y-23038867D01*
X34994552Y-22994552D01*
X35038867Y-22928231D01*
X35050499Y-22869751D01*
X35050500Y-22869751D01*
X35050500Y-22130248D01*
X43949500Y-22130248D01*
X43949500Y-23869751D01*
X43961131Y-23928224D01*
X43961132Y-23928228D01*
X43961133Y-23928231D01*
X44005448Y-23994552D01*
X44071769Y-24038867D01*
X44130248Y-24050499D01*
X44130249Y-24050500D01*
X44130252Y-24050500D01*
X45869751Y-24050500D01*
X45869751Y-24050499D01*
X45928231Y-24038867D01*
X45994552Y-23994552D01*
X46038867Y-23928231D01*
X46050499Y-23869751D01*
X46050500Y-23869751D01*
X46050500Y-22130249D01*
X46050499Y-22130248D01*
X46038868Y-22071775D01*
X46038867Y-22071769D01*
X45994552Y-22005448D01*
X45928231Y-21961133D01*
X45928228Y-21961132D01*
X45928224Y-21961131D01*
X45869751Y-21949500D01*
X45869748Y-21949500D01*
X44130252Y-21949500D01*
X44130249Y-21949500D01*
X44071775Y-21961131D01*
X44071769Y-21961133D01*
X44005448Y-22005448D01*
X43961133Y-22071769D01*
X43961131Y-22071775D01*
X43949500Y-22130248D01*
X35050500Y-22130248D01*
X35050500Y-21130249D01*
X35050499Y-21130248D01*
X35038868Y-21071775D01*
X35038867Y-21071769D01*
X34994552Y-21005448D01*
X34928231Y-20961133D01*
X34928228Y-20961132D01*
X34928224Y-20961131D01*
X34869751Y-20949500D01*
X34869748Y-20949500D01*
X33130252Y-20949500D01*
X33130249Y-20949500D01*
X33071775Y-20961131D01*
X33071769Y-20961133D01*
X33005448Y-21005448D01*
X32961133Y-21071769D01*
X32961131Y-21071775D01*
X32949500Y-21130248D01*
X250500Y-21130248D01*
X250500Y-20212588D01*
X12141600Y-20212588D01*
X12141600Y-20331211D01*
X12172299Y-20445781D01*
X12172303Y-20445791D01*
X12231606Y-20548506D01*
X12231609Y-20548510D01*
X12231611Y-20548513D01*
X12315487Y-20632389D01*
X12315490Y-20632391D01*
X12315493Y-20632393D01*
X12418208Y-20691696D01*
X12418210Y-20691697D01*
X12418214Y-20691699D01*
X12418218Y-20691700D01*
X12532789Y-20722400D01*
X12532791Y-20722400D01*
X12651410Y-20722400D01*
X12701926Y-20708863D01*
X12765986Y-20691699D01*
X12868713Y-20632389D01*
X12952589Y-20548513D01*
X13011899Y-20445786D01*
X13023811Y-20401327D01*
X13042600Y-20331211D01*
X13042600Y-20212588D01*
X13011900Y-20098018D01*
X13011899Y-20098014D01*
X13011896Y-20098008D01*
X12952593Y-19995293D01*
X12952591Y-19995290D01*
X12952589Y-19995287D01*
X12868713Y-19911411D01*
X12868710Y-19911409D01*
X12868706Y-19911406D01*
X12765991Y-19852103D01*
X12765981Y-19852099D01*
X12651411Y-19821400D01*
X12651409Y-19821400D01*
X12532791Y-19821400D01*
X12532789Y-19821400D01*
X12418218Y-19852099D01*
X12418208Y-19852103D01*
X12315493Y-19911406D01*
X12315483Y-19911414D01*
X12231614Y-19995283D01*
X12231606Y-19995293D01*
X12172303Y-20098008D01*
X12172299Y-20098018D01*
X12141600Y-20212588D01*
X250500Y-20212588D01*
X250500Y-18800788D01*
X15724500Y-18800788D01*
X15724500Y-18919411D01*
X15755199Y-19033981D01*
X15755203Y-19033991D01*
X15814506Y-19136706D01*
X15814509Y-19136710D01*
X15814511Y-19136713D01*
X15898387Y-19220589D01*
X15898390Y-19220591D01*
X15898393Y-19220593D01*
X16001108Y-19279896D01*
X16001110Y-19279897D01*
X16001114Y-19279899D01*
X16001118Y-19279900D01*
X16115689Y-19310600D01*
X16115691Y-19310600D01*
X16234310Y-19310600D01*
X16284826Y-19297063D01*
X16348886Y-19279899D01*
X16451613Y-19220589D01*
X16535489Y-19136713D01*
X16594799Y-19033986D01*
X16606711Y-18989527D01*
X16625500Y-18919411D01*
X16625500Y-18800788D01*
X16594800Y-18686218D01*
X16594799Y-18686214D01*
X16594796Y-18686208D01*
X16535493Y-18583493D01*
X16535491Y-18583490D01*
X16535489Y-18583487D01*
X16451613Y-18499611D01*
X16451610Y-18499609D01*
X16451606Y-18499606D01*
X16348891Y-18440303D01*
X16348881Y-18440299D01*
X16234311Y-18409600D01*
X16234309Y-18409600D01*
X16115691Y-18409600D01*
X16115689Y-18409600D01*
X16001118Y-18440299D01*
X16001108Y-18440303D01*
X15898393Y-18499606D01*
X15898383Y-18499614D01*
X15814514Y-18583483D01*
X15814506Y-18583493D01*
X15755203Y-18686208D01*
X15755199Y-18686218D01*
X15724500Y-18800788D01*
X250500Y-18800788D01*
X250500Y-16480688D01*
X13998400Y-16480688D01*
X13998400Y-16599311D01*
X14029099Y-16713881D01*
X14029103Y-16713891D01*
X14088406Y-16816606D01*
X14088409Y-16816610D01*
X14088411Y-16816613D01*
X14172287Y-16900489D01*
X14172290Y-16900491D01*
X14172293Y-16900493D01*
X14275008Y-16959796D01*
X14275010Y-16959797D01*
X14275014Y-16959799D01*
X14275018Y-16959800D01*
X14389589Y-16990500D01*
X14389591Y-16990500D01*
X14508210Y-16990500D01*
X14560342Y-16976531D01*
X25949500Y-16976531D01*
X25949500Y-17183468D01*
X25989868Y-17386414D01*
X25989873Y-17386430D01*
X26069056Y-17577591D01*
X26069059Y-17577598D01*
X26069060Y-17577599D01*
X26184022Y-17749654D01*
X26330345Y-17895977D01*
X26330344Y-17895977D01*
X26416664Y-17953653D01*
X26502402Y-18010941D01*
X26591466Y-18047832D01*
X26693569Y-18090126D01*
X26693574Y-18090127D01*
X26693580Y-18090130D01*
X26896531Y-18130499D01*
X26896532Y-18130500D01*
X26896535Y-18130500D01*
X27103468Y-18130500D01*
X27103468Y-18130499D01*
X27306420Y-18090130D01*
X27497598Y-18010941D01*
X27669655Y-17895977D01*
X27815977Y-17749655D01*
X27930941Y-17577598D01*
X28010130Y-17386420D01*
X28050499Y-17183468D01*
X28050500Y-17183468D01*
X28050500Y-16976532D01*
X28050499Y-16976531D01*
X28035373Y-16900489D01*
X28010130Y-16773580D01*
X28010127Y-16773574D01*
X28010126Y-16773569D01*
X27930943Y-16582408D01*
X27930941Y-16582402D01*
X27815977Y-16410345D01*
X27669655Y-16264023D01*
X27669654Y-16264022D01*
X27669655Y-16264022D01*
X27497599Y-16149060D01*
X27497600Y-16149060D01*
X27497598Y-16149059D01*
X27497591Y-16149056D01*
X27306430Y-16069873D01*
X27306414Y-16069868D01*
X27103468Y-16029500D01*
X27103465Y-16029500D01*
X26896535Y-16029500D01*
X26896532Y-16029500D01*
X26693585Y-16069868D01*
X26693569Y-16069873D01*
X26502408Y-16149056D01*
X26502400Y-16149060D01*
X26330345Y-16264022D01*
X26184022Y-16410345D01*
X26069060Y-16582400D01*
X26069056Y-16582408D01*
X25989873Y-16773569D01*
X25989868Y-16773585D01*
X25949500Y-16976531D01*
X14560342Y-16976531D01*
X14622786Y-16959799D01*
X14725513Y-16900489D01*
X14809389Y-16816613D01*
X14868699Y-16713886D01*
X14880611Y-16669427D01*
X14899400Y-16599311D01*
X14899400Y-16480688D01*
X14868700Y-16366118D01*
X14868699Y-16366114D01*
X14868696Y-16366108D01*
X14809393Y-16263393D01*
X14809391Y-16263390D01*
X14809389Y-16263387D01*
X14725513Y-16179511D01*
X14725510Y-16179509D01*
X14725506Y-16179506D01*
X14622791Y-16120203D01*
X14622781Y-16120199D01*
X14528603Y-16094964D01*
X14528602Y-16094963D01*
X14508212Y-16089500D01*
X14508209Y-16089500D01*
X14389591Y-16089500D01*
X14389589Y-16089500D01*
X14275018Y-16120199D01*
X14275008Y-16120203D01*
X14172293Y-16179506D01*
X14172283Y-16179514D01*
X14088414Y-16263383D01*
X14088406Y-16263393D01*
X14029103Y-16366108D01*
X14029099Y-16366118D01*
X13998400Y-16480688D01*
X250500Y-16480688D01*
X250500Y-16039588D01*
X15799500Y-16039588D01*
X15799500Y-16158211D01*
X15830199Y-16272781D01*
X15830203Y-16272791D01*
X15889506Y-16375506D01*
X15889509Y-16375510D01*
X15889511Y-16375513D01*
X15973387Y-16459389D01*
X15973390Y-16459391D01*
X15973393Y-16459393D01*
X16076108Y-16518696D01*
X16076110Y-16518697D01*
X16076114Y-16518699D01*
X16076118Y-16518700D01*
X16190689Y-16549400D01*
X16190691Y-16549400D01*
X16309310Y-16549400D01*
X16359826Y-16535863D01*
X16423886Y-16518699D01*
X16526613Y-16459389D01*
X16610489Y-16375513D01*
X16669799Y-16272786D01*
X16681711Y-16228327D01*
X16700500Y-16158211D01*
X16700500Y-16039588D01*
X16669800Y-15925018D01*
X16669799Y-15925014D01*
X16669796Y-15925008D01*
X16610493Y-15822293D01*
X16610491Y-15822290D01*
X16610489Y-15822287D01*
X16526613Y-15738411D01*
X16526610Y-15738409D01*
X16526606Y-15738406D01*
X16423891Y-15679103D01*
X16423881Y-15679099D01*
X16309311Y-15648400D01*
X16309309Y-15648400D01*
X16190691Y-15648400D01*
X16190689Y-15648400D01*
X16076118Y-15679099D01*
X16076108Y-15679103D01*
X15973393Y-15738406D01*
X15973383Y-15738414D01*
X15889514Y-15822283D01*
X15889506Y-15822293D01*
X15830203Y-15925008D01*
X15830199Y-15925018D01*
X15799500Y-16039588D01*
X250500Y-16039588D01*
X250500Y-14677588D01*
X13152500Y-14677588D01*
X13152500Y-14796211D01*
X13183199Y-14910781D01*
X13183203Y-14910791D01*
X13242506Y-15013506D01*
X13242509Y-15013510D01*
X13242511Y-15013513D01*
X13326387Y-15097389D01*
X13326390Y-15097391D01*
X13326393Y-15097393D01*
X13429108Y-15156696D01*
X13429110Y-15156697D01*
X13429114Y-15156699D01*
X13429118Y-15156700D01*
X13543689Y-15187400D01*
X13543691Y-15187400D01*
X13662310Y-15187400D01*
X13712826Y-15173863D01*
X13776886Y-15156699D01*
X13819340Y-15132188D01*
X17461200Y-15132188D01*
X17461200Y-15250811D01*
X17491899Y-15365381D01*
X17491903Y-15365391D01*
X17551206Y-15468106D01*
X17551209Y-15468110D01*
X17551211Y-15468113D01*
X17635087Y-15551989D01*
X17635090Y-15551991D01*
X17635093Y-15551993D01*
X17737808Y-15611296D01*
X17737810Y-15611297D01*
X17737814Y-15611299D01*
X17737818Y-15611300D01*
X17852389Y-15642000D01*
X17852391Y-15642000D01*
X17971010Y-15642000D01*
X18021526Y-15628463D01*
X18085586Y-15611299D01*
X18188313Y-15551989D01*
X18272189Y-15468113D01*
X18316267Y-15391766D01*
X18353608Y-15363115D01*
X18400274Y-15369257D01*
X18400276Y-15369258D01*
X18400276Y-15369259D01*
X18487808Y-15419796D01*
X18487810Y-15419797D01*
X18487814Y-15419799D01*
X18487818Y-15419800D01*
X18602389Y-15450500D01*
X18602391Y-15450500D01*
X18721010Y-15450500D01*
X18771526Y-15436963D01*
X18835586Y-15419799D01*
X18938313Y-15360489D01*
X19022189Y-15276613D01*
X19081499Y-15173886D01*
X19093411Y-15129427D01*
X19112200Y-15059311D01*
X19112200Y-14940688D01*
X19082810Y-14831006D01*
X19081499Y-14826114D01*
X19081496Y-14826108D01*
X19022193Y-14723393D01*
X19022191Y-14723390D01*
X19022189Y-14723387D01*
X18938313Y-14639511D01*
X18938310Y-14639509D01*
X18938306Y-14639506D01*
X18835591Y-14580203D01*
X18835581Y-14580199D01*
X18721011Y-14549500D01*
X18721009Y-14549500D01*
X18602391Y-14549500D01*
X18602389Y-14549500D01*
X18487818Y-14580199D01*
X18487808Y-14580203D01*
X18385093Y-14639506D01*
X18385083Y-14639514D01*
X18301214Y-14723383D01*
X18301208Y-14723391D01*
X18257132Y-14799731D01*
X18219788Y-14828385D01*
X18173122Y-14822240D01*
X18085591Y-14771703D01*
X18085581Y-14771699D01*
X17971011Y-14741000D01*
X17971009Y-14741000D01*
X17852391Y-14741000D01*
X17852389Y-14741000D01*
X17737818Y-14771699D01*
X17737808Y-14771703D01*
X17635093Y-14831006D01*
X17635083Y-14831014D01*
X17551214Y-14914883D01*
X17551206Y-14914893D01*
X17491903Y-15017608D01*
X17491899Y-15017618D01*
X17461200Y-15132188D01*
X13819340Y-15132188D01*
X13879613Y-15097389D01*
X13963489Y-15013513D01*
X14022799Y-14910786D01*
X14044176Y-14831006D01*
X14053500Y-14796211D01*
X14053500Y-14677588D01*
X14022800Y-14563018D01*
X14022799Y-14563014D01*
X14014997Y-14549500D01*
X13963493Y-14460293D01*
X13963491Y-14460290D01*
X13963489Y-14460287D01*
X13879613Y-14376411D01*
X13879610Y-14376409D01*
X13879606Y-14376406D01*
X13776891Y-14317103D01*
X13776881Y-14317099D01*
X13662311Y-14286400D01*
X13662309Y-14286400D01*
X13543691Y-14286400D01*
X13543689Y-14286400D01*
X13429118Y-14317099D01*
X13429108Y-14317103D01*
X13326393Y-14376406D01*
X13326383Y-14376414D01*
X13242514Y-14460283D01*
X13242506Y-14460293D01*
X13183203Y-14563008D01*
X13183199Y-14563018D01*
X13152500Y-14677588D01*
X250500Y-14677588D01*
X250500Y-13066588D01*
X9599500Y-13066588D01*
X9599500Y-13185211D01*
X9630199Y-13299781D01*
X9630203Y-13299791D01*
X9689506Y-13402506D01*
X9689509Y-13402510D01*
X9689511Y-13402513D01*
X9773387Y-13486389D01*
X9773390Y-13486391D01*
X9773393Y-13486393D01*
X9876108Y-13545696D01*
X9876110Y-13545697D01*
X9876114Y-13545699D01*
X9876118Y-13545700D01*
X9990689Y-13576400D01*
X9990691Y-13576400D01*
X10109310Y-13576400D01*
X10159826Y-13562863D01*
X10223886Y-13545699D01*
X10326613Y-13486389D01*
X10410489Y-13402513D01*
X10434751Y-13360491D01*
X10434753Y-13360488D01*
X17637700Y-13360488D01*
X17637700Y-13479111D01*
X17668399Y-13593681D01*
X17668403Y-13593691D01*
X17727706Y-13696406D01*
X17727709Y-13696410D01*
X17727711Y-13696413D01*
X17811587Y-13780289D01*
X17811590Y-13780291D01*
X17811593Y-13780293D01*
X17914308Y-13839596D01*
X17914310Y-13839597D01*
X17914314Y-13839599D01*
X17914318Y-13839600D01*
X18028889Y-13870300D01*
X18028891Y-13870300D01*
X18147510Y-13870300D01*
X18198026Y-13856763D01*
X18262086Y-13839599D01*
X18364813Y-13780289D01*
X18448689Y-13696413D01*
X18507999Y-13593686D01*
X18520858Y-13545696D01*
X18538700Y-13479111D01*
X18538700Y-13360488D01*
X18508000Y-13245918D01*
X18507999Y-13245914D01*
X18472951Y-13185209D01*
X18448693Y-13143193D01*
X18448691Y-13143190D01*
X18448689Y-13143187D01*
X18364813Y-13059311D01*
X18364810Y-13059309D01*
X18364806Y-13059306D01*
X18262091Y-13000003D01*
X18262081Y-12999999D01*
X18147511Y-12969300D01*
X18147509Y-12969300D01*
X18028891Y-12969300D01*
X18028889Y-12969300D01*
X17914318Y-12999999D01*
X17914308Y-13000003D01*
X17811593Y-13059306D01*
X17811583Y-13059314D01*
X17727714Y-13143183D01*
X17727706Y-13143193D01*
X17668403Y-13245908D01*
X17668399Y-13245918D01*
X17637700Y-13360488D01*
X10434753Y-13360488D01*
X10454832Y-13325710D01*
X10469796Y-13299791D01*
X10469795Y-13299791D01*
X10469799Y-13299786D01*
X10484236Y-13245908D01*
X10500500Y-13185211D01*
X10500500Y-13066588D01*
X10469800Y-12952018D01*
X10469799Y-12952014D01*
X10456068Y-12928231D01*
X10410493Y-12849293D01*
X10410491Y-12849290D01*
X10410489Y-12849287D01*
X10326613Y-12765411D01*
X10326610Y-12765409D01*
X10326606Y-12765406D01*
X10223891Y-12706103D01*
X10223881Y-12706099D01*
X10109311Y-12675400D01*
X10109309Y-12675400D01*
X9990691Y-12675400D01*
X9990689Y-12675400D01*
X9876118Y-12706099D01*
X9876108Y-12706103D01*
X9773393Y-12765406D01*
X9773383Y-12765414D01*
X9689514Y-12849283D01*
X9689506Y-12849293D01*
X9630203Y-12952008D01*
X9630199Y-12952018D01*
X9599500Y-13066588D01*
X250500Y-13066588D01*
X250500Y-11863988D01*
X15799500Y-11863988D01*
X15799500Y-11982611D01*
X15830199Y-12097181D01*
X15830203Y-12097191D01*
X15889506Y-12199906D01*
X15889509Y-12199910D01*
X15889511Y-12199913D01*
X15973387Y-12283789D01*
X15973390Y-12283791D01*
X15973393Y-12283793D01*
X16076108Y-12343096D01*
X16076110Y-12343097D01*
X16076114Y-12343099D01*
X16076118Y-12343100D01*
X16190689Y-12373800D01*
X16190691Y-12373800D01*
X16309310Y-12373800D01*
X16359826Y-12360263D01*
X16423886Y-12343099D01*
X16526613Y-12283789D01*
X16610489Y-12199913D01*
X16669799Y-12097186D01*
X16681711Y-12052727D01*
X16700500Y-11982611D01*
X16700500Y-11863988D01*
X16669800Y-11749418D01*
X16669799Y-11749414D01*
X16660605Y-11733489D01*
X16610493Y-11646693D01*
X16610491Y-11646690D01*
X16610489Y-11646687D01*
X16526613Y-11562811D01*
X16526610Y-11562809D01*
X16526606Y-11562806D01*
X16423891Y-11503503D01*
X16423881Y-11503499D01*
X16309311Y-11472800D01*
X16309309Y-11472800D01*
X16190691Y-11472800D01*
X16190689Y-11472800D01*
X16076118Y-11503499D01*
X16076108Y-11503503D01*
X15973393Y-11562806D01*
X15973383Y-11562814D01*
X15889514Y-11646683D01*
X15889506Y-11646693D01*
X15830203Y-11749408D01*
X15830199Y-11749418D01*
X15799500Y-11863988D01*
X250500Y-11863988D01*
X250500Y-9874034D01*
X1899500Y-9874034D01*
X1899500Y-10125965D01*
X1938910Y-10374787D01*
X2016759Y-10614380D01*
X2067553Y-10714068D01*
X2131130Y-10838845D01*
X2279207Y-11042656D01*
X2457344Y-11220793D01*
X2661155Y-11368870D01*
X2885621Y-11483241D01*
X3125212Y-11561089D01*
X3125215Y-11561090D01*
X3374038Y-11600500D01*
X3374042Y-11600500D01*
X3625958Y-11600500D01*
X3625962Y-11600500D01*
X3874785Y-11561090D01*
X4114379Y-11483241D01*
X4338845Y-11368870D01*
X4542656Y-11220793D01*
X4633201Y-11130248D01*
X25949500Y-11130248D01*
X25949500Y-12869751D01*
X25961131Y-12928224D01*
X25961132Y-12928228D01*
X25961133Y-12928231D01*
X26005448Y-12994552D01*
X26071769Y-13038867D01*
X26130248Y-13050499D01*
X26130249Y-13050500D01*
X26130252Y-13050500D01*
X27869751Y-13050500D01*
X27869751Y-13050499D01*
X27928231Y-13038867D01*
X27994552Y-12994552D01*
X28038867Y-12928231D01*
X28050499Y-12869751D01*
X28050500Y-12869751D01*
X28050500Y-11313688D01*
X31951300Y-11313688D01*
X31951300Y-11432311D01*
X31981999Y-11546881D01*
X31982003Y-11546891D01*
X32041306Y-11649606D01*
X32041309Y-11649610D01*
X32041311Y-11649613D01*
X32125187Y-11733489D01*
X32125190Y-11733491D01*
X32125193Y-11733493D01*
X32227908Y-11792796D01*
X32227910Y-11792797D01*
X32227914Y-11792799D01*
X32227918Y-11792800D01*
X32342489Y-11823500D01*
X32342491Y-11823500D01*
X32461110Y-11823500D01*
X32511626Y-11809963D01*
X32575686Y-11792799D01*
X32678413Y-11733489D01*
X32762289Y-11649613D01*
X32821599Y-11546886D01*
X32838653Y-11483240D01*
X32852300Y-11432311D01*
X32852300Y-11313688D01*
X32821600Y-11199118D01*
X32821599Y-11199114D01*
X32821596Y-11199108D01*
X32762293Y-11096393D01*
X32762291Y-11096390D01*
X32762289Y-11096387D01*
X32678413Y-11012511D01*
X32678410Y-11012509D01*
X32678406Y-11012506D01*
X32575691Y-10953203D01*
X32575681Y-10953199D01*
X32461111Y-10922500D01*
X32461109Y-10922500D01*
X32342491Y-10922500D01*
X32342489Y-10922500D01*
X32227918Y-10953199D01*
X32227908Y-10953203D01*
X32125193Y-11012506D01*
X32125183Y-11012514D01*
X32041314Y-11096383D01*
X32041306Y-11096393D01*
X31982003Y-11199108D01*
X31981999Y-11199118D01*
X31951300Y-11313688D01*
X28050500Y-11313688D01*
X28050500Y-11130249D01*
X28050499Y-11130248D01*
X28038868Y-11071775D01*
X28038867Y-11071769D01*
X27994552Y-11005448D01*
X27928231Y-10961133D01*
X27928228Y-10961132D01*
X27928224Y-10961131D01*
X27869751Y-10949500D01*
X27869748Y-10949500D01*
X26130252Y-10949500D01*
X26130249Y-10949500D01*
X26071775Y-10961131D01*
X26071769Y-10961133D01*
X26005448Y-11005448D01*
X25961133Y-11071769D01*
X25961131Y-11071775D01*
X25949500Y-11130248D01*
X4633201Y-11130248D01*
X4720793Y-11042656D01*
X4868870Y-10838845D01*
X4983241Y-10614379D01*
X5061090Y-10374785D01*
X5100500Y-10125962D01*
X5100500Y-9874038D01*
X5100499Y-9874034D01*
X58899500Y-9874034D01*
X58899500Y-10125965D01*
X58938910Y-10374787D01*
X59016759Y-10614380D01*
X59067553Y-10714068D01*
X59131130Y-10838845D01*
X59279207Y-11042656D01*
X59457344Y-11220793D01*
X59661155Y-11368870D01*
X59885621Y-11483241D01*
X60125212Y-11561089D01*
X60125215Y-11561090D01*
X60374038Y-11600500D01*
X60374042Y-11600500D01*
X60625958Y-11600500D01*
X60625962Y-11600500D01*
X60874785Y-11561090D01*
X61114379Y-11483241D01*
X61338845Y-11368870D01*
X61542656Y-11220793D01*
X61720793Y-11042656D01*
X61868870Y-10838845D01*
X61983241Y-10614379D01*
X62061090Y-10374785D01*
X62100500Y-10125962D01*
X62100500Y-9874038D01*
X62061090Y-9625215D01*
X61983241Y-9385621D01*
X61868870Y-9161155D01*
X61720793Y-8957344D01*
X61542656Y-8779207D01*
X61338845Y-8631130D01*
X61250496Y-8586114D01*
X61114380Y-8516759D01*
X60874786Y-8438910D01*
X60874788Y-8438910D01*
X60625965Y-8399500D01*
X60625962Y-8399500D01*
X60374038Y-8399500D01*
X60374034Y-8399500D01*
X60125212Y-8438910D01*
X59885619Y-8516759D01*
X59661156Y-8631129D01*
X59457341Y-8779209D01*
X59279209Y-8957341D01*
X59131129Y-9161156D01*
X59016759Y-9385619D01*
X58938910Y-9625212D01*
X58899500Y-9874034D01*
X5100499Y-9874034D01*
X5061090Y-9625215D01*
X4983241Y-9385621D01*
X4868870Y-9161155D01*
X4762397Y-9014608D01*
X4762397Y-9014606D01*
X4739062Y-8982488D01*
X29099500Y-8982488D01*
X29099500Y-9101111D01*
X29130199Y-9215681D01*
X29130203Y-9215691D01*
X29189506Y-9318406D01*
X29189509Y-9318410D01*
X29189511Y-9318413D01*
X29273387Y-9402289D01*
X29273390Y-9402291D01*
X29273393Y-9402293D01*
X29376108Y-9461596D01*
X29376110Y-9461597D01*
X29376114Y-9461599D01*
X29376118Y-9461600D01*
X29490689Y-9492300D01*
X29490691Y-9492300D01*
X29609310Y-9492300D01*
X29659826Y-9478763D01*
X29723886Y-9461599D01*
X29826613Y-9402289D01*
X29910489Y-9318413D01*
X29967325Y-9219969D01*
X30004666Y-9191318D01*
X30036502Y-9191318D01*
X30108089Y-9210500D01*
X30108091Y-9210500D01*
X30226710Y-9210500D01*
X30280502Y-9196086D01*
X30341286Y-9179799D01*
X30444013Y-9120489D01*
X30527889Y-9036613D01*
X30587199Y-8933886D01*
X30612918Y-8837903D01*
X30617900Y-8819311D01*
X30617900Y-8700688D01*
X30587200Y-8586118D01*
X30587199Y-8586114D01*
X30568600Y-8553900D01*
X30560972Y-8540688D01*
X30799500Y-8540688D01*
X30799500Y-8659311D01*
X30830199Y-8773881D01*
X30830203Y-8773891D01*
X30889506Y-8876606D01*
X30889509Y-8876610D01*
X30889511Y-8876613D01*
X30973387Y-8960489D01*
X30973390Y-8960491D01*
X30973393Y-8960493D01*
X31076108Y-9019796D01*
X31076110Y-9019797D01*
X31076114Y-9019799D01*
X31076118Y-9019800D01*
X31190689Y-9050500D01*
X31190691Y-9050500D01*
X31238000Y-9050500D01*
X31281487Y-9068513D01*
X31299500Y-9112000D01*
X31299500Y-9179311D01*
X31330199Y-9293881D01*
X31330203Y-9293891D01*
X31389506Y-9396606D01*
X31389509Y-9396610D01*
X31389511Y-9396613D01*
X31473387Y-9480489D01*
X31473390Y-9480491D01*
X31473393Y-9480493D01*
X31576108Y-9539796D01*
X31576110Y-9539797D01*
X31576114Y-9539799D01*
X31576118Y-9539800D01*
X31690689Y-9570500D01*
X31690691Y-9570500D01*
X31809310Y-9570500D01*
X31859826Y-9556963D01*
X31923886Y-9539799D01*
X32026613Y-9480489D01*
X32110489Y-9396613D01*
X32169799Y-9293886D01*
X32183396Y-9243140D01*
X32190596Y-9216272D01*
X32219250Y-9178929D01*
X32265918Y-9172786D01*
X32303261Y-9201440D01*
X32309404Y-9216272D01*
X32330199Y-9293881D01*
X32330203Y-9293891D01*
X32389506Y-9396606D01*
X32389509Y-9396610D01*
X32389511Y-9396613D01*
X32473387Y-9480489D01*
X32473390Y-9480491D01*
X32473393Y-9480493D01*
X32576108Y-9539796D01*
X32576110Y-9539797D01*
X32576114Y-9539799D01*
X32576118Y-9539800D01*
X32690689Y-9570500D01*
X32690691Y-9570500D01*
X32809310Y-9570500D01*
X32859826Y-9556963D01*
X32923886Y-9539799D01*
X33026613Y-9480489D01*
X33087448Y-9419653D01*
X33130934Y-9401641D01*
X33161684Y-9409881D01*
X33217308Y-9441996D01*
X33217310Y-9441997D01*
X33217314Y-9441999D01*
X33217318Y-9442000D01*
X33331889Y-9472700D01*
X33331891Y-9472700D01*
X33450510Y-9472700D01*
X33501026Y-9459163D01*
X33565086Y-9441999D01*
X33667813Y-9382689D01*
X33751689Y-9298813D01*
X33770835Y-9265651D01*
X33808177Y-9236997D01*
X33854844Y-9243140D01*
X33877355Y-9265651D01*
X33914106Y-9329306D01*
X33914109Y-9329310D01*
X33914111Y-9329313D01*
X33997987Y-9413189D01*
X33997990Y-9413191D01*
X33997993Y-9413193D01*
X34100708Y-9472496D01*
X34100710Y-9472497D01*
X34100714Y-9472499D01*
X34100718Y-9472500D01*
X34215289Y-9503200D01*
X34215291Y-9503200D01*
X34333910Y-9503200D01*
X34384426Y-9489663D01*
X34448486Y-9472499D01*
X34551213Y-9413189D01*
X34635089Y-9329313D01*
X34694399Y-9226586D01*
X34711931Y-9161155D01*
X34725100Y-9112011D01*
X34725100Y-8993388D01*
X34694400Y-8878818D01*
X34694399Y-8878814D01*
X34693130Y-8876616D01*
X34635093Y-8776093D01*
X34635091Y-8776090D01*
X34635089Y-8776087D01*
X34551213Y-8692211D01*
X34551210Y-8692209D01*
X34551206Y-8692206D01*
X34448491Y-8632903D01*
X34448481Y-8632899D01*
X34333911Y-8602200D01*
X34333909Y-8602200D01*
X34215291Y-8602200D01*
X34215289Y-8602200D01*
X34100718Y-8632899D01*
X34100708Y-8632903D01*
X33997993Y-8692206D01*
X33997983Y-8692214D01*
X33914114Y-8776083D01*
X33914108Y-8776091D01*
X33894964Y-8809249D01*
X33857620Y-8837903D01*
X33810953Y-8831758D01*
X33788445Y-8809250D01*
X33751689Y-8745587D01*
X33667813Y-8661711D01*
X33667810Y-8661709D01*
X33667806Y-8661706D01*
X33565091Y-8602403D01*
X33565081Y-8602399D01*
X33450511Y-8571700D01*
X33450509Y-8571700D01*
X33331891Y-8571700D01*
X33331889Y-8571700D01*
X33217318Y-8602399D01*
X33217308Y-8602403D01*
X33114593Y-8661706D01*
X33114583Y-8661714D01*
X33053752Y-8722545D01*
X33010265Y-8740558D01*
X32979516Y-8732319D01*
X32923886Y-8700201D01*
X32923883Y-8700200D01*
X32923881Y-8700199D01*
X32809311Y-8669500D01*
X32809309Y-8669500D01*
X32762000Y-8669500D01*
X32718513Y-8651487D01*
X32700500Y-8608000D01*
X32700500Y-8540688D01*
X32669800Y-8426118D01*
X32669799Y-8426114D01*
X32669796Y-8426109D01*
X32669794Y-8426104D01*
X32610493Y-8323393D01*
X32610491Y-8323390D01*
X32610489Y-8323387D01*
X32526613Y-8239511D01*
X32526610Y-8239509D01*
X32526606Y-8239506D01*
X32423891Y-8180203D01*
X32423881Y-8180199D01*
X32309311Y-8149500D01*
X32309309Y-8149500D01*
X32190691Y-8149500D01*
X32190689Y-8149500D01*
X32076118Y-8180199D01*
X32076108Y-8180203D01*
X31973393Y-8239506D01*
X31973383Y-8239514D01*
X31889514Y-8323383D01*
X31889506Y-8323393D01*
X31830206Y-8426104D01*
X31830199Y-8426118D01*
X31809404Y-8503727D01*
X31780750Y-8541070D01*
X31734082Y-8547213D01*
X31696739Y-8518559D01*
X31690596Y-8503727D01*
X31669800Y-8426118D01*
X31669799Y-8426114D01*
X31669796Y-8426109D01*
X31669794Y-8426104D01*
X31610493Y-8323393D01*
X31610491Y-8323390D01*
X31610489Y-8323387D01*
X31526613Y-8239511D01*
X31526610Y-8239509D01*
X31526606Y-8239506D01*
X31423891Y-8180203D01*
X31423881Y-8180199D01*
X31309311Y-8149500D01*
X31309309Y-8149500D01*
X31190691Y-8149500D01*
X31190689Y-8149500D01*
X31076118Y-8180199D01*
X31076108Y-8180203D01*
X30973393Y-8239506D01*
X30973383Y-8239514D01*
X30889514Y-8323383D01*
X30889506Y-8323393D01*
X30830206Y-8426104D01*
X30830199Y-8426118D01*
X30799500Y-8540688D01*
X30560972Y-8540688D01*
X30527893Y-8483393D01*
X30527891Y-8483390D01*
X30527889Y-8483387D01*
X30444013Y-8399511D01*
X30444010Y-8399509D01*
X30444006Y-8399506D01*
X30341291Y-8340203D01*
X30341281Y-8340199D01*
X30226711Y-8309500D01*
X30226709Y-8309500D01*
X30108091Y-8309500D01*
X30108089Y-8309500D01*
X29993518Y-8340199D01*
X29993508Y-8340203D01*
X29890793Y-8399506D01*
X29890783Y-8399514D01*
X29806914Y-8483383D01*
X29806906Y-8483394D01*
X29750075Y-8581827D01*
X29712732Y-8610482D01*
X29680898Y-8610482D01*
X29609309Y-8591300D01*
X29490691Y-8591300D01*
X29490689Y-8591300D01*
X29376118Y-8621999D01*
X29376108Y-8622003D01*
X29273393Y-8681306D01*
X29273383Y-8681314D01*
X29189514Y-8765183D01*
X29189506Y-8765193D01*
X29130203Y-8867908D01*
X29130199Y-8867918D01*
X29099500Y-8982488D01*
X4739062Y-8982488D01*
X4720794Y-8957345D01*
X4542658Y-8779209D01*
X4542656Y-8779207D01*
X4338845Y-8631130D01*
X4250496Y-8586114D01*
X4114380Y-8516759D01*
X3874786Y-8438910D01*
X3874788Y-8438910D01*
X3625965Y-8399500D01*
X3625962Y-8399500D01*
X3374038Y-8399500D01*
X3374034Y-8399500D01*
X3125212Y-8438910D01*
X2885619Y-8516759D01*
X2661156Y-8631129D01*
X2457341Y-8779209D01*
X2279209Y-8957341D01*
X2131129Y-9161156D01*
X2016759Y-9385619D01*
X1938910Y-9625212D01*
X1899500Y-9874034D01*
X250500Y-9874034D01*
X250500Y-8086688D01*
X23724500Y-8086688D01*
X23724500Y-8205311D01*
X23755199Y-8319881D01*
X23755203Y-8319891D01*
X23814506Y-8422606D01*
X23814509Y-8422610D01*
X23814511Y-8422613D01*
X23898387Y-8506489D01*
X23898390Y-8506491D01*
X23898393Y-8506493D01*
X24001108Y-8565796D01*
X24001110Y-8565797D01*
X24001114Y-8565799D01*
X24001118Y-8565800D01*
X24115689Y-8596500D01*
X24115691Y-8596500D01*
X24234310Y-8596500D01*
X24289069Y-8581827D01*
X24348886Y-8565799D01*
X24451613Y-8506489D01*
X24535489Y-8422613D01*
X24594799Y-8319886D01*
X24616337Y-8239506D01*
X24625500Y-8205311D01*
X24625500Y-8086690D01*
X24625497Y-8086679D01*
X24625497Y-8086678D01*
X24622311Y-8074788D01*
X37743000Y-8074788D01*
X37743000Y-8193411D01*
X37773699Y-8307981D01*
X37773703Y-8307991D01*
X37833006Y-8410706D01*
X37833009Y-8410710D01*
X37833011Y-8410713D01*
X37916887Y-8494589D01*
X37916890Y-8494591D01*
X37916893Y-8494593D01*
X38019608Y-8553896D01*
X38019610Y-8553897D01*
X38019614Y-8553899D01*
X38019618Y-8553900D01*
X38134189Y-8584600D01*
X38134191Y-8584600D01*
X38252810Y-8584600D01*
X38322971Y-8565800D01*
X38367386Y-8553899D01*
X38470113Y-8494589D01*
X38553989Y-8410713D01*
X38613299Y-8307986D01*
X38640811Y-8205311D01*
X38644000Y-8193411D01*
X38644000Y-8074788D01*
X38613300Y-7960218D01*
X38613299Y-7960214D01*
X38613296Y-7960208D01*
X38553993Y-7857493D01*
X38553991Y-7857490D01*
X38553989Y-7857487D01*
X38470113Y-7773611D01*
X38470110Y-7773609D01*
X38470106Y-7773606D01*
X38367391Y-7714303D01*
X38367381Y-7714299D01*
X38252811Y-7683600D01*
X38252809Y-7683600D01*
X38134191Y-7683600D01*
X38134189Y-7683600D01*
X38019618Y-7714299D01*
X38019608Y-7714303D01*
X37916893Y-7773606D01*
X37916883Y-7773614D01*
X37833014Y-7857483D01*
X37833006Y-7857493D01*
X37773703Y-7960208D01*
X37773699Y-7960218D01*
X37743000Y-8074788D01*
X24622311Y-8074788D01*
X24594800Y-7972118D01*
X24594799Y-7972114D01*
X24587931Y-7960218D01*
X24535493Y-7869393D01*
X24535491Y-7869390D01*
X24535489Y-7869387D01*
X24451613Y-7785511D01*
X24451610Y-7785509D01*
X24451606Y-7785506D01*
X24348891Y-7726203D01*
X24348881Y-7726199D01*
X24234311Y-7695500D01*
X24234309Y-7695500D01*
X24115691Y-7695500D01*
X24115689Y-7695500D01*
X24001118Y-7726199D01*
X24001108Y-7726203D01*
X23898393Y-7785506D01*
X23898383Y-7785514D01*
X23814514Y-7869383D01*
X23814506Y-7869393D01*
X23755203Y-7972108D01*
X23755199Y-7972118D01*
X23724500Y-8086688D01*
X250500Y-8086688D01*
X250500Y-6124230D01*
X28534500Y-6124230D01*
X28534500Y-6275769D01*
X28573716Y-6422128D01*
X28573718Y-6422132D01*
X28573719Y-6422135D01*
X28649485Y-6553365D01*
X28756635Y-6660515D01*
X28887865Y-6736281D01*
X28887869Y-6736282D01*
X28887871Y-6736283D01*
X29034230Y-6775499D01*
X29034232Y-6775500D01*
X29034234Y-6775500D01*
X29185768Y-6775500D01*
X29185768Y-6775499D01*
X29332135Y-6736281D01*
X29463365Y-6660515D01*
X29570515Y-6553365D01*
X29646281Y-6422135D01*
X29685499Y-6275768D01*
X29685500Y-6275768D01*
X29685500Y-6124231D01*
X29685499Y-6124230D01*
X34314500Y-6124230D01*
X34314500Y-6275769D01*
X34353716Y-6422128D01*
X34353718Y-6422132D01*
X34353719Y-6422135D01*
X34429485Y-6553365D01*
X34536635Y-6660515D01*
X34667865Y-6736281D01*
X34667869Y-6736282D01*
X34667871Y-6736283D01*
X34814230Y-6775499D01*
X34814232Y-6775500D01*
X34814234Y-6775500D01*
X34965768Y-6775500D01*
X34965768Y-6775499D01*
X35112135Y-6736281D01*
X35243365Y-6660515D01*
X35350515Y-6553365D01*
X35426281Y-6422135D01*
X35465499Y-6275768D01*
X35465500Y-6275768D01*
X35465500Y-6124231D01*
X35465499Y-6124230D01*
X35426283Y-5977871D01*
X35426282Y-5977869D01*
X35426281Y-5977865D01*
X35350515Y-5846635D01*
X35243365Y-5739485D01*
X35112135Y-5663719D01*
X35112132Y-5663718D01*
X35112128Y-5663716D01*
X34965769Y-5624500D01*
X34965766Y-5624500D01*
X34814234Y-5624500D01*
X34814231Y-5624500D01*
X34667871Y-5663716D01*
X34667865Y-5663719D01*
X34536636Y-5739484D01*
X34536631Y-5739488D01*
X34429488Y-5846631D01*
X34429484Y-5846636D01*
X34353719Y-5977865D01*
X34353716Y-5977871D01*
X34314500Y-6124230D01*
X29685499Y-6124230D01*
X29646283Y-5977871D01*
X29646282Y-5977869D01*
X29646281Y-5977865D01*
X29570515Y-5846635D01*
X29463365Y-5739485D01*
X29332135Y-5663719D01*
X29332132Y-5663718D01*
X29332128Y-5663716D01*
X29185769Y-5624500D01*
X29185766Y-5624500D01*
X29034234Y-5624500D01*
X29034231Y-5624500D01*
X28887871Y-5663716D01*
X28887865Y-5663719D01*
X28756636Y-5739484D01*
X28756631Y-5739488D01*
X28649488Y-5846631D01*
X28649484Y-5846636D01*
X28573719Y-5977865D01*
X28573716Y-5977871D01*
X28534500Y-6124230D01*
X250500Y-6124230D01*
X250500Y-312000D01*
X268513Y-268513D01*
X312000Y-250500D01*
X63688000Y-250500D01*
X63731487Y-268513D01*
G37*
%TD.AperFunction*%
%TD*%
M02*
