M48
; DRILL file KiCad 10.0.6 date 2026-10-08T23:49:13
; FORMAT={-:-/ absolute / metric / decimal}
; #@! TF.CreationDate,2026-10-08T23:49:13+13:00
; #@! TF.GenerationSoftware,Kicad,Pcbnew,10.0.6
; #@! TF.FileFunction,Plated,1,4,PTH
FMAT,2
METRIC
; #@! TA.AperFunction,Plated,PTH,ViaDrill
T1C0.200
; #@! TA.AperFunction,Plated,PTH,ComponentDrill
T2C0.600
; #@! TA.AperFunction,Plated,PTH,ComponentDrill
T3C0.700
; #@! TA.AperFunction,Plated,PTH,ComponentDrill
T4C0.750
; #@! TA.AperFunction,Plated,PTH,ComponentDrill
T5C1.000
%
G90
G05
T1
X1.5Y-1.5
X1.5Y-47.0
X1.5Y-92.5
X4.688Y-53.437
X6.85Y-82.988
X8.825Y-70.65
X9.825Y-22.861
X10.05Y-13.126
X12.088Y-82.968
X12.592Y-20.272
X13.603Y-14.737
X14.386Y-75.926
X14.449Y-16.54
X15.42Y-13.42
X15.42Y-14.58
X15.9Y-82.1
X16.0Y-14.0
X16.05Y-37.953
X16.175Y-18.86
X16.25Y-11.923
X16.25Y-16.099
X16.58Y-13.42
X16.742Y-48.997
X16.835Y-84.66
X17.0Y-38.779
X17.912Y-15.191
X18.088Y-13.42
X18.662Y-15.0
X21.476Y-28.407
X21.951Y-72.667
X22.833Y-70.482
X23.018Y-30.826
X23.063Y-72.945
X24.175Y-8.146
X25.964Y-81.465
X26.393Y-56.883
X26.486Y-34.289
X26.621Y-71.742
X26.662Y-87.417
X26.669Y-86.378
X26.673Y-85.582
X27.385Y-75.955
X28.012Y-76.17
X28.116Y-53.664
X28.838Y-77.889
X28.949Y-82.862
X28.964Y-80.703
X29.113Y-53.486
X29.455Y-71.758
X29.55Y-9.042
X29.579Y-81.028
X30.045Y-78.889
X30.167Y-8.76
X30.544Y-70.322
X30.792Y-78.427
X31.25Y-8.6
X31.599Y-13.845
X31.75Y-9.12
X32.13Y-73.068
X32.25Y-8.6
X32.402Y-11.373
X32.75Y-9.12
X33.391Y-9.022
X33.789Y-78.472
X34.275Y-9.053
X34.455Y-78.676
X34.936Y-74.371
X35.383Y-77.544
X35.716Y-72.984
X35.961Y-86.451
X36.0Y-76.155
X38.194Y-8.134
X39.402Y-56.739
X43.242Y-44.808
X46.225Y-49.887
X49.175Y-42.863
X50.823Y-42.87
X62.5Y-1.5
X62.5Y-47.0
X62.5Y-92.5
T3
X24.15Y-49.35
X25.2Y-38.65
X25.93Y-49.35
X26.98Y-38.65
X27.71Y-49.35
X28.76Y-38.65
X29.49Y-49.35
X30.54Y-38.65
X31.27Y-49.35
X32.32Y-38.65
X33.05Y-49.35
X34.1Y-38.65
X34.83Y-49.35
X35.88Y-38.65
X36.61Y-49.35
X37.66Y-38.65
T4
X6.0Y-50.0
X8.0Y-50.0
X10.0Y-50.0
T5
X5.0Y-37.0
X5.0Y-39.54
X6.0Y-26.0
X6.0Y-28.54
X6.0Y-31.08
X10.0Y-43.0
X10.0Y-45.54
X18.0Y-25.0
X18.0Y-27.54
X27.0Y-12.0
X27.0Y-14.54
X27.0Y-17.08
X34.0Y-22.0
X34.0Y-24.54
X45.0Y-23.0
X45.0Y-25.54
X57.0Y-67.0
X57.0Y-69.54
X57.0Y-72.08
X57.0Y-74.62
X57.0Y-77.16
T2
X27.68Y-2.85G85X27.68Y-2.25
G05
X27.68Y-7.28G85X27.68Y-6.18
G05
X36.32Y-2.85G85X36.32Y-2.25
G05
X36.32Y-7.28G85X36.32Y-6.18
G05
M30
